<svg version="1.1" xmlns="http://www.w3.org/2000/svg" viewBox="0 0 1240 820" width="1240" height="820">
  <!-- svg-source:excalidraw -->
  
  <defs>
    <style>
      @font-face {
        font-family: "Virgil";
        src: url("https://excalidraw.com/Virgil.woff2");
      }
      @font-face {
        font-family: "Cascadia";
        src: url("https://excalidraw.com/Cascadia.woff2");
      }
    </style>
  </defs>
  <g stroke-linecap="round" transform="translate(170 110) rotate(0 530 350)"><path d="M0 0 C327.64 0, 655.28 0, 1060 0 M1060 0 C1060 148.47, 1060 296.94, 1060 700 M1060 700 C637.11 700, 214.22 700, 0 700 M0 700 C0 545.11, 0 390.21, 0 0" stroke="#7fabf7" stroke-width="2.5" fill="none" stroke-dasharray="8 10"></path></g><g stroke-linecap="round" transform="translate(570 190) rotate(0 320 270)"><path d="M0 0 L640 0 L640 540 L0 540" stroke="none" stroke-width="0" fill="#454444"></path><path d="M0 0 C150.27 0, 300.53 0, 640 0 M0 0 C184.42 0, 368.85 0, 640 0 M640 0 C640 214.28, 640 428.55, 640 540 M640 0 C640 174.72, 640 349.43, 640 540 M640 540 C509.74 540, 379.48 540, 0 540 M640 540 C398.79 540, 157.57 540, 0 540 M0 540 C0 398.06, 0 256.12, 0 0 M0 540 C0 384.74, 0 229.47, 0 0" stroke="#7fabf7" stroke-width="4" fill="none"></path></g><g stroke-linecap="round" transform="translate(90 70) rotate(0 103.07692307692305 40)"><path d="M20 0 L186.15 0 L194.9 1.25 L201.15 5 L203.34 7.81 L205.84 15.31 L206.15 60 L204.9 68.75 L203.34 72.19 L198.34 77.19 L194.9 78.75 L186.15 80 L20 80 L11.25 78.75 L5 75 L1.25 68.75 L0.31 64.69 L0.31 15.31 L2.81 7.81 L5 5 L11.25 1.25 L20 0" stroke="none" stroke-width="0" fill="#FFF"></path><path d="M20 0 M20 0 C72.43 0, 124.85 0, 186.15 0 M20 0 C53.31 0, 86.63 0, 186.15 0 M186.15 0 C199.49 0, 206.15 6.67, 206.15 20 M186.15 0 C199.49 0, 206.15 6.67, 206.15 20 M206.15 20 C206.15 33.82, 206.15 47.64, 206.15 60 M206.15 20 C206.15 29.08, 206.15 38.15, 206.15 60 M206.15 60 C206.15 73.33, 199.49 80, 186.15 80 M206.15 60 C206.15 73.33, 199.49 80, 186.15 80 M186.15 80 C127.87 80, 69.59 80, 20 80 M186.15 80 C134.45 80, 82.74 80, 20 80 M20 80 C6.67 80, 0 73.33, 0 60 M20 80 C6.67 80, 0 73.33, 0 60 M0 60 C0 49.46, 0 38.93, 0 20 M0 60 C0 49.49, 0 38.98, 0 20 M0 20 C0 6.67, 6.67 0, 20 0 M0 20 C0 6.67, 6.67 0, 20 0" stroke="#4285f4" stroke-width="2" fill="none"></path></g><g transform="translate(151.53846153846177 85.38461538461524) rotate(0 32 7)"><text x="0" y="11" font-family="Helvetica, Segoe UI Emoji" font-size="12.307692307692308px" fill="#B5B9BF" text-anchor="start" style="white-space: pre;" direction="ltr">custom-vpc</text></g><g transform="translate(151.53846153846177 101.79487179487182) rotate(0 64.6153846153846 8.205128205128176)"><text x="0" y="13.410256410256405" font-family="Helvetica, Segoe UI Emoji" font-size="12.30769230769231px" fill="#000000" text-anchor="start" style="white-space: pre;" direction="ltr">Virtual Private Cloud</text></g><g stroke-linecap="round"><g transform="translate(129.8429635854867 94.22688410832325) rotate(0 4.774874173677887 4.774874173677858)" fill-rule="evenodd"><path d="M0 0 L9.55 0 L9.55 9.55 L0 9.55 L0 0" stroke="none" stroke-width="0" fill="#aecbfa" fill-rule="evenodd"></path><path d="M0 0 C3.58 0, 7.17 0, 9.55 0 M0 0 C3.12 0, 6.24 0, 9.55 0 M9.55 0 C9.55 2.79, 9.55 5.59, 9.55 9.55 M9.55 0 C9.55 2.55, 9.55 5.11, 9.55 9.55 M9.55 9.55 C7.22 9.55, 4.89 9.55, 0 9.55 M9.55 9.55 C7.06 9.55, 4.58 9.55, 0 9.55 M0 9.55 C0 6.93, 0 4.31, 0 0 M0 9.55 C0 5.83, 0 2.12, 0 0 M0 0 C0 0, 0 0, 0 0 M0 0 C0 0, 0 0, 0 0" stroke="#00000000" stroke-width="1" fill="none"></path></g></g><g stroke-linecap="round"><g transform="translate(129.8429635854867 116.50963025215333) rotate(0 4.774874173677887 4.774874173677858)" fill-rule="evenodd"><path d="M0 0 L9.55 0 L9.55 9.55 L0 9.55 L0 0" stroke="none" stroke-width="0" fill="#aecbfa" fill-rule="evenodd"></path><path d="M0 0 C3.32 0, 6.64 0, 9.55 0 M0 0 C3 0, 6.01 0, 9.55 0 M9.55 0 C9.55 3.58, 9.55 7.15, 9.55 9.55 M9.55 0 C9.55 3.02, 9.55 6.03, 9.55 9.55 M9.55 9.55 C5.99 9.55, 2.43 9.55, 0 9.55 M9.55 9.55 C6.26 9.55, 2.98 9.55, 0 9.55 M0 9.55 C0 7.28, 0 5.01, 0 0 M0 9.55 C0 6.45, 0 3.35, 0 0 M0 0 C0 0, 0 0, 0 0 M0 0 C0 0, 0 0, 0 0" stroke="#00000000" stroke-width="1" fill="none"></path></g></g><g stroke-linecap="round"><g transform="translate(107.56021744165668 94.22688410832325) rotate(0 4.774874173677887 4.774874173677858)" fill-rule="evenodd"><path d="M0 0 L9.55 0 L9.55 9.55 L0 9.55 L0 0" stroke="none" stroke-width="0" fill="#aecbfa" fill-rule="evenodd"></path><path d="M0 0 C2.44 0, 4.88 0, 9.55 0 M0 0 C2.72 0, 5.43 0, 9.55 0 M9.55 0 C9.55 2.76, 9.55 5.52, 9.55 9.55 M9.55 0 C9.55 3.75, 9.55 7.5, 9.55 9.55 M9.55 9.55 C7.63 9.55, 5.71 9.55, 0 9.55 M9.55 9.55 C7.39 9.55, 5.23 9.55, 0 9.55 M0 9.55 C0 5.83, 0 2.11, 0 0 M0 9.55 C0 6.66, 0 3.76, 0 0 M0 0 C0 0, 0 0, 0 0 M0 0 C0 0, 0 0, 0 0" stroke="#00000000" stroke-width="1" fill="none"></path></g></g><g stroke-linecap="round"><g transform="translate(107.56021744165668 116.50963025215333) rotate(0 4.774874173677887 4.774874173677858)" fill-rule="evenodd"><path d="M0 0 L9.55 0 L9.55 9.55 L0 9.55 L0 0" stroke="none" stroke-width="0" fill="#aecbfa" fill-rule="evenodd"></path><path d="M0 0 C3.32 0, 6.63 0, 9.55 0 M0 0 C2.11 0, 4.22 0, 9.55 0 M9.55 0 C9.55 3.36, 9.55 6.73, 9.55 9.55 M9.55 0 C9.55 2.31, 9.55 4.62, 9.55 9.55 M9.55 9.55 C7.63 9.55, 5.72 9.55, 0 9.55 M9.55 9.55 C7.18 9.55, 4.81 9.55, 0 9.55 M0 9.55 C0 7.38, 0 5.22, 0 0 M0 9.55 C0 6.09, 0 2.63, 0 0 M0 0 C0 0, 0 0, 0 0 M0 0 C0 0, 0 0, 0 0" stroke="#00000000" stroke-width="1" fill="none"></path></g></g><g stroke-linecap="round"><g transform="translate(134.61783775916462 94.22688410832325) rotate(0 2.3874370868389434 4.774874173677858)" fill-rule="evenodd"><path d="M0 0 L4.77 0 L4.77 9.55 L0 9.55 L0 0" stroke="none" stroke-width="0" fill="#669df6" fill-rule="evenodd"></path><path d="M0 0 C0.97 0, 1.94 0, 4.77 0 M0 0 C1.8 0, 3.6 0, 4.77 0 M4.77 0 C4.77 2.51, 4.77 5.02, 4.77 9.55 M4.77 0 C4.77 2.75, 4.77 5.49, 4.77 9.55 M4.77 9.55 C3.74 9.55, 2.7 9.55, 0 9.55 M4.77 9.55 C2.91 9.55, 1.05 9.55, 0 9.55 M0 9.55 C0 6.6, 0 3.65, 0 0 M0 9.55 C0 6.7, 0 3.85, 0 0 M0 0 C0 0, 0 0, 0 0 M0 0 C0 0, 0 0, 0 0" stroke="#00000000" stroke-width="1" fill="none"></path></g></g><g stroke-linecap="round"><g transform="translate(134.61783775916462 116.50963025215333) rotate(0 2.3874370868389434 4.774874173677858)" fill-rule="evenodd"><path d="M0 0 L4.77 0 L4.77 9.55 L0 9.55 L0 0" stroke="none" stroke-width="0" fill="#669df6" fill-rule="evenodd"></path><path d="M0 0 C1.07 0, 2.13 0, 4.77 0 M0 0 C1.8 0, 3.6 0, 4.77 0 M4.77 0 C4.77 3.13, 4.77 6.25, 4.77 9.55 M4.77 0 C4.77 2.82, 4.77 5.64, 4.77 9.55 M4.77 9.55 C3.1 9.55, 1.42 9.55, 0 9.55 M4.77 9.55 C3.53 9.55, 2.28 9.55, 0 9.55 M0 9.55 C0 7.38, 0 5.21, 0 0 M0 9.55 C0 6.81, 0 4.08, 0 0 M0 0 C0 0, 0 0, 0 0 M0 0 C0 0, 0 0, 0 0" stroke="#00000000" stroke-width="1" fill="none"></path></g></g><g stroke-linecap="round"><g transform="translate(112.33509161533436 94.22688410832325) rotate(0 2.3874370868389434 4.774874173677858)" fill-rule="evenodd"><path d="M0 0 L4.77 0 L4.77 9.55 L0 9.55 L0 0" stroke="none" stroke-width="0" fill="#669df6" fill-rule="evenodd"></path><path d="M0 0 C1.09 0, 2.18 0, 4.77 0 M0 0 C1 0, 1.99 0, 4.77 0 M4.77 0 C4.77 2.65, 4.77 5.3, 4.77 9.55 M4.77 0 C4.77 1.93, 4.77 3.85, 4.77 9.55 M4.77 9.55 C3.42 9.55, 2.07 9.55, 0 9.55 M4.77 9.55 C3.69 9.55, 2.61 9.55, 0 9.55 M0 9.55 C0 6.46, 0 3.38, 0 0 M0 9.55 C0 6.2, 0 2.84, 0 0 M0 0 C0 0, 0 0, 0 0 M0 0 C0 0, 0 0, 0 0" stroke="#00000000" stroke-width="1" fill="none"></path></g></g><g stroke-linecap="round"><g transform="translate(112.33509161533436 116.50963025215333) rotate(0 2.3874370868389434 4.774874173677858)" fill-rule="evenodd"><path d="M0 0 L4.77 0 L4.77 9.55 L0 9.55 L0 0" stroke="none" stroke-width="0" fill="#669df6" fill-rule="evenodd"></path><path d="M0 0 C1.44 0, 2.89 0, 4.77 0 M0 0 C1.78 0, 3.56 0, 4.77 0 M4.77 0 C4.77 2.87, 4.77 5.75, 4.77 9.55 M4.77 0 C4.77 3.01, 4.77 6.03, 4.77 9.55 M4.77 9.55 C2.97 9.55, 1.17 9.55, 0 9.55 M4.77 9.55 C3.13 9.55, 1.48 9.55, 0 9.55 M0 9.55 C0 6.48, 0 3.41, 0 0 M0 9.55 C0 6.2, 0 2.85, 0 0 M0 0 C0 0, 0 0, 0 0 M0 0 C0 0, 0 0, 0 0" stroke="#00000000" stroke-width="1" fill="none"></path></g></g><g stroke-linecap="round"><g transform="translate(117.10996578901234 97.41013355744167) rotate(0 6.366498898237182 1.5916247245592672)" fill-rule="evenodd"><path d="M0 0 L12.73 0 L12.73 3.18 L0 3.18 L0 0" stroke="none" stroke-width="0" fill="#669df6" fill-rule="evenodd"></path><path d="M0 0 C4.03 0, 8.05 0, 12.73 0 M0 0 C3.93 0, 7.85 0, 12.73 0 M12.73 0 C12.73 1.25, 12.73 2.5, 12.73 3.18 M12.73 0 C12.73 0.78, 12.73 1.56, 12.73 3.18 M12.73 3.18 C8.88 3.18, 5.03 3.18, 0 3.18 M12.73 3.18 C8.87 3.18, 5 3.18, 0 3.18 M0 3.18 C0 2.39, 0 1.59, 0 0 M0 3.18 C0 2.34, 0 1.49, 0 0 M0 0 C0 0, 0 0, 0 0 M0 0 C0 0, 0 0, 0 0" stroke="#00000000" stroke-width="1" fill="none"></path></g></g><g stroke-linecap="round"><g transform="translate(117.10996578901234 119.6928797012722) rotate(0 6.366498898237182 1.5916257026868266)" fill-rule="evenodd"><path d="M0 0 L12.73 0 L12.73 3.18 L0 3.18 L0 0" stroke="none" stroke-width="0" fill="#669df6" fill-rule="evenodd"></path><path d="M0 0 C4.08 0, 8.16 0, 12.73 0 M0 0 C4.56 0, 9.12 0, 12.73 0 M12.73 0 C12.73 1.01, 12.73 2.02, 12.73 3.18 M12.73 0 C12.73 1.01, 12.73 2.03, 12.73 3.18 M12.73 3.18 C10.06 3.18, 7.4 3.18, 0 3.18 M12.73 3.18 C8.25 3.18, 3.76 3.18, 0 3.18 M0 3.18 C0 2.53, 0 1.88, 0 0 M0 3.18 C0 2.17, 0 1.17, 0 0 M0 0 C0 0, 0 0, 0 0 M0 0 C0 0, 0 0, 0 0" stroke="#00000000" stroke-width="1" fill="none"></path></g></g><g stroke-linecap="round"><g transform="translate(133.0262130346053 103.77663245567919) rotate(0 1.5916257026867981 6.366498898237182)" fill-rule="evenodd"><path d="M0 0 L3.18 0 L3.18 12.73 L0 12.73 L0 0" stroke="none" stroke-width="0" fill="#669df6" fill-rule="evenodd"></path><path d="M0 0 C0.9 0, 1.8 0, 3.18 0 M0 0 C1.06 0, 2.13 0, 3.18 0 M3.18 0 C3.18 2.65, 3.18 5.3, 3.18 12.73 M3.18 0 C3.18 3.69, 3.18 7.37, 3.18 12.73 M3.18 12.73 C2.12 12.73, 1.05 12.73, 0 12.73 M3.18 12.73 C2.27 12.73, 1.36 12.73, 0 12.73 M0 12.73 C0 7.9, 0 3.06, 0 0 M0 12.73 C0 7.92, 0 3.1, 0 0 M0 0 C0 0, 0 0, 0 0 M0 0 C0 0, 0 0, 0 0" stroke="#00000000" stroke-width="1" fill="none"></path></g></g><g stroke-linecap="round"><g transform="translate(110.74346689077532 103.77663245567919) rotate(0 1.5916247245592956 6.366498898237182)" fill-rule="evenodd"><path d="M0 0 L3.18 0 L3.18 12.73 L0 12.73 L0 0" stroke="none" stroke-width="0" fill="#669df6" fill-rule="evenodd"></path><path d="M0 0 C1.04 0, 2.08 0, 3.18 0 M0 0 C0.93 0, 1.86 0, 3.18 0 M3.18 0 C3.18 3.41, 3.18 6.81, 3.18 12.73 M3.18 0 C3.18 3.1, 3.18 6.21, 3.18 12.73 M3.18 12.73 C2.35 12.73, 1.53 12.73, 0 12.73 M3.18 12.73 C2.31 12.73, 1.44 12.73, 0 12.73 M0 12.73 C0 7.78, 0 2.83, 0 0 M0 12.73 C0 10.17, 0 7.61, 0 0 M0 0 C0 0, 0 0, 0 0 M0 0 C0 0, 0 0, 0 0" stroke="#00000000" stroke-width="1" fill="none"></path></g></g><g stroke-linecap="round"><g transform="translate(110.74346689077532 103.77663245567919) rotate(0 1.5916247245592956 1.5916247245592672)" fill-rule="evenodd"><path d="M0 0 L3.18 0 L3.18 3.18 L0 3.18 L0 0" stroke="none" stroke-width="0" fill="#4285f4" fill-rule="evenodd"></path><path d="M0 0 C1 0, 2 0, 3.18 0 M0 0 C1.19 0, 2.38 0, 3.18 0 M3.18 0 C3.18 1.01, 3.18 2.01, 3.18 3.18 M3.18 0 C3.18 1.19, 3.18 2.37, 3.18 3.18 M3.18 3.18 C2.09 3.18, 0.99 3.18, 0 3.18 M3.18 3.18 C2.43 3.18, 1.67 3.18, 0 3.18 M0 3.18 C0 2.15, 0 1.12, 0 0 M0 3.18 C0 2.04, 0 0.91, 0 0 M0 0 C0 0, 0 0, 0 0 M0 0 C0 0, 0 0, 0 0" stroke="#00000000" stroke-width="1" fill="none"></path></g></g><g stroke-linecap="round"><g transform="translate(133.0262130346053 103.77663245567919) rotate(0 1.5916257026867981 1.5916247245592672)" fill-rule="evenodd"><path d="M0 0 L3.18 0 L3.18 3.18 L0 3.18 L0 0" stroke="none" stroke-width="0" fill="#4285f4" fill-rule="evenodd"></path><path d="M0 0 C0.91 0, 1.81 0, 3.18 0 M0 0 C0.92 0, 1.84 0, 3.18 0 M3.18 0 C3.18 1.25, 3.18 2.5, 3.18 3.18 M3.18 0 C3.18 0.64, 3.18 1.28, 3.18 3.18 M3.18 3.18 C2.46 3.18, 1.74 3.18, 0 3.18 M3.18 3.18 C1.94 3.18, 0.7 3.18, 0 3.18 M0 3.18 C0 2.22, 0 1.25, 0 0 M0 3.18 C0 2.16, 0 1.13, 0 0 M0 0 C0 0, 0 0, 0 0 M0 0 C0 0, 0 0, 0 0" stroke="#00000000" stroke-width="1" fill="none"></path></g></g><g stroke-linecap="round"><g transform="translate(117.10996578901234 97.41013355744167) rotate(0 1.5916247245592956 1.5916247245592672)" fill-rule="evenodd"><path d="M0 0 L3.18 0 L3.18 3.18 L0 3.18 L0 0" stroke="none" stroke-width="0" fill="#4285f4" fill-rule="evenodd"></path><path d="M0 0 C0.7 0, 1.41 0, 3.18 0 M0 0 C1.12 0, 2.24 0, 3.18 0 M3.18 0 C3.18 0.77, 3.18 1.54, 3.18 3.18 M3.18 0 C3.18 0.64, 3.18 1.28, 3.18 3.18 M3.18 3.18 C2.39 3.18, 1.6 3.18, 0 3.18 M3.18 3.18 C2.46 3.18, 1.74 3.18, 0 3.18 M0 3.18 C0 2.03, 0 0.88, 0 0 M0 3.18 C0 2.19, 0 1.2, 0 0 M0 0 C0 0, 0 0, 0 0 M0 0 C0 0, 0 0, 0 0" stroke="#00000000" stroke-width="1" fill="none"></path></g></g><g stroke-linecap="round"><g transform="translate(117.10996578901234 119.6928797012722) rotate(0 1.5916247245592956 1.5916257026868266)" fill-rule="evenodd"><path d="M0 0 L3.18 0 L3.18 3.18 L0 3.18 L0 0" stroke="none" stroke-width="0" fill="#4285f4" fill-rule="evenodd"></path><path d="M0 0 C1.2 0, 2.4 0, 3.18 0 M0 0 C0.84 0, 1.67 0, 3.18 0 M3.18 0 C3.18 0.92, 3.18 1.83, 3.18 3.18 M3.18 0 C3.18 0.69, 3.18 1.38, 3.18 3.18 M3.18 3.18 C1.94 3.18, 0.7 3.18, 0 3.18 M3.18 3.18 C2.2 3.18, 1.22 3.18, 0 3.18 M0 3.18 C0 2.23, 0 1.28, 0 0 M0 3.18 C0 2.4, 0 1.62, 0 0 M0 0 C0 0, 0 0, 0 0 M0 0 C0 0, 0 0, 0 0" stroke="#00000000" stroke-width="1" fill="none"></path></g></g><g stroke-linecap="round" transform="translate(510 170) rotate(0 88.5 39)"><path d="M19.5 0 L157.5 0 L166.03 1.22 L172.13 4.88 L174.26 7.62 L176.7 14.93 L177 58.5 L175.78 67.03 L174.26 70.38 L169.38 75.26 L166.03 76.78 L157.5 78 L19.5 78 L10.97 76.78 L4.88 73.13 L2.74 70.38 L0.3 63.07 L0.3 14.93 L1.22 10.97 L4.88 4.88 L10.97 1.22 L19.5 0" stroke="none" stroke-width="0" fill="#FFF"></path><path d="M19.5 0 M19.5 0 C60.97 0, 102.45 0, 157.5 0 M19.5 0 C73.48 0, 127.46 0, 157.5 0 M157.5 0 C170.5 0, 177 6.5, 177 19.5 M157.5 0 C170.5 0, 177 6.5, 177 19.5 M177 19.5 C177 34.39, 177 49.28, 177 58.5 M177 19.5 C177 33.9, 177 48.3, 177 58.5 M177 58.5 C177 71.5, 170.5 78, 157.5 78 M177 58.5 C177 71.5, 170.5 78, 157.5 78 M157.5 78 C111.86 78, 66.23 78, 19.5 78 M157.5 78 C120.56 78, 83.62 78, 19.5 78 M19.5 78 C6.5 78, 0 71.5, 0 58.5 M19.5 78 C6.5 78, 0 71.5, 0 58.5 M0 58.5 C0 48.12, 0 37.74, 0 19.5 M0 58.5 C0 48.74, 0 38.97, 0 19.5 M0 19.5 C0 6.5, 6.5 0, 19.5 0 M0 19.5 C0 6.5, 6.5 0, 19.5 0" stroke="#4285f4" stroke-width="2" fill="none"></path></g><g transform="translate(570 185) rotate(0 24 7)"><text x="0" y="11" font-family="Helvetica, Segoe UI Emoji" font-size="12px" fill="#B5B9BF" text-anchor="start" style="white-space: pre;" direction="ltr">standard</text></g><g transform="translate(570 201) rotate(0 9 8)"><text x="0" y="12" font-family="Helvetica, Segoe UI Emoji" font-size="12px" fill="#000000" text-anchor="start" style="white-space: pre;" direction="ltr">GKE</text></g><g transform="translate(570 217) rotate(0 38 7)"><text x="0" y="11" font-family="Helvetica, Segoe UI Emoji" font-size="12px" fill="#B5B9BF" text-anchor="start" style="white-space: pre;" direction="ltr">private-cluster</text></g><g stroke-linecap="round"><g transform="translate(542.7394733428955 192.86315786838531) rotate(0 -0.009210586547851562 16.50986737012863)" fill-rule="evenodd"><path d="M0 0 L-14.54 8.26 L-14.54 24.75 L-0.03 33.02 L14.52 24.69 L14.52 8.11 L0 0" stroke="none" stroke-width="0" fill="#aecbfa" fill-rule="evenodd"></path><path d="M0 0 C-5.62 3.2, -11.25 6.39, -14.54 8.26 M0 0 C-4.53 2.57, -9.06 5.15, -14.54 8.26 M-14.54 8.26 C-14.54 14.84, -14.54 21.43, -14.54 24.75 M-14.54 8.26 C-14.54 13.8, -14.54 19.33, -14.54 24.75 M-14.54 24.75 C-10.75 26.91, -6.96 29.07, -0.03 33.02 M-14.54 24.75 C-11.46 26.5, -8.39 28.26, -0.03 33.02 M-0.03 33.02 C3.03 31.27, 6.09 29.52, 14.52 24.69 M-0.03 33.02 C5.1 30.09, 10.23 27.15, 14.52 24.69 M14.52 24.69 C14.52 20.24, 14.52 15.79, 14.52 8.11 M14.52 24.69 C14.52 20.91, 14.52 17.13, 14.52 8.11 M14.52 8.11 C9.74 5.43, 4.95 2.76, 0 0 M14.52 8.11 C9.66 5.39, 4.79 2.67, 0 0 M0 0 C0 0, 0 0, 0 0 M0 0 C0 0, 0 0, 0 0" stroke="#00000000" stroke-width="1" fill="none"></path></g></g><g stroke-linecap="round"><g transform="translate(542.7486839294434 196.45526313781738) rotate(0 -0.01842212677001953 12.913158416748047)" fill-rule="evenodd"><path d="M0 0 L-11.42 6.49 L-11.42 19.33 L-0.05 25.83 L11.38 19.29 L11.38 6.36 L0 0" stroke="none" stroke-width="0" fill="#fff" fill-rule="evenodd"></path><path d="M0 0 C-2.94 1.67, -5.87 3.34, -11.42 6.49 M0 0 C-4.25 2.41, -8.49 4.83, -11.42 6.49 M-11.42 6.49 C-11.42 11.11, -11.42 15.73, -11.42 19.33 M-11.42 6.49 C-11.42 10.56, -11.42 14.62, -11.42 19.33 M-11.42 19.33 C-8.8 20.83, -6.17 22.33, -0.05 25.83 M-11.42 19.33 C-9 20.71, -6.58 22.1, -0.05 25.83 M-0.05 25.83 C2.94 24.12, 5.93 22.41, 11.38 19.29 M-0.05 25.83 C2.33 24.47, 4.71 23.11, 11.38 19.29 M11.38 19.29 C11.38 15.16, 11.38 11.04, 11.38 6.36 M11.38 19.29 C11.38 15.99, 11.38 12.69, 11.38 6.36 M11.38 6.36 C8.99 5.02, 6.6 3.68, 0 0 M11.38 6.36 C6.89 3.85, 2.4 1.34, 0 0 M0 0 C0 0, 0 0, 0 0 M0 0 C0 0, 0 0, 0 0" stroke="#00000000" stroke-width="1" fill="none"></path></g></g><g stroke-linecap="round"><g transform="translate(543.457893371582 209.76447296142578) rotate(0 3.2282896041870117 1.9250006675720215)" fill-rule="evenodd"><path d="M0 0 L0 7.67 L6.46 3.89 L6.46 -3.82 L0 0" stroke="none" stroke-width="0" fill="#4285f4" fill-rule="evenodd"></path><path d="M0 0 C0 1.69, 0 3.39, 0 7.67 M0 0 C0 2.91, 0 5.81, 0 7.67 M0 7.67 C2.35 6.3, 4.69 4.92, 6.46 3.89 M0 7.67 C2.38 6.28, 4.76 4.88, 6.46 3.89 M6.46 3.89 C6.46 1.76, 6.46 -0.37, 6.46 -3.82 M6.46 3.89 C6.46 2.3, 6.46 0.72, 6.46 -3.82 M6.46 -3.82 C4.41 -2.61, 2.36 -1.4, 0 0 M6.46 -3.82 C4.42 -2.61, 2.37 -1.41, 0 0 M0 0 C0 0, 0 0, 0 0 M0 0 C0 0, 0 0, 0 0" stroke="#00000000" stroke-width="1" fill="none"></path></g></g><g stroke-linecap="round"><g transform="translate(536.1263160705566 204.6986846923828) rotate(0 6.603947639465332 0.01381540298461914)" fill-rule="evenodd"><path d="M0 0 L6.55 3.79 L13.21 -0.01 L6.55 -3.77 L0 0" stroke="none" stroke-width="0" fill="#aecbfa" fill-rule="evenodd"></path><path d="M0 0 C2.37 1.38, 4.75 2.75, 6.55 3.79 M0 0 C2.11 1.22, 4.22 2.44, 6.55 3.79 M6.55 3.79 C7.93 3.01, 9.31 2.22, 13.21 -0.01 M6.55 3.79 C8.65 2.6, 10.75 1.4, 13.21 -0.01 M13.21 -0.01 C10.6 -1.48, 8 -2.95, 6.55 -3.77 M13.21 -0.01 C11.62 -0.9, 10.04 -1.8, 6.55 -3.77 M6.55 -3.77 C4.13 -2.38, 1.71 -0.99, 0 0 M6.55 -3.77 C5.15 -2.96, 3.74 -2.15, 0 0 M0 0 C0 0, 0 0, 0 0 M0 0 C0 0, 0 0, 0 0" stroke="#00000000" stroke-width="1" fill="none"></path></g></g><g stroke-linecap="round"><g transform="translate(535.5092105865479 205.97894668579102) rotate(0 3.182236671447754 5.728947639465332)" fill-rule="evenodd"><path d="M0 0 L6.41 3.83 L6.41 11.46 L-0.05 7.55 L0 0" stroke="none" stroke-width="0" fill="#669df6" fill-rule="evenodd"></path><path d="M0 0 C1.52 0.91, 3.03 1.81, 6.41 3.83 M0 0 C1.59 0.95, 3.18 1.9, 6.41 3.83 M6.41 3.83 C6.41 5.75, 6.41 7.66, 6.41 11.46 M6.41 3.83 C6.41 6.22, 6.41 8.62, 6.41 11.46 M6.41 11.46 C5.09 10.66, 3.76 9.86, -0.05 7.55 M6.41 11.46 C3.95 9.97, 1.49 8.48, -0.05 7.55 M-0.05 7.55 C-0.03 5.03, -0.02 2.5, 0 0 M-0.05 7.55 C-0.03 4.66, -0.01 1.76, 0 0 M0 0 C0 0, 0 0, 0 0 M0 0 C0 0, 0 0, 0 0" stroke="#00000000" stroke-width="1" fill="none"></path></g></g><g stroke-linecap="round"><g transform="translate(543.457893371582 201.8526315689087) rotate(0 -0.7414464950561523 -2.6986842155456543)" fill-rule="evenodd"><path d="M0 0 L0 -5 L-0.71 -5.4 L-1.48 -4.95 L-1.48 0 L0 0" stroke="none" stroke-width="0" fill="#aecbfa" fill-rule="evenodd"></path><path d="M0 0 C0 -1.66, 0 -3.31, 0 -5 M0 0 C0 -1.74, 0 -3.49, 0 -5 M0 -5 C-0.19 -5.11, -0.38 -5.22, -0.71 -5.4 M0 -5 C-0.2 -5.11, -0.4 -5.22, -0.71 -5.4 M-0.71 -5.4 C-0.88 -5.3, -1.05 -5.2, -1.48 -4.95 M-0.71 -5.4 C-0.97 -5.25, -1.23 -5.1, -1.48 -4.95 M-1.48 -4.95 C-1.48 -3.49, -1.48 -2.04, -1.48 0 M-1.48 -4.95 C-1.48 -3.1, -1.48 -1.26, -1.48 0 M-1.48 0 C-0.95 0, -0.41 0, 0 0 M-1.48 0 C-1.09 0, -0.7 0, 0 0 M0 0 C0 0, 0 0, 0 0 M0 0 C0 0, 0 0, 0 0" stroke="#00000000" stroke-width="1" fill="none"></path></g></g><g stroke-linecap="round"><g transform="translate(554.1328926086426 215.125) rotate(0 -2.9657888412475586 -0.9717111587524414)" fill-rule="evenodd"><path d="M0 0 L-5.24 -3.05 L-5.93 -1.85 L-0.85 1.11 L0 0.62 L0 0" stroke="none" stroke-width="0" fill="#4285f4" fill-rule="evenodd"></path><path d="M0 0 C-1.3 -0.76, -2.61 -1.52, -5.24 -3.05 M0 0 C-1.99 -1.16, -3.98 -2.32, -5.24 -3.05 M-5.24 -3.05 C-5.44 -2.71, -5.63 -2.37, -5.93 -1.85 M-5.24 -3.05 C-5.41 -2.75, -5.59 -2.45, -5.93 -1.85 M-5.93 -1.85 C-4.15 -0.82, -2.37 0.22, -0.85 1.11 M-5.93 -1.85 C-4.36 -0.94, -2.79 -0.03, -0.85 1.11 M-0.85 1.11 C-0.66 0.99, -0.46 0.88, 0 0.62 M-0.85 1.11 C-0.52 0.92, -0.19 0.73, 0 0.62 M0 0.62 C0 0.41, 0 0.21, 0 0 M0 0.62 C0 0.39, 0 0.17, 0 0 M0 0 C0 0, 0 0, 0 0 M0 0 C0 0, 0 0, 0 0" stroke="#00000000" stroke-width="1" fill="none"></path></g></g><g stroke-linecap="round"><g transform="translate(536.375 212.10394668579102) rotate(0 -2.169079303741455 2.0769729614257812)" fill-rule="evenodd"><path d="M0 0 L-5.05 3.04 L-5.05 3.68 L-4.23 4.15 L0.71 1.19 L0 0" stroke="none" stroke-width="0" fill="#669df6" fill-rule="evenodd"></path><path d="M0 0 C-1.47 0.89, -2.95 1.77, -5.05 3.04 M0 0 C-1.17 0.71, -2.35 1.41, -5.05 3.04 M-5.05 3.04 C-5.05 3.25, -5.05 3.45, -5.05 3.68 M-5.05 3.04 C-5.05 3.23, -5.05 3.43, -5.05 3.68 M-5.05 3.68 C-4.8 3.83, -4.55 3.97, -4.23 4.15 M-5.05 3.68 C-4.73 3.86, -4.42 4.04, -4.23 4.15 M-4.23 4.15 C-2.75 3.27, -1.28 2.38, 0.71 1.19 M-4.23 4.15 C-2.6 3.17, -0.96 2.19, 0.71 1.19 M0.71 1.19 C0.48 0.81, 0.26 0.43, 0 0 M0.71 1.19 C0.52 0.87, 0.33 0.56, 0 0 M0 0 C0 0, 0 0, 0 0 M0 0 C0 0, 0 0, 0 0" stroke="#00000000" stroke-width="1" fill="none"></path></g></g><g stroke-linecap="round" transform="translate(590 550) rotate(0 88.5 39)"><path d="M19.5 0 L157.5 0 L166.03 1.22 L172.13 4.88 L174.26 7.62 L176.7 14.93 L177 58.5 L175.78 67.03 L174.26 70.38 L169.38 75.26 L166.03 76.78 L157.5 78 L19.5 78 L10.97 76.78 L4.88 73.13 L2.74 70.38 L0.3 63.07 L0.3 14.93 L1.22 10.97 L4.88 4.88 L10.97 1.22 L19.5 0" stroke="none" stroke-width="0" fill="#ffffff"></path><path d="M19.5 0 M19.5 0 C53.98 0, 88.46 0, 157.5 0 M19.5 0 C65.21 0, 110.93 0, 157.5 0 M157.5 0 C170.5 0, 177 6.5, 177 19.5 M157.5 0 C170.5 0, 177 6.5, 177 19.5 M177 19.5 C177 30.48, 177 41.46, 177 58.5 M177 19.5 C177 31.67, 177 43.84, 177 58.5 M177 58.5 C177 71.5, 170.5 78, 157.5 78 M177 58.5 C177 71.5, 170.5 78, 157.5 78 M157.5 78 C127.86 78, 98.21 78, 19.5 78 M157.5 78 C102.52 78, 47.53 78, 19.5 78 M19.5 78 C6.5 78, 0 71.5, 0 58.5 M19.5 78 C6.5 78, 0 71.5, 0 58.5 M0 58.5 C0 46.18, 0 33.85, 0 19.5 M0 58.5 C0 49.05, 0 39.61, 0 19.5 M0 19.5 C0 6.5, 6.5 0, 19.5 0 M0 19.5 C0 6.5, 6.5 0, 19.5 0" stroke="#000000" stroke-width="2" fill="none"></path></g><g transform="translate(650 576.5) rotate(0 33.5 11.5)"><text x="0" y="18" font-family="Helvetica, Segoe UI Emoji" font-size="20px" fill="#000000" text-anchor="start" style="white-space: pre;" direction="ltr">Ingress</text></g><g transform="translate(650 597) rotate(0 55 7)"><text x="0" y="11" font-family="Helvetica, Segoe UI Emoji" font-size="12px" fill="#B5B9BF" text-anchor="start" style="white-space: pre;" direction="ltr">valid DNS ,http/https</text></g><g stroke-linecap="round"><g transform="translate(605 571.5) rotate(0 17.5 17.5)" fill-rule="evenodd"><path d="M0 0 L35 0 L35 35 L0 35 L0 0" stroke="none" stroke-width="0" fill="#00000000" fill-rule="evenodd"></path><path d="M0 0 C7.02 0, 14.04 0, 35 0 M0 0 C7.45 0, 14.89 0, 35 0 M35 0 C35 12.04, 35 24.09, 35 35 M35 0 C35 8.48, 35 16.96, 35 35 M35 35 C24.14 35, 13.29 35, 0 35 M35 35 C25.89 35, 16.79 35, 0 35 M0 35 C0 27.45, 0 19.9, 0 0 M0 35 C0 26.3, 0 17.61, 0 0 M0 0 C0 0, 0 0, 0 0 M0 0 C0 0, 0 0, 0 0" stroke="#00000000" stroke-width="2" fill="none"></path></g></g><g stroke-linecap="round"><g transform="translate(619.2624998092651 587.7749996185303) rotate(0 -2.3406248092651367 -0.4302082061767578)" fill-rule="evenodd"><path d="M0 0 L-2.07 2.07 L-2.07 2.07 L-3.5 0.29 L-4.68 -2.22 L-1.85 -2.93 L-1.85 -2.93 L-1.02 -1.26 L0 0 L0 0" stroke="none" stroke-width="0" fill="#7fabf7" fill-rule="evenodd"></path><path d="M0 0 C-0.51 0.51, -1.01 1.01, -2.07 2.07 M0 0 C-0.65 0.65, -1.31 1.31, -2.07 2.07 M-2.07 2.07 C-2.07 2.07, -2.07 2.07, -2.07 2.07 M-2.07 2.07 C-2.07 2.07, -2.07 2.07, -2.07 2.07 M-2.07 2.07 C-2.55 1.48, -3.03 0.88, -3.5 0.29 M-2.07 2.07 C-2.39 1.68, -2.71 1.28, -3.5 0.29 M-3.5 0.29 C-3.88 -0.5, -4.25 -1.3, -4.68 -2.22 M-3.5 0.29 C-3.83 -0.4, -4.15 -1.09, -4.68 -2.22 M-4.68 -2.22 C-3.9 -2.41, -3.11 -2.61, -1.85 -2.93 M-4.68 -2.22 C-3.63 -2.48, -2.58 -2.75, -1.85 -2.93 M-1.85 -2.93 C-1.85 -2.93, -1.85 -2.93, -1.85 -2.93 M-1.85 -2.93 C-1.85 -2.93, -1.85 -2.93, -1.85 -2.93 M-1.85 -2.93 C-1.64 -2.51, -1.44 -2.09, -1.02 -1.26 M-1.85 -2.93 C-1.66 -2.55, -1.47 -2.16, -1.02 -1.26 M-1.02 -1.26 C-0.62 -0.76, -0.21 -0.25, 0 0 M-1.02 -1.26 C-0.69 -0.84, -0.35 -0.43, 0 0 M0 0 C0 0, 0 0, 0 0 M0 0 C0 0, 0 0, 0 0 M0 0 C0 0, 0 0, 0 0 M0 0 C0 0, 0 0, 0 0" stroke="#00000000" stroke-width="2" fill="none"></path></g></g><g stroke-linecap="round"><g transform="translate(621.0416679382324 580.25) rotate(0 -5.833333969116211 -1.3343745470046997)" fill-rule="evenodd"><path d="M0 0 L-5.83 -5.83 L-11.67 0 L-7.26 0 L-7.26 0 L-6.99 3.16 L-4.16 2.45 L-4.16 2.45 L-4.35 0 L0 0 L0 0" stroke="none" stroke-width="0" fill="#7fabf7" fill-rule="evenodd"></path><path d="M0 0 C-2 -2, -4 -4, -5.83 -5.83 M0 0 C-1.84 -1.84, -3.68 -3.68, -5.83 -5.83 M-5.83 -5.83 C-7.49 -4.17, -9.15 -2.51, -11.67 0 M-5.83 -5.83 C-7.43 -4.24, -9.03 -2.64, -11.67 0 M-11.67 0 C-10.48 0, -9.29 0, -7.26 0 M-11.67 0 C-10.67 0, -9.67 0, -7.26 0 M-7.26 0 C-7.26 0, -7.26 0, -7.26 0 M-7.26 0 C-7.26 0, -7.26 0, -7.26 0 M-7.26 0 C-7.19 0.86, -7.11 1.72, -6.99 3.16 M-7.26 0 C-7.15 1.26, -7.04 2.52, -6.99 3.16 M-6.99 3.16 C-6.39 3.02, -5.8 2.87, -4.16 2.45 M-6.99 3.16 C-6.39 3.01, -5.79 2.86, -4.16 2.45 M-4.16 2.45 C-4.16 2.45, -4.16 2.45, -4.16 2.45 M-4.16 2.45 C-4.16 2.45, -4.16 2.45, -4.16 2.45 M-4.16 2.45 C-4.2 1.9, -4.24 1.36, -4.35 0 M-4.16 2.45 C-4.21 1.82, -4.25 1.19, -4.35 0 M-4.35 0 C-2.94 0, -1.53 0, 0 0 M-4.35 0 C-3.44 0, -2.53 0, 0 0 M0 0 C0 0, 0 0, 0 0 M0 0 C0 0, 0 0, 0 0 M0 0 C0 0, 0 0, 0 0 M0 0 C0 0, 0 0, 0 0" stroke="#00000000" stroke-width="2" fill="none"></path></g></g><g stroke-linecap="round"><g transform="translate(635.625 580.25) rotate(0 -8.414583206176758 8.750001311302185)" fill-rule="evenodd"><path d="M0 0 L-5.83 -5.83 L-11.67 0 L-7.31 0 L-7.31 0 L-7.43 1.84 L-7.69 3.37 L-8.52 5.68 L-9.68 7.29 L-11.01 8.58 L-13.13 10.84 L-14.77 9.03 L-16.83 11.08 L-16.83 11.08 L-15.2 13.01 L-14.74 14.3 L-14.58 16.04 L-14.58 23.33 L-11.67 23.33 L-11.67 16.04 L-11.67 16.04 L-11.48 14.17 L-10.95 12.82 L-10.13 11.76 L-9.06 10.75 L-7.5 9.25 L-6.03 7.21 L-5.41 5.87 L-4.91 4.25 L-4.56 2.31 L-4.39 0 L0 0 L0 0" stroke="none" stroke-width="0" fill="#7fabf7" fill-rule="evenodd"></path><path d="M0 0 C-1.29 -1.29, -2.59 -2.59, -5.83 -5.83 M0 0 C-1.19 -1.19, -2.38 -2.38, -5.83 -5.83 M-5.83 -5.83 C-7.29 -4.38, -8.75 -2.92, -11.67 0 M-5.83 -5.83 C-7.26 -4.41, -8.68 -2.98, -11.67 0 M-11.67 0 C-10.22 0, -8.78 0, -7.31 0 M-11.67 0 C-10.36 0, -9.04 0, -7.31 0 M-7.31 0 C-7.31 0, -7.31 0, -7.31 0 M-7.31 0 C-7.31 0, -7.31 0, -7.31 0 M-7.31 0 C-7.36 0.73, -7.41 1.47, -7.43 1.84 M-7.31 0 C-7.33 0.38, -7.36 0.77, -7.43 1.84 M-7.43 1.84 C-7.49 2.21, -7.56 2.58, -7.69 3.37 M-7.43 1.84 C-7.51 2.32, -7.59 2.79, -7.69 3.37 M-7.69 3.37 C-7.96 4.12, -8.23 4.87, -8.52 5.68 M-7.69 3.37 C-7.99 4.2, -8.29 5.04, -8.52 5.68 M-8.52 5.68 C-8.8 6.07, -9.08 6.46, -9.68 7.29 M-8.52 5.68 C-8.88 6.17, -9.23 6.67, -9.68 7.29 M-9.68 7.29 C-10.06 7.66, -10.44 8.03, -11.01 8.58 M-9.68 7.29 C-10 7.6, -10.32 7.91, -11.01 8.58 M-11.01 8.58 C-11.71 9.33, -12.42 10.08, -13.13 10.84 M-11.01 8.58 C-11.8 9.42, -12.58 10.26, -13.13 10.84 M-13.13 10.84 C-13.5 10.42, -13.88 10.01, -14.77 9.03 M-13.13 10.84 C-13.59 10.32, -14.06 9.8, -14.77 9.03 M-14.77 9.03 C-15.32 9.57, -15.87 10.12, -16.83 11.08 M-14.77 9.03 C-15.41 9.66, -16.04 10.3, -16.83 11.08 M-16.83 11.08 C-16.83 11.08, -16.83 11.08, -16.83 11.08 M-16.83 11.08 C-16.83 11.08, -16.83 11.08, -16.83 11.08 M-16.83 11.08 C-16.49 11.49, -16.14 11.89, -15.2 13.01 M-16.83 11.08 C-16.47 11.5, -16.12 11.93, -15.2 13.01 M-15.2 13.01 C-15.05 13.43, -14.9 13.84, -14.74 14.3 M-15.2 13.01 C-15.03 13.49, -14.86 13.97, -14.74 14.3 M-14.74 14.3 C-14.7 14.75, -14.66 15.21, -14.58 16.04 M-14.74 14.3 C-14.71 14.65, -14.68 15.01, -14.58 16.04 M-14.58 16.04 C-14.58 18.53, -14.58 21.02, -14.58 23.33 M-14.58 16.04 C-14.58 18.55, -14.58 21.06, -14.58 23.33 M-14.58 23.33 C-13.6 23.33, -12.61 23.33, -11.67 23.33 M-14.58 23.33 C-13.81 23.33, -13.03 23.33, -11.67 23.33 M-11.67 23.33 C-11.67 21.37, -11.67 19.41, -11.67 16.04 M-11.67 23.33 C-11.67 20.84, -11.67 18.35, -11.67 16.04 M-11.67 16.04 C-11.67 16.04, -11.67 16.04, -11.67 16.04 M-11.67 16.04 C-11.67 16.04, -11.67 16.04, -11.67 16.04 M-11.67 16.04 C-11.62 15.62, -11.58 15.2, -11.48 14.17 M-11.67 16.04 C-11.62 15.56, -11.57 15.07, -11.48 14.17 M-11.48 14.17 C-11.29 13.7, -11.11 13.22, -10.95 12.82 M-11.48 14.17 C-11.29 13.69, -11.11 13.21, -10.95 12.82 M-10.95 12.82 C-10.71 12.51, -10.47 12.19, -10.13 11.76 M-10.95 12.82 C-10.67 12.46, -10.39 12.09, -10.13 11.76 M-10.13 11.76 C-9.76 11.41, -9.39 11.06, -9.06 10.75 M-10.13 11.76 C-9.7 11.36, -9.28 10.96, -9.06 10.75 M-9.06 10.75 C-8.68 10.38, -8.3 10.02, -7.5 9.25 M-9.06 10.75 C-8.61 10.32, -8.17 9.89, -7.5 9.25 M-7.5 9.25 C-7.11 8.7, -6.72 8.15, -6.03 7.21 M-7.5 9.25 C-6.99 8.54, -6.48 7.83, -6.03 7.21 M-6.03 7.21 C-5.9 6.93, -5.78 6.65, -5.41 5.87 M-6.03 7.21 C-5.82 6.75, -5.61 6.29, -5.41 5.87 M-5.41 5.87 C-5.28 5.45, -5.15 5.03, -4.91 4.25 M-5.41 5.87 C-5.3 5.5, -5.19 5.14, -4.91 4.25 M-4.91 4.25 C-4.77 3.48, -4.63 2.71, -4.56 2.31 M-4.91 4.25 C-4.84 3.84, -4.76 3.44, -4.56 2.31 M-4.56 2.31 C-4.51 1.68, -4.47 1.05, -4.39 0 M-4.56 2.31 C-4.5 1.53, -4.44 0.75, -4.39 0 M-4.39 0 C-2.68 0, -0.96 0, 0 0 M-4.39 0 C-2.9 0, -1.41 0, 0 0 M0 0 C0 0, 0 0, 0 0 M0 0 C0 0, 0 0, 0 0 M0 0 C0 0, 0 0, 0 0 M0 0 C0 0, 0 0, 0 0" stroke="#00000000" stroke-width="2" fill="none"></path></g></g><g stroke-linecap="round" transform="translate(790 350) rotate(0 200 180)"><path d="M90 0 L320.9 0.35 L340.59 3.16 L357.46 8.79 L371.52 17.23 L382.77 28.48 L387.34 35.16 L394.38 50.63 L398.59 68.91 L399.65 79.1 L399.65 280.9 L396.84 300.59 L391.21 317.46 L382.77 331.52 L371.52 342.77 L364.84 347.34 L349.38 354.38 L340.59 356.84 L320.9 359.65 L90 360 L68.91 358.59 L50.63 354.38 L42.54 351.21 L28.48 342.77 L17.23 331.52 L12.66 324.84 L5.63 309.38 L3.16 300.59 L0.35 280.9 L0 90 L0.35 79.1 L3.16 59.41 L5.63 50.63 L12.66 35.16 L22.5 22.5 L28.48 17.23 L35.16 12.66 L50.63 5.63 L68.91 1.41 L90 0" stroke="none" stroke-width="0" fill="#ccdffc"></path><path d="M90 0 M90 0 C166.4 0, 242.81 0, 310 0 M90 0 C148.11 0, 206.21 0, 310 0 M310 0 C370 0, 400 30, 400 90 M310 0 C370 0, 400 30, 400 90 M400 90 C400 150.7, 400 211.4, 400 270 M400 90 C400 151.25, 400 212.5, 400 270 M400 270 C400 330, 370 360, 310 360 M400 270 C400 330, 370 360, 310 360 M310 360 C263.25 360, 216.51 360, 90 360 M310 360 C222.87 360, 135.74 360, 90 360 M90 360 C30 360, 0 330, 0 270 M90 360 C30 360, 0 330, 0 270 M0 270 C0 207.4, 0 144.8, 0 90 M0 270 C0 230.56, 0 191.12, 0 90 M0 90 C0 30, 30 0, 90 0 M0 90 C0 30, 30 0, 90 0" stroke="#7fabf7" stroke-width="4" fill="none"></path></g><g stroke-linecap="round" transform="translate(830 330) rotate(0 160 30)"><path d="M15 0 L308.52 0.23 L311.56 0.94 L316.25 3.75 L319.06 8.44 L320 15 L319.77 48.52 L319.06 51.56 L316.25 56.25 L311.56 59.06 L305 60 L11.48 59.77 L5.86 57.89 L3.75 56.25 L0.94 51.56 L0 45 L0 15 L0.94 8.44 L3.75 3.75 L8.44 0.94 L15 0" stroke="none" stroke-width="0" fill="#ffffff"></path><path d="M15 0 M15 0 C79 0, 142.99 0, 305 0 M15 0 C126.75 0, 238.5 0, 305 0 M305 0 C315 0, 320 5, 320 15 M305 0 C315 0, 320 5, 320 15 M320 15 C320 26.84, 320 38.67, 320 45 M320 15 C320 21.79, 320 28.57, 320 45 M320 45 C320 55, 315 60, 305 60 M320 45 C320 55, 315 60, 305 60 M305 60 C194.75 60, 84.5 60, 15 60 M305 60 C193.34 60, 81.69 60, 15 60 M15 60 C5 60, 0 55, 0 45 M15 60 C5 60, 0 55, 0 45 M0 45 C0 35.89, 0 26.77, 0 15 M0 45 C0 36.81, 0 28.62, 0 15 M0 15 C0 5, 5 0, 15 0 M0 15 C0 5, 5 0, 15 0" stroke="#7fabf7" stroke-width="1" fill="none"></path></g><g transform="translate(835 348.5) rotate(0 155 11.5)"><text x="155" y="18" font-family="Helvetica, Segoe UI Emoji" font-size="20px" fill="#7fabf7" text-anchor="middle" style="white-space: pre;" direction="ltr">Microservice</text></g><g stroke-linecap="round" transform="translate(810 430) rotate(0 80 30)"><path d="M15 0 L145 0 L151.56 0.94 L156.25 3.75 L157.89 5.86 L159.77 11.48 L160 45 L159.06 51.56 L157.89 54.14 L154.14 57.89 L151.56 59.06 L145 60 L15 60 L8.44 59.06 L3.75 56.25 L2.11 54.14 L0.23 48.52 L0.23 11.48 L2.11 5.86 L3.75 3.75 L8.44 0.94 L15 0" stroke="none" stroke-width="0" fill="#ffffff"></path><path d="M15 0 M15 0 C49.29 0, 83.58 0, 145 0 M15 0 C60.59 0, 106.18 0, 145 0 M145 0 C155 0, 160 5, 160 15 M145 0 C155 0, 160 5, 160 15 M160 15 C160 26.3, 160 37.6, 160 45 M160 15 C160 23.39, 160 31.79, 160 45 M160 45 C160 55, 155 60, 145 60 M160 45 C160 55, 155 60, 145 60 M145 60 C117.6 60, 90.21 60, 15 60 M145 60 C109.41 60, 73.82 60, 15 60 M15 60 C5 60, 0 55, 0 45 M15 60 C5 60, 0 55, 0 45 M0 45 C0 33.59, 0 22.17, 0 15 M0 45 C0 33.31, 0 21.62, 0 15 M0 15 C0 5, 5 0, 15 0 M0 15 C0 5, 5 0, 15 0" stroke="#495057" stroke-width="1" fill="none"></path></g><g transform="translate(815 451) rotate(0 75 9)"><text x="75" y="14" font-family="Helvetica, Segoe UI Emoji" font-size="16px" fill="#495057" text-anchor="middle" style="white-space: pre;" direction="ltr">Service</text></g><g stroke-linecap="round" transform="translate(1010 430) rotate(0 80 30)"><path d="M15 0 L145 0 L151.56 0.94 L156.25 3.75 L157.89 5.86 L159.77 11.48 L160 45 L159.06 51.56 L157.89 54.14 L154.14 57.89 L151.56 59.06 L145 60 L15 60 L8.44 59.06 L3.75 56.25 L2.11 54.14 L0.23 48.52 L0.23 11.48 L2.11 5.86 L3.75 3.75 L8.44 0.94 L15 0" stroke="none" stroke-width="0" fill="#ffffff"></path><path d="M15 0 M15 0 C62.38 0, 109.75 0, 145 0 M15 0 C58.08 0, 101.16 0, 145 0 M145 0 C155 0, 160 5, 160 15 M145 0 C155 0, 160 5, 160 15 M160 15 C160 25.6, 160 36.2, 160 45 M160 15 C160 24.46, 160 33.93, 160 45 M160 45 C160 55, 155 60, 145 60 M160 45 C160 55, 155 60, 145 60 M145 60 C115.08 60, 85.16 60, 15 60 M145 60 C111.45 60, 77.9 60, 15 60 M15 60 C5 60, 0 55, 0 45 M15 60 C5 60, 0 55, 0 45 M0 45 C0 38.41, 0 31.83, 0 15 M0 45 C0 33.96, 0 22.91, 0 15 M0 15 C0 5, 5 0, 15 0 M0 15 C0 5, 5 0, 15 0" stroke="#495057" stroke-width="1" fill="none"></path></g><g transform="translate(1015 451) rotate(0 75 9)"><text x="75" y="14" font-family="Helvetica, Segoe UI Emoji" font-size="16px" fill="#495057" text-anchor="middle" style="white-space: pre;" direction="ltr">Deployment</text></g><g stroke-linecap="round" transform="translate(930 530) rotate(0 60 20)"><path d="M10 0 L110 0 L114.38 0.63 L117.5 2.5 L119.38 5.63 L120 10 L120 30 L119.38 34.38 L117.5 37.5 L114.38 39.38 L110 40 L10 40 L5.63 39.38 L2.5 37.5 L0.62 34.38 L0 30 L0 10 L0.63 5.63 L2.5 2.5 L5.63 0.62 L10 0" stroke="none" stroke-width="0" fill="#ffffff"></path><path d="M10 0 M10 0 C30.31 0, 50.63 0, 110 0 M10 0 C32.58 0, 55.16 0, 110 0 M110 0 C116.67 0, 120 3.33, 120 10 M110 0 C116.67 0, 120 3.33, 120 10 M120 10 C120 16.91, 120 23.82, 120 30 M120 10 C120 16.76, 120 23.53, 120 30 M120 30 C120 36.67, 116.67 40, 110 40 M120 30 C120 36.67, 116.67 40, 110 40 M110 40 C72.31 40, 34.63 40, 10 40 M110 40 C86.77 40, 63.54 40, 10 40 M10 40 C3.33 40, 0 36.67, 0 30 M10 40 C3.33 40, 0 36.67, 0 30 M0 30 C0 22.24, 0 14.48, 0 10 M0 30 C0 23, 0 15.99, 0 10 M0 10 C0 3.33, 3.33 0, 10 0 M0 10 C0 3.33, 3.33 0, 10 0" stroke="#495057" stroke-width="1" fill="none"></path></g><g transform="translate(935 541) rotate(0 55 9)"><text x="55" y="14" font-family="Helvetica, Segoe UI Emoji" font-size="16px" fill="#495057" text-anchor="middle" style="white-space: pre;" direction="ltr">Health Check</text></g><g transform="translate(870 470) rotate(0 20 5.217391304347871)"><text x="0" y="8.434782608695656" font-family="Helvetica, Segoe UI Emoji" font-size="9.275362318840584px" fill="#b5b9bf" text-anchor="start" style="white-space: pre;" direction="ltr">NodePort</text></g><g stroke-linecap="round"><g transform="translate(530 470) rotate(0 130 0)"><path d="M0 0 C55.25 0, 110.5 0, 260 0" stroke="#7fabf7" stroke-width="1.5" fill="none" stroke-dasharray="8 9"></path></g><g transform="translate(530 470) rotate(0 130 0)"><path d="M260 0 L246.41 6.34 L246.41 -6.34 L260 0" stroke="none" stroke-width="0" fill="#7fabf7" fill-rule="evenodd"></path><path d="M260 0 C257.11 1.35, 254.22 2.69, 246.41 6.34 M246.41 6.34 C246.41 3.4, 246.41 0.46, 246.41 -6.34 M246.41 -6.34 C250.93 -4.23, 255.46 -2.11, 260 0 M260 0 C260 0, 260 0, 260 0" stroke="#7fabf7" stroke-width="1.5" fill="none"></path></g></g><g stroke-linecap="round"><g transform="translate(971 469.9396047829837) rotate(0 17.58333333333354 -0.17223475581727143)"><path d="M0 0 C13.1 -0.13, 26.19 -0.26, 35.17 -0.34" stroke="#343a40" stroke-width="1.5" fill="none" stroke-dasharray="8 9"></path></g><g transform="translate(971 469.9396047829837) rotate(0 17.58333333333354 -0.17223475581727143)"><path d="M35.17 -0.34 L21.63 6.13 L21.51 -6.55 L35.17 -0.34" stroke="none" stroke-width="0" fill="#343a40" fill-rule="evenodd"></path><path d="M35.17 -0.34 C30.13 2.07, 25.09 4.48, 21.63 6.13 M21.63 6.13 C21.59 1.19, 21.54 -3.74, 21.51 -6.55 M21.51 -6.55 C25.62 -4.68, 29.73 -2.81, 35.17 -0.34 M35.17 -0.34 C35.17 -0.34, 35.17 -0.34, 35.17 -0.34" stroke="#343a40" stroke-width="1.5" fill="none"></path></g></g><g transform="translate(18.49557522123945 290) rotate(0 30 13.125)"><text x="0" y="20.24999999999999" font-family="Helvetica, Segoe UI Emoji" font-size="22.499999999999993px" fill="#7fabf7" text-anchor="start" style="white-space: pre;" direction="ltr">Users</text></g><g stroke-linecap="round"><g transform="translate(62.39675496531771 255.29498446304115) rotate(0 -0.018065798599110394 -9.033922516139171)" fill-rule="evenodd"><path d="M0 0 L0 0 L3.51 -0.71 L6.37 -2.65 L8.29 -5.52 L9 -9.03 L8.29 -12.55 L6.37 -15.42 L3.51 -17.36 L0 -18.07 L-3.52 -17.36 L-6.39 -15.42 L-8.32 -12.55 L-9.03 -9.03 L-8.32 -5.52 L-6.39 -2.65 L-3.52 -0.71 L0 0 L0 0" stroke="none" stroke-width="0" fill="#7fabf7" fill-rule="evenodd"></path><path d="M0 0 C0 0, 0 0, 0 0 M0 0 C0 0, 0 0, 0 0 M0 0 C0.98 -0.2, 1.95 -0.4, 3.51 -0.71 M0 0 C1.33 -0.27, 2.66 -0.54, 3.51 -0.71 M3.51 -0.71 C4.19 -1.17, 4.87 -1.63, 6.37 -2.65 M3.51 -0.71 C4.48 -1.37, 5.45 -2.02, 6.37 -2.65 M6.37 -2.65 C6.81 -3.31, 7.26 -3.98, 8.29 -5.52 M6.37 -2.65 C6.85 -3.37, 7.34 -4.09, 8.29 -5.52 M8.29 -5.52 C8.53 -6.72, 8.78 -7.92, 9 -9.03 M8.29 -5.52 C8.52 -6.65, 8.75 -7.79, 9 -9.03 M9 -9.03 C8.84 -9.83, 8.68 -10.63, 8.29 -12.55 M9 -9.03 C8.81 -9.97, 8.62 -10.9, 8.29 -12.55 M8.29 -12.55 C7.55 -13.66, 6.81 -14.76, 6.37 -15.42 M8.29 -12.55 C7.56 -13.64, 6.83 -14.73, 6.37 -15.42 M6.37 -15.42 C5.46 -16.04, 4.54 -16.66, 3.51 -17.36 M6.37 -15.42 C5.4 -16.08, 4.43 -16.73, 3.51 -17.36 M3.51 -17.36 C2.78 -17.5, 2.06 -17.65, 0 -18.07 M3.51 -17.36 C2.54 -17.55, 1.57 -17.75, 0 -18.07 M0 -18.07 C-0.92 -17.88, -1.84 -17.7, -3.52 -17.36 M0 -18.07 C-1.29 -17.81, -2.57 -17.55, -3.52 -17.36 M-3.52 -17.36 C-4.09 -16.97, -4.67 -16.58, -6.39 -15.42 M-3.52 -17.36 C-4.4 -16.76, -5.28 -16.17, -6.39 -15.42 M-6.39 -15.42 C-6.79 -14.82, -7.2 -14.22, -8.32 -12.55 M-6.39 -15.42 C-6.99 -14.53, -7.59 -13.64, -8.32 -12.55 M-8.32 -12.55 C-8.47 -11.81, -8.62 -11.08, -9.03 -9.03 M-8.32 -12.55 C-8.6 -11.2, -8.87 -9.85, -9.03 -9.03 M-9.03 -9.03 C-8.88 -8.26, -8.72 -7.48, -8.32 -5.52 M-9.03 -9.03 C-8.81 -7.93, -8.59 -6.84, -8.32 -5.52 M-8.32 -5.52 C-7.88 -4.86, -7.43 -4.2, -6.39 -2.65 M-8.32 -5.52 C-7.65 -4.52, -6.98 -3.53, -6.39 -2.65 M-6.39 -2.65 C-5.37 -1.96, -4.35 -1.28, -3.52 -0.71 M-6.39 -2.65 C-5.28 -1.9, -4.18 -1.16, -3.52 -0.71 M-3.52 -0.71 C-2.43 -0.49, -1.35 -0.27, 0 0 M-3.52 -0.71 C-2.61 -0.53, -1.7 -0.34, 0 0 M0 0 C0 0, 0 0, 0 0 M0 0 C0 0, 0 0, 0 0 M0 0 C0 0, 0 0, 0 0 M0 0 C0 0, 0 0, 0 0" stroke="#7fabf7" stroke-width="1" fill="none"></path></g></g><g stroke-linecap="round"><g transform="translate(35.29498505381338 251.68141829229023) rotate(0 -0.018068161685903306 -10.840709146145116)" fill-rule="evenodd"><path d="M0 0 L0 0 L4.22 -0.85 L7.65 -3.17 L9.96 -6.62 L10.8 -10.84 L9.96 -15.07 L7.65 -18.51 L4.22 -20.83 L0 -21.68 L-4.22 -20.83 L-7.67 -18.51 L-9.99 -15.07 L-10.84 -10.84 L-9.99 -6.62 L-7.67 -3.17 L-4.22 -0.85 L0 0 L0 0" stroke="none" stroke-width="0" fill="#7fabf7" fill-rule="evenodd"></path><path d="M0 0 C0 0, 0 0, 0 0 M0 0 C0 0, 0 0, 0 0 M0 0 C0.96 -0.19, 1.93 -0.39, 4.22 -0.85 M0 0 C1.02 -0.21, 2.04 -0.41, 4.22 -0.85 M4.22 -0.85 C5.52 -1.73, 6.82 -2.61, 7.65 -3.17 M4.22 -0.85 C5.4 -1.65, 6.59 -2.45, 7.65 -3.17 M7.65 -3.17 C8.37 -4.24, 9.08 -5.31, 9.96 -6.62 M7.65 -3.17 C8.33 -4.18, 9 -5.18, 9.96 -6.62 M9.96 -6.62 C10.25 -8.05, 10.53 -9.48, 10.8 -10.84 M9.96 -6.62 C10.13 -7.47, 10.3 -8.32, 10.8 -10.84 M10.8 -10.84 C10.53 -12.19, 10.26 -13.54, 9.96 -15.07 M10.8 -10.84 C10.59 -11.89, 10.38 -12.95, 9.96 -15.07 M9.96 -15.07 C9.42 -15.87, 8.89 -16.67, 7.65 -18.51 M9.96 -15.07 C9.2 -16.2, 8.43 -17.34, 7.65 -18.51 M7.65 -18.51 C6.75 -19.12, 5.85 -19.73, 4.22 -20.83 M7.65 -18.51 C6.86 -19.04, 6.07 -19.58, 4.22 -20.83 M4.22 -20.83 C2.58 -21.16, 0.94 -21.49, 0 -21.68 M4.22 -20.83 C3.01 -21.07, 1.81 -21.32, 0 -21.68 M0 -21.68 C-1.13 -21.45, -2.25 -21.23, -4.22 -20.83 M0 -21.68 C-1.49 -21.38, -2.98 -21.08, -4.22 -20.83 M-4.22 -20.83 C-4.95 -20.34, -5.68 -19.85, -7.67 -18.51 M-4.22 -20.83 C-5.17 -20.2, -6.11 -19.56, -7.67 -18.51 M-7.67 -18.51 C-8.33 -17.53, -8.99 -16.54, -9.99 -15.07 M-7.67 -18.51 C-8.22 -17.69, -8.77 -16.87, -9.99 -15.07 M-9.99 -15.07 C-10.23 -13.89, -10.46 -12.72, -10.84 -10.84 M-9.99 -15.07 C-10.2 -14, -10.42 -12.93, -10.84 -10.84 M-10.84 -10.84 C-10.51 -9.17, -10.17 -7.51, -9.99 -6.62 M-10.84 -10.84 C-10.58 -9.55, -10.32 -8.26, -9.99 -6.62 M-9.99 -6.62 C-9.44 -5.8, -8.89 -4.98, -7.67 -3.17 M-9.99 -6.62 C-9.45 -5.82, -8.91 -5.02, -7.67 -3.17 M-7.67 -3.17 C-6.66 -2.49, -5.65 -1.81, -4.22 -0.85 M-7.67 -3.17 C-6.71 -2.52, -5.74 -1.87, -4.22 -0.85 M-4.22 -0.85 C-2.9 -0.58, -1.58 -0.32, 0 0 M-4.22 -0.85 C-2.65 -0.53, -1.07 -0.21, 0 0 M0 0 C0 0, 0 0, 0 0 M0 0 C0 0, 0 0, 0 0 M0 0 C0 0, 0 0, 0 0 M0 0 C0 0, 0 0, 0 0" stroke="#7fabf7" stroke-width="1" fill="none"></path></g></g><g stroke-linecap="round"><g transform="translate(62.39675496531768 262.52212625689253) rotate(0 0.000004726173607139117 9.033922516139171)" fill-rule="evenodd"><path d="M0 0 L0 0 L-5.9 0.62 L-12.42 2.49 L-17.7 5.59 L-19.29 7.61 L-19.87 9.94 L-19.87 18.07 L19.87 18.07 L19.87 9.94 L19.87 9.94 L19.29 7.61 L17.7 5.59 L12.42 2.49 L5.9 0.62 L0 0 L0 0" stroke="none" stroke-width="0" fill="#7fabf7" fill-rule="evenodd"></path><path d="M0 0 C0 0, 0 0, 0 0 M0 0 C0 0, 0 0, 0 0 M0 0 C-1.53 0.16, -3.05 0.32, -5.9 0.62 M0 0 C-1.48 0.16, -2.95 0.31, -5.9 0.62 M-5.9 0.62 C-7.83 1.18, -9.77 1.73, -12.42 2.49 M-5.9 0.62 C-8.01 1.23, -10.12 1.83, -12.42 2.49 M-12.42 2.49 C-13.54 3.15, -14.67 3.81, -17.7 5.59 M-12.42 2.49 C-14.03 3.44, -15.64 4.38, -17.7 5.59 M-17.7 5.59 C-18.1 6.1, -18.5 6.61, -19.29 7.61 M-17.7 5.59 C-18.14 6.16, -18.59 6.72, -19.29 7.61 M-19.29 7.61 C-19.43 8.15, -19.56 8.69, -19.87 9.94 M-19.29 7.61 C-19.46 8.27, -19.62 8.94, -19.87 9.94 M-19.87 9.94 C-19.87 12.41, -19.87 14.88, -19.87 18.07 M-19.87 9.94 C-19.87 12.43, -19.87 14.93, -19.87 18.07 M-19.87 18.07 C-10.73 18.07, -1.59 18.07, 19.87 18.07 M-19.87 18.07 C-5.74 18.07, 8.4 18.07, 19.87 18.07 M19.87 18.07 C19.87 15.35, 19.87 12.63, 19.87 9.94 M19.87 18.07 C19.87 16.03, 19.87 13.99, 19.87 9.94 M19.87 9.94 C19.87 9.94, 19.87 9.94, 19.87 9.94 M19.87 9.94 C19.87 9.94, 19.87 9.94, 19.87 9.94 M19.87 9.94 C19.68 9.18, 19.5 8.42, 19.29 7.61 M19.87 9.94 C19.69 9.19, 19.5 8.43, 19.29 7.61 M19.29 7.61 C18.65 6.81, 18.02 6, 17.7 5.59 M19.29 7.61 C18.89 7.1, 18.48 6.58, 17.7 5.59 M17.7 5.59 C16.32 4.78, 14.94 3.97, 12.42 2.49 M17.7 5.59 C16.58 4.94, 15.46 4.28, 12.42 2.49 M12.42 2.49 C10.7 2, 8.98 1.51, 5.9 0.62 M12.42 2.49 C10.24 1.87, 8.06 1.24, 5.9 0.62 M5.9 0.62 C4.56 0.48, 3.23 0.34, 0 0 M5.9 0.62 C3.67 0.39, 1.44 0.15, 0 0 M0 0 C0 0, 0 0, 0 0 M0 0 C0 0, 0 0, 0 0 M0 0 C0 0, 0 0, 0 0 M0 0 C0 0, 0 0, 0 0" stroke="#7fabf7" stroke-width="1" fill="none"></path></g></g><g stroke-linecap="round"><g transform="translate(35.294985053813434 258.9085553599666) rotate(0 -8.365411463036963 10.840707964601734)" fill-rule="evenodd"><path d="M0 0 L0 0 L-3.5 0.2 L-7.5 0.79 L-15.8 3.17 L-19.51 4.95 L-22.53 7.12 L-24.55 9.69 L-25.29 12.65 L-25.29 21.68 L0 21.68 L0 13.55 L0 13.55 L0.3 10.87 L1.52 7.66 L4.12 4.26 L8.56 1.01 L4 0.26 L0 0 L0 0" stroke="none" stroke-width="0" fill="#7fabf7" fill-rule="evenodd"></path><path d="M0 0 C0 0, 0 0, 0 0 M0 0 C0 0, 0 0, 0 0 M0 0 C-0.72 0.04, -1.45 0.08, -3.5 0.2 M0 0 C-0.81 0.05, -1.62 0.09, -3.5 0.2 M-3.5 0.2 C-4.79 0.39, -6.08 0.58, -7.5 0.79 M-3.5 0.2 C-4.87 0.4, -6.23 0.6, -7.5 0.79 M-7.5 0.79 C-9.71 1.42, -11.91 2.05, -15.8 3.17 M-7.5 0.79 C-10.17 1.55, -12.83 2.31, -15.8 3.17 M-15.8 3.17 C-17.03 3.76, -18.26 4.34, -19.51 4.95 M-15.8 3.17 C-16.91 3.69, -18.01 4.22, -19.51 4.95 M-19.51 4.95 C-20.44 5.62, -21.37 6.29, -22.53 7.12 M-19.51 4.95 C-20.26 5.48, -21 6.02, -22.53 7.12 M-22.53 7.12 C-23.26 8.05, -23.99 8.97, -24.55 9.69 M-22.53 7.12 C-23.27 8.06, -24.02 9.01, -24.55 9.69 M-24.55 9.69 C-24.71 10.32, -24.87 10.96, -25.29 12.65 M-24.55 9.69 C-24.81 10.7, -25.06 11.7, -25.29 12.65 M-25.29 12.65 C-25.29 14.81, -25.29 16.97, -25.29 21.68 M-25.29 12.65 C-25.29 15.34, -25.29 18.03, -25.29 21.68 M-25.29 21.68 C-19.34 21.68, -13.39 21.68, 0 21.68 M-25.29 21.68 C-18.07 21.68, -10.85 21.68, 0 21.68 M0 21.68 C0 19.11, 0 16.53, 0 13.55 M0 21.68 C0 19.79, 0 17.89, 0 13.55 M0 13.55 C0 13.55, 0 13.55, 0 13.55 M0 13.55 C0 13.55, 0 13.55, 0 13.55 M0 13.55 C0.11 12.57, 0.22 11.58, 0.3 10.87 M0 13.55 C0.07 12.96, 0.13 12.36, 0.3 10.87 M0.3 10.87 C0.66 9.93, 1.02 8.98, 1.52 7.66 M0.3 10.87 C0.57 10.17, 0.83 9.47, 1.52 7.66 M1.52 7.66 C2.27 6.68, 3.02 5.69, 4.12 4.26 M1.52 7.66 C2.33 6.59, 3.15 5.53, 4.12 4.26 M4.12 4.26 C5.02 3.6, 5.92 2.94, 8.56 1.01 M4.12 4.26 C5.14 3.51, 6.16 2.77, 8.56 1.01 M8.56 1.01 C7.63 0.86, 6.7 0.71, 4 0.26 M8.56 1.01 C7.38 0.82, 6.19 0.62, 4 0.26 M4 0.26 C2.53 0.17, 1.06 0.07, 0 0 M4 0.26 C2.64 0.17, 1.27 0.08, 0 0 M0 0 C0 0, 0 0, 0 0 M0 0 C0 0, 0 0, 0 0 M0 0 C0 0, 0 0, 0 0 M0 0 C0 0, 0 0, 0 0" stroke="#7fabf7" stroke-width="1" fill="none"></path></g></g><g transform="translate(910 670) rotate(0 83.33333333333337 10)"><text x="0" y="15" font-family="Helvetica, Segoe UI Emoji" font-size="18.018018018018015px" fill="#000000" text-anchor="start" style="white-space: pre;" direction="ltr">deployed using helm</text></g><g transform="translate(330 610) rotate(0 105.5 9)"><text x="0" y="14" font-family="Helvetica, Segoe UI Emoji" font-size="16px" fill="#ffff" text-anchor="start" style="white-space: pre;" direction="ltr">https://api.cloudservices.com/</text></g><g stroke-linecap="round" transform="translate(330 430) rotate(0 97.5 39)"><path d="M19.5 0 L175.5 0 L184.03 1.22 L190.13 4.88 L192.26 7.62 L194.7 14.93 L195 58.5 L193.78 67.03 L192.26 70.38 L187.38 75.26 L184.03 76.78 L175.5 78 L19.5 78 L10.97 76.78 L4.88 73.13 L2.74 70.38 L0.3 63.07 L0.3 14.93 L1.22 10.97 L4.88 4.88 L10.97 1.22 L19.5 0" stroke="none" stroke-width="0" fill="#FFF"></path><path d="M19.5 0 M19.5 0 C71.83 0, 124.17 0, 175.5 0 M19.5 0 C72.41 0, 125.31 0, 175.5 0 M175.5 0 C188.5 0, 195 6.5, 195 19.5 M175.5 0 C188.5 0, 195 6.5, 195 19.5 M195 19.5 C195 29.28, 195 39.07, 195 58.5 M195 19.5 C195 31.73, 195 43.95, 195 58.5 M195 58.5 C195 71.5, 188.5 78, 175.5 78 M195 58.5 C195 71.5, 188.5 78, 175.5 78 M175.5 78 C114.01 78, 52.52 78, 19.5 78 M175.5 78 C131.08 78, 86.67 78, 19.5 78 M19.5 78 C6.5 78, 0 71.5, 0 58.5 M19.5 78 C6.5 78, 0 71.5, 0 58.5 M0 58.5 C0 44.96, 0 31.41, 0 19.5 M0 58.5 C0 49.06, 0 39.62, 0 19.5 M0 19.5 C0 6.5, 6.5 0, 19.5 0 M0 19.5 C0 6.5, 6.5 0, 19.5 0" stroke="#4285f4" stroke-width="2" fill="none"></path></g><g transform="translate(390 445) rotate(0 30 8)"><text x="0" y="12" font-family="Helvetica, Segoe UI Emoji" font-size="12px" fill="#B5B9BF" text-anchor="start" style="white-space: pre;" direction="ltr">&lt;Use Case&gt;</text></g><g transform="translate(390 461) rotate(0 60 8)"><text x="0" y="12" font-family="Helvetica, Segoe UI Emoji" font-size="12px" fill="#000000" text-anchor="start" style="white-space: pre;" direction="ltr">Cloud Load Balancing</text></g><g transform="translate(390 477) rotate(0 51 8)"><text x="0" y="12" font-family="Helvetica, Segoe UI Emoji" font-size="12px" fill="#B5B9BF" text-anchor="start" style="white-space: pre;" direction="ltr">&lt;Additional Info&gt;</text></g><g stroke-linecap="round"><g transform="translate(363.78333473205566 467.29242420196533) rotate(0 -1.495455265045166 -2.9909090995788574)" fill-rule="evenodd"><path d="M0 0 L-2.99 0 L-2.99 -5.98 L0 -5.98 L0 0" stroke="none" stroke-width="0" fill="#4285f4" fill-rule="evenodd"></path><path d="M0 0 C-0.86 0, -1.73 0, -2.99 0 M0 0 C-0.99 0, -1.98 0, -2.99 0 M-2.99 0 C-2.99 -1.38, -2.99 -2.77, -2.99 -5.98 M-2.99 0 C-2.99 -1.6, -2.99 -3.21, -2.99 -5.98 M-2.99 -5.98 C-2.21 -5.98, -1.42 -5.98, 0 -5.98 M-2.99 -5.98 C-2.05 -5.98, -1.12 -5.98, 0 -5.98 M0 -5.98 C0 -3.79, 0 -1.6, 0 0 M0 -5.98 C0 -4.27, 0 -2.56, 0 0 M0 0 C0 0, 0 0, 0 0 M0 0 C0 0, 0 0, 0 0" stroke="#00000000" stroke-width="1" fill="none"></path></g></g><g stroke-linecap="round"><g transform="translate(350.3242425918579 467.29242420196533) rotate(0 11.963635921478271 3.7386364936828613)" fill-rule="evenodd"><path d="M0 0 L0 7.48 L2.99 7.48 L2.99 2.99 L10.47 2.99 L10.47 7.48 L13.46 7.48 L13.46 2.99 L20.94 2.99 L20.94 7.48 L23.93 7.48 L23.93 0 L0 0" stroke="none" stroke-width="0" fill="#669df6" fill-rule="evenodd"></path><path d="M0 0 C0 2.72, 0 5.43, 0 7.48 M0 0 C0 2.33, 0 4.66, 0 7.48 M0 7.48 C1.1 7.48, 2.2 7.48, 2.99 7.48 M0 7.48 C0.69 7.48, 1.37 7.48, 2.99 7.48 M2.99 7.48 C2.99 5.7, 2.99 3.92, 2.99 2.99 M2.99 7.48 C2.99 5.82, 2.99 4.16, 2.99 2.99 M2.99 2.99 C5.72 2.99, 8.45 2.99, 10.47 2.99 M2.99 2.99 C4.91 2.99, 6.84 2.99, 10.47 2.99 M10.47 2.99 C10.47 4.15, 10.47 5.31, 10.47 7.48 M10.47 2.99 C10.47 4.42, 10.47 5.85, 10.47 7.48 M10.47 7.48 C11.19 7.48, 11.9 7.48, 13.46 7.48 M10.47 7.48 C11.29 7.48, 12.12 7.48, 13.46 7.48 M13.46 7.48 C13.46 5.88, 13.46 4.29, 13.46 2.99 M13.46 7.48 C13.46 5.97, 13.46 4.46, 13.46 2.99 M13.46 2.99 C15.27 2.99, 17.07 2.99, 20.94 2.99 M13.46 2.99 C16.4 2.99, 19.33 2.99, 20.94 2.99 M20.94 2.99 C20.94 4.03, 20.94 5.07, 20.94 7.48 M20.94 2.99 C20.94 3.94, 20.94 4.89, 20.94 7.48 M20.94 7.48 C21.72 7.48, 22.5 7.48, 23.93 7.48 M20.94 7.48 C21.62 7.48, 22.3 7.48, 23.93 7.48 M23.93 7.48 C23.93 4.67, 23.93 1.87, 23.93 0 M23.93 7.48 C23.93 4.94, 23.93 2.39, 23.93 0 M23.93 0 C18.39 0, 12.85 0, 0 0 M23.93 0 C16.63 0, 9.32 0, 0 0 M0 0 C0 0, 0 0, 0 0 M0 0 C0 0, 0 0, 0 0" stroke="#00000000" stroke-width="1" fill="none"></path></g></g><g stroke-linecap="round"><g transform="translate(353.3151521682739 453.83333349227905) rotate(0 8.972727298736572 3.7386362552642822)" fill-rule="evenodd"><path d="M0 0 L17.95 0 L17.95 7.48 L0 7.48 L0 0" stroke="none" stroke-width="0" fill="#aecbfa" fill-rule="evenodd"></path><path d="M0 0 C5.42 0, 10.85 0, 17.95 0 M0 0 C4.13 0, 8.26 0, 17.95 0 M17.95 0 C17.95 2.1, 17.95 4.2, 17.95 7.48 M17.95 0 C17.95 1.74, 17.95 3.48, 17.95 7.48 M17.95 7.48 C13.81 7.48, 9.67 7.48, 0 7.48 M17.95 7.48 C13.22 7.48, 8.5 7.48, 0 7.48 M0 7.48 C0 4.49, 0 1.51, 0 0 M0 7.48 C0 5.14, 0 2.8, 0 0 M0 0 C0 0, 0 0, 0 0 M0 0 C0 0, 0 0, 0 0" stroke="#00000000" stroke-width="1" fill="none"></path></g></g><g stroke-linecap="round"><g transform="translate(362.28787994384766 453.83333349227905) rotate(0 4.486363410949707 3.7386362552642822)" fill-rule="evenodd"><path d="M0 0 L8.97 0 L8.97 7.48 L0 7.48 L0 0" stroke="none" stroke-width="0" fill="#669df6" fill-rule="evenodd"></path><path d="M0 0 C3.59 0, 7.17 0, 8.97 0 M0 0 C3.45 0, 6.9 0, 8.97 0 M8.97 0 C8.97 2.01, 8.97 4.02, 8.97 7.48 M8.97 0 C8.97 1.74, 8.97 3.49, 8.97 7.48 M8.97 7.48 C5.93 7.48, 2.89 7.48, 0 7.48 M8.97 7.48 C6.64 7.48, 4.3 7.48, 0 7.48 M0 7.48 C0 5.13, 0 2.79, 0 0 M0 7.48 C0 5.09, 0 2.7, 0 0 M0 0 C0 0, 0 0, 0 0 M0 0 C0 0, 0 0, 0 0" stroke="#00000000" stroke-width="1" fill="none"></path></g></g><g stroke-linecap="round"><g transform="translate(368.26969718933105 474.76969718933105) rotate(0 4.486363410949707 4.486363410949707)" fill-rule="evenodd"><path d="M0 0 L8.97 0 L8.97 8.97 L0 8.97 L0 0" stroke="none" stroke-width="0" fill="#aecbfa" fill-rule="evenodd"></path><path d="M0 0 C2.66 0, 5.32 0, 8.97 0 M0 0 C2.18 0, 4.37 0, 8.97 0 M8.97 0 C8.97 2.19, 8.97 4.38, 8.97 8.97 M8.97 0 C8.97 3.13, 8.97 6.27, 8.97 8.97 M8.97 8.97 C6.17 8.97, 3.37 8.97, 0 8.97 M8.97 8.97 C6.82 8.97, 4.66 8.97, 0 8.97 M0 8.97 C0 5.78, 0 2.58, 0 0 M0 8.97 C0 6.88, 0 4.78, 0 0 M0 0 C0 0, 0 0, 0 0 M0 0 C0 0, 0 0, 0 0" stroke="#00000000" stroke-width="1" fill="none"></path></g></g><g stroke-linecap="round"><g transform="translate(347.33333349227905 474.76969718933105) rotate(0 4.486363649368286 4.486363410949707)" fill-rule="evenodd"><path d="M0 0 L8.97 0 L8.97 8.97 L0 8.97 L0 0" stroke="none" stroke-width="0" fill="#aecbfa" fill-rule="evenodd"></path><path d="M0 0 C3.5 0, 7 0, 8.97 0 M0 0 C1.84 0, 3.69 0, 8.97 0 M8.97 0 C8.97 2.26, 8.97 4.53, 8.97 8.97 M8.97 0 C8.97 2.63, 8.97 5.26, 8.97 8.97 M8.97 8.97 C5.54 8.97, 2.1 8.97, 0 8.97 M8.97 8.97 C5.64 8.97, 2.31 8.97, 0 8.97 M0 8.97 C0 6.91, 0 4.85, 0 0 M0 8.97 C0 5.7, 0 2.44, 0 0 M0 0 C0 0, 0 0, 0 0 M0 0 C0 0, 0 0, 0 0" stroke="#00000000" stroke-width="1" fill="none"></path></g></g><g stroke-linecap="round"><g transform="translate(351.8196973800659 474.76969718933105) rotate(0 2.2431817054748535 4.486363410949707)" fill-rule="evenodd"><path d="M0 0 L4.49 0 L4.49 8.97 L0 8.97 L0 0" stroke="none" stroke-width="0" fill="#669df6" fill-rule="evenodd"></path><path d="M0 0 C1.03 0, 2.05 0, 4.49 0 M0 0 C0.96 0, 1.93 0, 4.49 0 M4.49 0 C4.49 2.74, 4.49 5.49, 4.49 8.97 M4.49 0 C4.49 3.1, 4.49 6.19, 4.49 8.97 M4.49 8.97 C2.91 8.97, 1.33 8.97, 0 8.97 M4.49 8.97 C3.05 8.97, 1.61 8.97, 0 8.97 M0 8.97 C0 5.61, 0 2.25, 0 0 M0 8.97 C0 5.9, 0 2.83, 0 0 M0 0 C0 0, 0 0, 0 0 M0 0 C0 0, 0 0, 0 0" stroke="#00000000" stroke-width="1" fill="none"></path></g></g><g stroke-linecap="round"><g transform="translate(357.80151557922363 474.76969718933105) rotate(0 4.486364364624023 4.486363410949707)" fill-rule="evenodd"><path d="M0 0 L8.97 0 L8.97 8.97 L0 8.97 L0 0" stroke="none" stroke-width="0" fill="#aecbfa" fill-rule="evenodd"></path><path d="M0 0 C1.97 0, 3.94 0, 8.97 0 M0 0 C2.78 0, 5.57 0, 8.97 0 M8.97 0 C8.97 2.27, 8.97 4.53, 8.97 8.97 M8.97 0 C8.97 3.01, 8.97 6.02, 8.97 8.97 M8.97 8.97 C5.55 8.97, 2.12 8.97, 0 8.97 M8.97 8.97 C6.72 8.97, 4.47 8.97, 0 8.97 M0 8.97 C0 5.78, 0 2.58, 0 0 M0 8.97 C0 5.44, 0 1.9, 0 0 M0 0 C0 0, 0 0, 0 0 M0 0 C0 0, 0 0, 0 0" stroke="#00000000" stroke-width="1" fill="none"></path></g></g><g stroke-linecap="round"><g transform="translate(362.28787994384766 474.76969718933105) rotate(0 2.2431821823120117 4.486363410949707)" fill-rule="evenodd"><path d="M0 0 L4.49 0 L4.49 8.97 L0 8.97 L0 0" stroke="none" stroke-width="0" fill="#669df6" fill-rule="evenodd"></path><path d="M0 0 C0.97 0, 1.94 0, 4.49 0 M0 0 C1.61 0, 3.21 0, 4.49 0 M4.49 0 C4.49 2.74, 4.49 5.48, 4.49 8.97 M4.49 0 C4.49 2.88, 4.49 5.75, 4.49 8.97 M4.49 8.97 C2.95 8.97, 1.42 8.97, 0 8.97 M4.49 8.97 C2.86 8.97, 1.24 8.97, 0 8.97 M0 8.97 C0 6.91, 0 4.84, 0 0 M0 8.97 C0 6.1, 0 3.22, 0 0 M0 0 C0 0, 0 0, 0 0 M0 0 C0 0, 0 0, 0 0" stroke="#00000000" stroke-width="1" fill="none"></path></g></g><g stroke-linecap="round"><g transform="translate(372.7560634613037 474.76969718933105) rotate(0 2.243180274963379 4.486363410949707)" fill-rule="evenodd"><path d="M0 0 L4.49 0 L4.49 8.97 L0 8.97 L0 0" stroke="none" stroke-width="0" fill="#669df6" fill-rule="evenodd"></path><path d="M0 0 C1.12 0, 2.23 0, 4.49 0 M0 0 C1.26 0, 2.53 0, 4.49 0 M4.49 0 C4.49 2.57, 4.49 5.13, 4.49 8.97 M4.49 0 C4.49 2.05, 4.49 4.1, 4.49 8.97 M4.49 8.97 C3.25 8.97, 2.01 8.97, 0 8.97 M4.49 8.97 C3.22 8.97, 1.95 8.97, 0 8.97 M0 8.97 C0 6.95, 0 4.92, 0 0 M0 8.97 C0 5.93, 0 2.88, 0 0 M0 0 C0 0, 0 0, 0 0 M0 0 C0 0, 0 0, 0 0" stroke="#00000000" stroke-width="1" fill="none"></path></g></g><g stroke-linecap="round" transform="translate(330 710) rotate(0 88.5 39)"><path d="M19.5 0 L157.5 0 L166.03 1.22 L172.13 4.88 L174.26 7.62 L176.7 14.93 L177 58.5 L175.78 67.03 L174.26 70.38 L169.38 75.26 L166.03 76.78 L157.5 78 L19.5 78 L10.97 76.78 L4.88 73.13 L2.74 70.38 L0.3 63.07 L0.3 14.93 L1.22 10.97 L4.88 4.88 L10.97 1.22 L19.5 0" stroke="none" stroke-width="0" fill="#FFF"></path><path d="M19.5 0 M19.5 0 C70.52 0, 121.54 0, 157.5 0 M19.5 0 C69.41 0, 119.31 0, 157.5 0 M157.5 0 C170.5 0, 177 6.5, 177 19.5 M157.5 0 C170.5 0, 177 6.5, 177 19.5 M177 19.5 C177 29.53, 177 39.55, 177 58.5 M177 19.5 C177 32.01, 177 44.51, 177 58.5 M177 58.5 C177 71.5, 170.5 78, 157.5 78 M177 58.5 C177 71.5, 170.5 78, 157.5 78 M157.5 78 C113.53 78, 69.57 78, 19.5 78 M157.5 78 C105.56 78, 53.62 78, 19.5 78 M19.5 78 C6.5 78, 0 71.5, 0 58.5 M19.5 78 C6.5 78, 0 71.5, 0 58.5 M0 58.5 C0 47.76, 0 37.02, 0 19.5 M0 58.5 C0 44.7, 0 30.9, 0 19.5 M0 19.5 C0 6.5, 6.5 0, 19.5 0 M0 19.5 C0 6.5, 6.5 0, 19.5 0" stroke="#4285f4" stroke-width="2" fill="none"></path></g><g transform="translate(390 725) rotate(0 40 7)"><text x="0" y="11" font-family="Helvetica, Segoe UI Emoji" font-size="12px" fill="#B5B9BF" text-anchor="start" style="white-space: pre;" direction="ltr">host for cluster</text></g><g transform="translate(390 741) rotate(0 27 8)"><text x="0" y="12" font-family="Helvetica, Segoe UI Emoji" font-size="12px" fill="#000000" text-anchor="start" style="white-space: pre;" direction="ltr">Cloud DNS</text></g><g stroke-linecap="round"><g transform="translate(364.09635162353516 758.0592956542969) rotate(0 -1.5664196014404297 -7.822122097015381)" fill-rule="evenodd"><path d="M0 0 L-3.13 0 L-3.13 -15.64 L0 -15.64 L0 0" stroke="none" stroke-width="0" fill="#4285f4" fill-rule="evenodd"></path><path d="M0 0 C-0.64 0, -1.29 0, -3.13 0 M0 0 C-0.79 0, -1.58 0, -3.13 0 M-3.13 0 C-3.13 -4.58, -3.13 -9.16, -3.13 -15.64 M-3.13 0 C-3.13 -5.99, -3.13 -11.98, -3.13 -15.64 M-3.13 -15.64 C-1.97 -15.64, -0.81 -15.64, 0 -15.64 M-3.13 -15.64 C-2.41 -15.64, -1.69 -15.64, 0 -15.64 M0 -15.64 C0 -9.95, 0 -4.25, 0 0 M0 -15.64 C0 -10.16, 0 -4.68, 0 0 M0 0 C0 0, 0 0, 0 0 M0 0 C0 0, 0 0, 0 0" stroke="#00000000" stroke-width="1" fill="none"></path></g></g><g stroke-linecap="round"><g transform="translate(346.87571263313293 762.7485771179199) rotate(0 15.644241690635681 -1.566420555114746)" fill-rule="evenodd"><path d="M0 0 L31.29 0 L31.29 -3.13 L0 -3.13 L0 0" stroke="none" stroke-width="0" fill="#669df6" fill-rule="evenodd"></path><path d="M0 0 C6.72 0, 13.44 0, 31.29 0 M0 0 C9.57 0, 19.14 0, 31.29 0 M31.29 0 C31.29 -1.08, 31.29 -2.16, 31.29 -3.13 M31.29 0 C31.29 -1.1, 31.29 -2.2, 31.29 -3.13 M31.29 -3.13 C21.24 -3.13, 11.2 -3.13, 0 -3.13 M31.29 -3.13 C19.57 -3.13, 7.85 -3.13, 0 -3.13 M0 -3.13 C0 -2.06, 0 -0.99, 0 0 M0 -3.13 C0 -2.07, 0 -1, 0 0 M0 0 C0 0, 0 0, 0 0 M0 0 C0 0, 0 0, 0 0" stroke="#00000000" stroke-width="1" fill="none"></path></g></g><g stroke-linecap="round"><g transform="translate(359.4070692062378 764.3050155639648) rotate(0 3.1228623390197754 -3.1228599548339844)" fill-rule="evenodd"><path d="M0 0 L6.25 0 L6.25 -6.25 L0 -6.25 L0 0" stroke="none" stroke-width="0" fill="#aecbfa" fill-rule="evenodd"></path><path d="M0 0 C1.94 0, 3.88 0, 6.25 0 M0 0 C1.58 0, 3.16 0, 6.25 0 M6.25 0 C6.25 -2.1, 6.25 -4.19, 6.25 -6.25 M6.25 0 C6.25 -2.38, 6.25 -4.77, 6.25 -6.25 M6.25 -6.25 C4.68 -6.25, 3.11 -6.25, 0 -6.25 M6.25 -6.25 C4.02 -6.25, 1.8 -6.25, 0 -6.25 M0 -6.25 C0 -3.78, 0 -1.32, 0 0 M0 -6.25 C0 -4.04, 0 -1.84, 0 0 M0 0 C0 0, 0 0, 0 0 M0 0 C0 0, 0 0, 0 0" stroke="#00000000" stroke-width="1" fill="none"></path></g></g><g stroke-linecap="round"><g transform="translate(346.87571263313293 733.0364880561829) rotate(0 15.644241690635681 4.689281702041626)" fill-rule="evenodd"><path d="M0 0 L31.29 0 L31.29 9.38 L0 9.38 L0 0" stroke="none" stroke-width="0" fill="#aecbfa" fill-rule="evenodd"></path><path d="M0 0 C11.21 0, 22.42 0, 31.29 0 M0 0 C9.55 0, 19.1 0, 31.29 0 M31.29 0 C31.29 3.01, 31.29 6.01, 31.29 9.38 M31.29 0 C31.29 3.21, 31.29 6.42, 31.29 9.38 M31.29 9.38 C19.97 9.38, 8.66 9.38, 0 9.38 M31.29 9.38 C24.08 9.38, 16.87 9.38, 0 9.38 M0 9.38 C0 6.37, 0 3.36, 0 0 M0 9.38 C0 7.39, 0 5.4, 0 0 M0 0 C0 0, 0 0, 0 0 M0 0 C0 0, 0 0, 0 0" stroke="#00000000" stroke-width="1" fill="none"></path></g></g><g stroke-linecap="round"><g transform="translate(362.5199565887451 733.0364880561829) rotate(0 7.82211971282959 4.689281702041626)" fill-rule="evenodd"><path d="M0 0 L15.64 0 L15.64 9.38 L0 9.38 L0 0" stroke="none" stroke-width="0" fill="#669df6" fill-rule="evenodd"></path><path d="M0 0 C4.4 0, 8.81 0, 15.64 0 M0 0 C4.48 0, 8.95 0, 15.64 0 M15.64 0 C15.64 2.14, 15.64 4.29, 15.64 9.38 M15.64 0 C15.64 2.59, 15.64 5.18, 15.64 9.38 M15.64 9.38 C11.22 9.38, 6.8 9.38, 0 9.38 M15.64 9.38 C12.11 9.38, 8.58 9.38, 0 9.38 M0 9.38 C0 6.2, 0 3.01, 0 0 M0 9.38 C0 6.67, 0 3.97, 0 0 M0 0 C0 0, 0 0, 0 0 M0 0 C0 0, 0 0, 0 0" stroke="#00000000" stroke-width="1" fill="none"></path></g></g><g stroke-linecap="round"><g transform="translate(350.0085520744324 736.1493730545044) rotate(0 1.5664198398590088 1.5664196014404297)" fill-rule="evenodd"><path d="M0 0 L3.13 0 L3.13 3.13 L0 3.13 L0 0" stroke="none" stroke-width="0" fill="#fff" fill-rule="evenodd"></path><path d="M0 0 C0.86 0, 1.71 0, 3.13 0 M0 0 C0.68 0, 1.36 0, 3.13 0 M3.13 0 C3.13 1.16, 3.13 2.31, 3.13 3.13 M3.13 0 C3.13 0.95, 3.13 1.91, 3.13 3.13 M3.13 3.13 C2.45 3.13, 1.77 3.13, 0 3.13 M3.13 3.13 C2.43 3.13, 1.73 3.13, 0 3.13 M0 3.13 C0 2.33, 0 1.53, 0 0 M0 3.13 C0 2.39, 0 1.65, 0 0 M0 0 C0 0, 0 0, 0 0 M0 0 C0 0, 0 0, 0 0" stroke="#00000000" stroke-width="1" fill="none"></path></g></g><g stroke-linecap="round"><g transform="translate(346.87571263313293 745.5478916168213) rotate(0 15.644241690635681 4.689281463623047)" fill-rule="evenodd"><path d="M0 0 L31.29 0 L31.29 9.38 L0 9.38 L0 0" stroke="none" stroke-width="0" fill="#aecbfa" fill-rule="evenodd"></path><path d="M0 0 C7.24 0, 14.47 0, 31.29 0 M0 0 C8.39 0, 16.78 0, 31.29 0 M31.29 0 C31.29 2.46, 31.29 4.92, 31.29 9.38 M31.29 0 C31.29 2.94, 31.29 5.87, 31.29 9.38 M31.29 9.38 C19.83 9.38, 8.37 9.38, 0 9.38 M31.29 9.38 C22.34 9.38, 13.4 9.38, 0 9.38 M0 9.38 C0 6.19, 0 2.99, 0 0 M0 9.38 C0 6.82, 0 4.26, 0 0 M0 0 C0 0, 0 0, 0 0 M0 0 C0 0, 0 0, 0 0" stroke="#00000000" stroke-width="1" fill="none"></path></g></g><g stroke-linecap="round"><g transform="translate(362.5199565887451 745.5478916168213) rotate(0 7.82211971282959 4.689281463623047)" fill-rule="evenodd"><path d="M0 0 L15.64 0 L15.64 9.38 L0 9.38 L0 0" stroke="none" stroke-width="0" fill="#669df6" fill-rule="evenodd"></path><path d="M0 0 C5.74 0, 11.49 0, 15.64 0 M0 0 C3.6 0, 7.19 0, 15.64 0 M15.64 0 C15.64 3.72, 15.64 7.44, 15.64 9.38 M15.64 0 C15.64 3.47, 15.64 6.93, 15.64 9.38 M15.64 9.38 C9.93 9.38, 4.22 9.38, 0 9.38 M15.64 9.38 C11.62 9.38, 7.6 9.38, 0 9.38 M0 9.38 C0 6.95, 0 4.53, 0 0 M0 9.38 C0 6.39, 0 3.4, 0 0 M0 0 C0 0, 0 0, 0 0 M0 0 C0 0, 0 0, 0 0" stroke="#00000000" stroke-width="1" fill="none"></path></g></g><g stroke-linecap="round"><g transform="translate(350.0085520744324 748.6807308197021) rotate(0 1.5664198398590088 1.5664196014404297)" fill-rule="evenodd"><path d="M0 0 L3.13 0 L3.13 3.13 L0 3.13 L0 0" stroke="none" stroke-width="0" fill="#fff" fill-rule="evenodd"></path><path d="M0 0 C0.88 0, 1.76 0, 3.13 0 M0 0 C0.73 0, 1.46 0, 3.13 0 M3.13 0 C3.13 0.72, 3.13 1.44, 3.13 3.13 M3.13 0 C3.13 0.82, 3.13 1.65, 3.13 3.13 M3.13 3.13 C1.88 3.13, 0.63 3.13, 0 3.13 M3.13 3.13 C2.15 3.13, 1.17 3.13, 0 3.13 M0 3.13 C0 2.41, 0 1.7, 0 0 M0 3.13 C0 2.01, 0 0.9, 0 0 M0 0 C0 0, 0 0, 0 0 M0 0 C0 0, 0 0, 0 0" stroke="#00000000" stroke-width="1" fill="none"></path></g></g><g stroke-linecap="round" transform="translate(1050 10) rotate(0 88.5 39)"><path d="M19.5 0 L157.5 0 L166.03 1.22 L172.13 4.88 L174.26 7.62 L176.7 14.93 L177 58.5 L175.78 67.03 L174.26 70.38 L169.38 75.26 L166.03 76.78 L157.5 78 L19.5 78 L10.97 76.78 L4.88 73.13 L2.74 70.38 L0.3 63.07 L0.3 14.93 L1.22 10.97 L4.88 4.88 L10.97 1.22 L19.5 0" stroke="none" stroke-width="0" fill="#FFF"></path><path d="M19.5 0 M19.5 0 C54.51 0, 89.51 0, 157.5 0 M19.5 0 C70.05 0, 120.6 0, 157.5 0 M157.5 0 C170.5 0, 177 6.5, 177 19.5 M157.5 0 C170.5 0, 177 6.5, 177 19.5 M177 19.5 C177 27.53, 177 35.56, 177 58.5 M177 19.5 C177 32.22, 177 44.94, 177 58.5 M177 58.5 C177 71.5, 170.5 78, 157.5 78 M177 58.5 C177 71.5, 170.5 78, 157.5 78 M157.5 78 C109.39 78, 61.28 78, 19.5 78 M157.5 78 C126.73 78, 95.96 78, 19.5 78 M19.5 78 C6.5 78, 0 71.5, 0 58.5 M19.5 78 C6.5 78, 0 71.5, 0 58.5 M0 58.5 C0 48.64, 0 38.78, 0 19.5 M0 58.5 C0 43.25, 0 27.99, 0 19.5 M0 19.5 C0 6.5, 6.5 0, 19.5 0 M0 19.5 C0 6.5, 6.5 0, 19.5 0" stroke="#4285f4" stroke-width="2" fill="none"></path></g><g transform="translate(1110 25) rotate(0 44 7)"><text x="0" y="11" font-family="Helvetica, Segoe UI Emoji" font-size="12px" fill="#B5B9BF" text-anchor="start" style="white-space: pre;" direction="ltr">remote-backend</text></g><g transform="translate(1110 41) rotate(0 39 8)"><text x="0" y="12" font-family="Helvetica, Segoe UI Emoji" font-size="12px" fill="#000000" text-anchor="start" style="white-space: pre;" direction="ltr">Cloud Storage</text></g><g transform="translate(1110 70) rotate(0 39.5 7)"><text x="0" y="11" font-family="Helvetica, Segoe UI Emoji" font-size="12px" fill="#B5B9BF" text-anchor="start" style="white-space: pre;" direction="ltr">terraform state</text></g><g stroke-linecap="round" transform="translate(1067.9166667461395 37.33333349227905) rotate(0 14.583333969116211 5.1041669845581055)"><path d="M0 0 L29.17 0 L29.17 10.21 L0 10.21" stroke="none" stroke-width="0" fill="#aecbfa"></path><path d="M0 0 C6.03 0, 12.06 0, 29.17 0 M0 0 C7.81 0, 15.62 0, 29.17 0 M29.17 0 C29.17 3.82, 29.17 7.65, 29.17 10.21 M29.17 0 C29.17 2.46, 29.17 4.92, 29.17 10.21 M29.17 10.21 C23.06 10.21, 16.96 10.21, 0 10.21 M29.17 10.21 C19.18 10.21, 9.2 10.21, 0 10.21 M0 10.21 C0 7.99, 0 5.78, 0 0 M0 10.21 C0 6.84, 0 3.47, 0 0" stroke="transparent" stroke-width="1" fill="none"></path></g><g stroke-linecap="round" transform="translate(1094.1666679382324 37.33333349227905) rotate(0 1.4583333730697632 5.1041669845581055)"><path d="M0 0 L2.92 0 L2.92 10.21 L0 10.21" stroke="none" stroke-width="0" fill="#669df6"></path><path d="M0 0 C1.01 0, 2.03 0, 2.92 0 M0 0 C0.93 0, 1.86 0, 2.92 0 M2.92 0 C2.92 2.79, 2.92 5.58, 2.92 10.21 M2.92 0 C2.92 2.68, 2.92 5.37, 2.92 10.21 M2.92 10.21 C1.95 10.21, 0.97 10.21, 0 10.21 M2.92 10.21 C1.79 10.21, 0.67 10.21, 0 10.21 M0 10.21 C0 7.57, 0 4.92, 0 0 M0 10.21 C0 6.43, 0 2.65, 0 0" stroke="transparent" stroke-width="1" fill="none"></path></g><g stroke-linecap="round"><g transform="translate(1097.0833358764648 37.33333349227905) rotate(0 -1.458333969116211 5.104167222976685)" fill-rule="evenodd"><path d="M0 0 L-2.92 0 L-2.92 10.21 L0 0 L0 0" stroke="none" stroke-width="0" fill="#4285f4" fill-rule="evenodd"></path><path d="M0 0 C-0.86 0, -1.73 0, -2.92 0 M0 0 C-0.67 0, -1.34 0, -2.92 0 M-2.92 0 C-2.92 3.42, -2.92 6.83, -2.92 10.21 M-2.92 0 C-2.92 2.76, -2.92 5.52, -2.92 10.21 M-2.92 10.21 C-1.77 6.2, -0.63 2.2, 0 0 M-2.92 10.21 C-2.06 7.2, -1.2 4.19, 0 0 M0 0 C0 0, 0 0, 0 0 M0 0 C0 0, 0 0, 0 0 M0 0 C0 0, 0 0, 0 0 M0 0 C0 0, 0 0, 0 0" stroke="#00000000" stroke-width="1" fill="none"></path></g></g><g stroke-linecap="round" transform="translate(1067.9166667461395 37.33333349227905) rotate(0 1.4583333730697632 5.1041669845581055)"><path d="M0 0 L2.92 0 L2.92 10.21 L0 10.21" stroke="none" stroke-width="0" fill="#669df6"></path><path d="M0 0 C0.65 0, 1.3 0, 2.92 0 M0 0 C1.11 0, 2.22 0, 2.92 0 M2.92 0 C2.92 2.33, 2.92 4.67, 2.92 10.21 M2.92 0 C2.92 3.68, 2.92 7.36, 2.92 10.21 M2.92 10.21 C1.85 10.21, 0.78 10.21, 0 10.21 M2.92 10.21 C1.89 10.21, 0.85 10.21, 0 10.21 M0 10.21 C0 6.88, 0 3.55, 0 0 M0 10.21 C0 7.98, 0 5.75, 0 0" stroke="transparent" stroke-width="1" fill="none"></path></g><g stroke-linecap="round" transform="translate(1073.75 41.70833396911621) rotate(0 4.375 0.7291666865348816)"><path d="M0 0 L8.75 0 L8.75 1.46 L0 1.46" stroke="none" stroke-width="0" fill="#fff"></path><path d="M0 0 C3.49 0, 6.99 0, 8.75 0 M0 0 C1.82 0, 3.63 0, 8.75 0 M8.75 0 C8.75 0.53, 8.75 1.07, 8.75 1.46 M8.75 0 C8.75 0.47, 8.75 0.93, 8.75 1.46 M8.75 1.46 C5.73 1.46, 2.7 1.46, 0 1.46 M8.75 1.46 C5.45 1.46, 2.14 1.46, 0 1.46 M0 1.46 C0 1.05, 0 0.65, 0 0 M0 1.46 C0 1.12, 0 0.77, 0 0" stroke="transparent" stroke-width="1" fill="none"></path></g><g stroke-linecap="round" transform="translate(1086.875 40.25) rotate(0 2.1875 2.1875)"><path d="M1.09 0 L4.1 0.27 L4.1 4.1 L0.27 4.1 L0 1.09 L1.09 0" stroke="none" stroke-width="0" fill="#fff"></path><path d="M1.09 0 M1.09 0 C1.59 0, 2.08 0, 3.28 0 M1.09 0 C1.83 0, 2.56 0, 3.28 0 M3.28 0 C4.01 0, 4.38 0.36, 4.38 1.09 M3.28 0 C4.01 0, 4.38 0.36, 4.38 1.09 M4.38 1.09 C4.38 1.87, 4.38 2.64, 4.38 3.28 M4.38 1.09 C4.38 1.95, 4.38 2.81, 4.38 3.28 M4.38 3.28 C4.38 4.01, 4.01 4.38, 3.28 4.38 M4.38 3.28 C4.38 4.01, 4.01 4.38, 3.28 4.38 M3.28 4.38 C2.57 4.38, 1.86 4.38, 1.09 4.38 M3.28 4.38 C2.81 4.38, 2.35 4.38, 1.09 4.38 M1.09 4.38 C0.36 4.38, 0 4.01, 0 3.28 M1.09 4.38 C0.36 4.38, 0 4.01, 0 3.28 M0 3.28 C0 2.5, 0 1.72, 0 1.09 M0 3.28 C0 2.66, 0 2.03, 0 1.09 M0 1.09 C0 0.36, 0.36 0, 1.09 0 M0 1.09 C0 0.36, 0.36 0, 1.09 0" stroke="transparent" stroke-width="1" fill="none"></path></g><g stroke-linecap="round" transform="translate(1067.9166667461395 50.45833396911621) rotate(0 14.583333969116211 5.1041669845581055)"><path d="M0 0 L29.17 0 L29.17 10.21 L0 10.21" stroke="none" stroke-width="0" fill="#aecbfa"></path><path d="M0 0 C11.39 0, 22.79 0, 29.17 0 M0 0 C6.55 0, 13.1 0, 29.17 0 M29.17 0 C29.17 2.48, 29.17 4.95, 29.17 10.21 M29.17 0 C29.17 3.61, 29.17 7.22, 29.17 10.21 M29.17 10.21 C22.99 10.21, 16.81 10.21, 0 10.21 M29.17 10.21 C19.7 10.21, 10.23 10.21, 0 10.21 M0 10.21 C0 6.23, 0 2.26, 0 0 M0 10.21 C0 6.56, 0 2.9, 0 0" stroke="transparent" stroke-width="1" fill="none"></path></g><g stroke-linecap="round" transform="translate(1094.1666679382324 50.45833396911621) rotate(0 1.4583333730697632 5.1041669845581055)"><path d="M0 0 L2.92 0 L2.92 10.21 L0 10.21" stroke="none" stroke-width="0" fill="#669df6"></path><path d="M0 0 C0.9 0, 1.81 0, 2.92 0 M0 0 C0.61 0, 1.23 0, 2.92 0 M2.92 0 C2.92 2.7, 2.92 5.4, 2.92 10.21 M2.92 0 C2.92 2.59, 2.92 5.18, 2.92 10.21 M2.92 10.21 C2.26 10.21, 1.6 10.21, 0 10.21 M2.92 10.21 C2.32 10.21, 1.72 10.21, 0 10.21 M0 10.21 C0 7.84, 0 5.47, 0 0 M0 10.21 C0 6.65, 0 3.09, 0 0" stroke="transparent" stroke-width="1" fill="none"></path></g><g stroke-linecap="round"><g transform="translate(1097.0833358764648 50.45833396911621) rotate(0 -1.458333969116211 5.1041669845581055)" fill-rule="evenodd"><path d="M0 0 L-2.92 0 L-2.92 10.21 L0 0 L0 0" stroke="none" stroke-width="0" fill="#4285f4" fill-rule="evenodd"></path><path d="M0 0 C-1.08 0, -2.15 0, -2.92 0 M0 0 C-1.17 0, -2.33 0, -2.92 0 M-2.92 0 C-2.92 3.78, -2.92 7.56, -2.92 10.21 M-2.92 0 C-2.92 3.31, -2.92 6.61, -2.92 10.21 M-2.92 10.21 C-1.83 6.42, -0.75 2.63, 0 0 M-2.92 10.21 C-1.88 6.58, -0.84 2.95, 0 0 M0 0 C0 0, 0 0, 0 0 M0 0 C0 0, 0 0, 0 0 M0 0 C0 0, 0 0, 0 0 M0 0 C0 0, 0 0, 0 0" stroke="#00000000" stroke-width="1" fill="none"></path></g></g><g stroke-linecap="round" transform="translate(1067.9166667461395 50.45833396911621) rotate(0 1.4583333730697632 5.1041669845581055)"><path d="M0 0 L2.92 0 L2.92 10.21 L0 10.21" stroke="none" stroke-width="0" fill="#669df6"></path><path d="M0 0 C0.93 0, 1.86 0, 2.92 0 M0 0 C0.94 0, 1.88 0, 2.92 0 M2.92 0 C2.92 3.88, 2.92 7.77, 2.92 10.21 M2.92 0 C2.92 2.77, 2.92 5.54, 2.92 10.21 M2.92 10.21 C1.78 10.21, 0.65 10.21, 0 10.21 M2.92 10.21 C1.95 10.21, 0.99 10.21, 0 10.21 M0 10.21 C0 6.44, 0 2.67, 0 0 M0 10.21 C0 7.89, 0 5.56, 0 0" stroke="transparent" stroke-width="1" fill="none"></path></g><g stroke-linecap="round" transform="translate(1073.75 54.83333396911621) rotate(0 4.375 0.7291666865348816)"><path d="M0 0 L8.75 0 L8.75 1.46 L0 1.46" stroke="none" stroke-width="0" fill="#fff"></path><path d="M0 0 C2.43 0, 4.86 0, 8.75 0 M0 0 C2.01 0, 4.02 0, 8.75 0 M8.75 0 C8.75 0.3, 8.75 0.59, 8.75 1.46 M8.75 0 C8.75 0.37, 8.75 0.75, 8.75 1.46 M8.75 1.46 C6.48 1.46, 4.22 1.46, 0 1.46 M8.75 1.46 C6.51 1.46, 4.27 1.46, 0 1.46 M0 1.46 C0 1.01, 0 0.55, 0 0 M0 1.46 C0 1.16, 0 0.86, 0 0" stroke="transparent" stroke-width="1" fill="none"></path></g><g stroke-linecap="round" transform="translate(1086.875 53.375) rotate(0 2.1875 2.1875)"><path d="M1.09 0 L4.1 0.27 L4.1 4.1 L0.27 4.1 L0 1.09 L1.09 0" stroke="none" stroke-width="0" fill="#fff"></path><path d="M1.09 0 M1.09 0 C1.69 0, 2.29 0, 3.28 0 M1.09 0 C1.9 0, 2.71 0, 3.28 0 M3.28 0 C4.01 0, 4.38 0.36, 4.38 1.09 M3.28 0 C4.01 0, 4.38 0.36, 4.38 1.09 M4.38 1.09 C4.38 1.82, 4.38 2.55, 4.38 3.28 M4.38 1.09 C4.38 1.91, 4.38 2.72, 4.38 3.28 M4.38 3.28 C4.38 4.01, 4.01 4.38, 3.28 4.38 M4.38 3.28 C4.38 4.01, 4.01 4.38, 3.28 4.38 M3.28 4.38 C2.72 4.38, 2.15 4.38, 1.09 4.38 M3.28 4.38 C2.47 4.38, 1.66 4.38, 1.09 4.38 M1.09 4.38 C0.36 4.38, 0 4.01, 0 3.28 M1.09 4.38 C0.36 4.38, 0 4.01, 0 3.28 M0 3.28 C0 2.79, 0 2.29, 0 1.09 M0 3.28 C0 2.7, 0 2.11, 0 1.09 M0 1.09 C0 0.36, 0.36 0, 1.09 0 M0 1.09 C0 0.36, 0.36 0, 1.09 0" stroke="transparent" stroke-width="1" fill="none"></path></g><g stroke-linecap="round" transform="translate(210 230) rotate(0 88.5 39)"><path d="M19.5 0 L157.5 0 L166.03 1.22 L172.13 4.88 L174.26 7.62 L176.7 14.93 L177 58.5 L175.78 67.03 L174.26 70.38 L169.38 75.26 L166.03 76.78 L157.5 78 L19.5 78 L10.97 76.78 L4.88 73.13 L2.74 70.38 L0.3 63.07 L0.3 14.93 L1.22 10.97 L4.88 4.88 L10.97 1.22 L19.5 0" stroke="none" stroke-width="0" fill="#FFF"></path><path d="M19.5 0 M19.5 0 C62.24 0, 104.99 0, 157.5 0 M19.5 0 C49.72 0, 79.95 0, 157.5 0 M157.5 0 C170.5 0, 177 6.5, 177 19.5 M157.5 0 C170.5 0, 177 6.5, 177 19.5 M177 19.5 C177 30.96, 177 42.42, 177 58.5 M177 19.5 C177 33.52, 177 47.53, 177 58.5 M177 58.5 C177 71.5, 170.5 78, 157.5 78 M177 58.5 C177 71.5, 170.5 78, 157.5 78 M157.5 78 C129.43 78, 101.35 78, 19.5 78 M157.5 78 C115.18 78, 72.86 78, 19.5 78 M19.5 78 C6.5 78, 0 71.5, 0 58.5 M19.5 78 C6.5 78, 0 71.5, 0 58.5 M0 58.5 C0 48.33, 0 38.16, 0 19.5 M0 58.5 C0 49.72, 0 40.94, 0 19.5 M0 19.5 C0 6.5, 6.5 0, 19.5 0 M0 19.5 C0 6.5, 6.5 0, 19.5 0" stroke="#4285f4" stroke-width="2" fill="none"></path></g><g transform="translate(270 245) rotate(0 56 7)"><text x="0" y="11" font-family="Helvetica, Segoe UI Emoji" font-size="12px" fill="#B5B9BF" text-anchor="start" style="white-space: pre;" direction="ltr">View the deployment</text></g><g transform="translate(270 261) rotate(0 42 8)"><text x="0" y="12" font-family="Helvetica, Segoe UI Emoji" font-size="12px" fill="#000000" text-anchor="start" style="white-space: pre;" direction="ltr">Compute Engine</text></g><g stroke-linecap="round"><g transform="translate(240.96949195861816 253.04237282276154) rotate(0 1.589829444885254 3.179660975933075)" fill-rule="evenodd"><path d="M0 0 L3.18 0 L3.18 6.36 L0 6.36 L0 0" stroke="none" stroke-width="0" fill="#669df6" fill-rule="evenodd"></path><path d="M0 0 C0.65 0, 1.29 0, 3.18 0 M0 0 C1.17 0, 2.34 0, 3.18 0 M3.18 0 C3.18 1.32, 3.18 2.65, 3.18 6.36 M3.18 0 C3.18 1.79, 3.18 3.59, 3.18 6.36 M3.18 6.36 C2.16 6.36, 1.14 6.36, 0 6.36 M3.18 6.36 C2.21 6.36, 1.23 6.36, 0 6.36 M0 6.36 C0 4.79, 0 3.23, 0 0 M0 6.36 C0 4.1, 0 1.83, 0 0 M0 0 C0 0, 0 0, 0 0 M0 0 C0 0, 0 0, 0 0" stroke="#00000000" stroke-width="1" fill="none"></path></g></g><g stroke-linecap="round"><g transform="translate(234.61016941070557 253.04237282276154) rotate(0 1.5898308753967285 3.179660975933075)" fill-rule="evenodd"><path d="M0 0 L3.18 0 L3.18 6.36 L0 6.36 L0 0" stroke="none" stroke-width="0" fill="#669df6" fill-rule="evenodd"></path><path d="M0 0 C0.67 0, 1.35 0, 3.18 0 M0 0 C0.95 0, 1.9 0, 3.18 0 M3.18 0 C3.18 1.7, 3.18 3.4, 3.18 6.36 M3.18 0 C3.18 1.59, 3.18 3.18, 3.18 6.36 M3.18 6.36 C2.38 6.36, 1.57 6.36, 0 6.36 M3.18 6.36 C2.37 6.36, 1.57 6.36, 0 6.36 M0 6.36 C0 4.67, 0 2.98, 0 0 M0 6.36 C0 4.01, 0 1.66, 0 0 M0 0 C0 0, 0 0, 0 0 M0 0 C0 0, 0 0, 0 0" stroke="#00000000" stroke-width="1" fill="none"></path></g></g><g stroke-linecap="round"><g transform="translate(247.32881355285645 253.04237282276154) rotate(0 1.5898303985595703 3.179660975933075)" fill-rule="evenodd"><path d="M0 0 L3.18 0 L3.18 6.36 L0 6.36 L0 0" stroke="none" stroke-width="0" fill="#669df6" fill-rule="evenodd"></path><path d="M0 0 C1.23 0, 2.46 0, 3.18 0 M0 0 C1.1 0, 2.2 0, 3.18 0 M3.18 0 C3.18 2.17, 3.18 4.33, 3.18 6.36 M3.18 0 C3.18 1.87, 3.18 3.74, 3.18 6.36 M3.18 6.36 C2.52 6.36, 1.87 6.36, 0 6.36 M3.18 6.36 C2.47 6.36, 1.76 6.36, 0 6.36 M0 6.36 C0 4.5, 0 2.64, 0 0 M0 6.36 C0 4.05, 0 1.74, 0 0 M0 0 C0 0, 0 0, 0 0 M0 0 C0 0, 0 0, 0 0" stroke="#00000000" stroke-width="1" fill="none"></path></g></g><g stroke-linecap="round"><g transform="translate(240.96949195861816 278.4796600341797) rotate(0 1.589829444885254 3.1796607971191406)" fill-rule="evenodd"><path d="M0 0 L3.18 0 L3.18 6.36 L0 6.36 L0 0" stroke="none" stroke-width="0" fill="#4285f4" fill-rule="evenodd"></path><path d="M0 0 C0.85 0, 1.7 0, 3.18 0 M0 0 C1.13 0, 2.26 0, 3.18 0 M3.18 0 C3.18 2.24, 3.18 4.49, 3.18 6.36 M3.18 0 C3.18 1.41, 3.18 2.82, 3.18 6.36 M3.18 6.36 C2.48 6.36, 1.79 6.36, 0 6.36 M3.18 6.36 C2.06 6.36, 0.94 6.36, 0 6.36 M0 6.36 C0 4.07, 0 1.79, 0 0 M0 6.36 C0 4.16, 0 1.97, 0 0 M0 0 C0 0, 0 0, 0 0 M0 0 C0 0, 0 0, 0 0" stroke="#00000000" stroke-width="1" fill="none"></path></g></g><g stroke-linecap="round"><g transform="translate(234.61016941070557 278.4796600341797) rotate(0 1.5898308753967285 3.1796607971191406)" fill-rule="evenodd"><path d="M0 0 L3.18 0 L3.18 6.36 L0 6.36 L0 0" stroke="none" stroke-width="0" fill="#4285f4" fill-rule="evenodd"></path><path d="M0 0 C0.92 0, 1.84 0, 3.18 0 M0 0 C0.93 0, 1.85 0, 3.18 0 M3.18 0 C3.18 2.28, 3.18 4.56, 3.18 6.36 M3.18 0 C3.18 2.37, 3.18 4.75, 3.18 6.36 M3.18 6.36 C2.31 6.36, 1.43 6.36, 0 6.36 M3.18 6.36 C2.14 6.36, 1.11 6.36, 0 6.36 M0 6.36 C0 4.42, 0 2.49, 0 0 M0 6.36 C0 4.87, 0 3.38, 0 0 M0 0 C0 0, 0 0, 0 0 M0 0 C0 0, 0 0, 0 0" stroke="#00000000" stroke-width="1" fill="none"></path></g></g><g stroke-linecap="round"><g transform="translate(247.32881355285645 278.4796600341797) rotate(0 1.5898303985595703 3.1796607971191406)" fill-rule="evenodd"><path d="M0 0 L3.18 0 L3.18 6.36 L0 6.36 L0 0" stroke="none" stroke-width="0" fill="#4285f4" fill-rule="evenodd"></path><path d="M0 0 C0.64 0, 1.28 0, 3.18 0 M0 0 C0.7 0, 1.41 0, 3.18 0 M3.18 0 C3.18 1.48, 3.18 2.96, 3.18 6.36 M3.18 0 C3.18 1.52, 3.18 3.04, 3.18 6.36 M3.18 6.36 C2.05 6.36, 0.92 6.36, 0 6.36 M3.18 6.36 C2.31 6.36, 1.44 6.36, 0 6.36 M0 6.36 C0 5.06, 0 3.76, 0 0 M0 6.36 C0 4.97, 0 3.58, 0 0 M0 0 C0 0, 0 0, 0 0 M0 0 C0 0, 0 0, 0 0" stroke="#00000000" stroke-width="1" fill="none"></path></g></g><g stroke-linecap="round"><g transform="translate(252.09830474853516 267.350848197937) rotate(0 3.1796607971191406 1.589829921722412)" fill-rule="evenodd"><path d="M0 0 L6.36 0 L6.36 3.18 L0 3.18 L0 0" stroke="none" stroke-width="0" fill="#4285f4" fill-rule="evenodd"></path><path d="M0 0 C2.33 0, 4.67 0, 6.36 0 M0 0 C1.68 0, 3.36 0, 6.36 0 M6.36 0 C6.36 0.9, 6.36 1.79, 6.36 3.18 M6.36 0 C6.36 0.82, 6.36 1.64, 6.36 3.18 M6.36 3.18 C3.96 3.18, 1.57 3.18, 0 3.18 M6.36 3.18 C4.71 3.18, 3.06 3.18, 0 3.18 M0 3.18 C0 2.44, 0 1.71, 0 0 M0 3.18 C0 2.04, 0 0.91, 0 0 M0 0 C0 0, 0 0, 0 0 M0 0 C0 0, 0 0, 0 0" stroke="#00000000" stroke-width="1" fill="none"></path></g></g><g stroke-linecap="round"><g transform="translate(252.09830474853516 273.710168838501) rotate(0 3.1796607971191406 1.5898303985595703)" fill-rule="evenodd"><path d="M0 0 L6.36 0 L6.36 3.18 L0 3.18 L0 0" stroke="none" stroke-width="0" fill="#4285f4" fill-rule="evenodd"></path><path d="M0 0 C2.2 0, 4.4 0, 6.36 0 M0 0 C1.95 0, 3.9 0, 6.36 0 M6.36 0 C6.36 0.78, 6.36 1.56, 6.36 3.18 M6.36 0 C6.36 0.98, 6.36 1.97, 6.36 3.18 M6.36 3.18 C4.83 3.18, 3.29 3.18, 0 3.18 M6.36 3.18 C4.49 3.18, 2.62 3.18, 0 3.18 M0 3.18 C0 2.38, 0 1.58, 0 0 M0 3.18 C0 2.53, 0 1.89, 0 0 M0 0 C0 0, 0 0, 0 0 M0 0 C0 0, 0 0, 0 0" stroke="#00000000" stroke-width="1" fill="none"></path></g></g><g stroke-linecap="round"><g transform="translate(252.09830474853516 260.9915256500244) rotate(0 3.1796607971191406 1.5898303985595703)" fill-rule="evenodd"><path d="M0 0 L6.36 0 L6.36 3.18 L0 3.18 L0 0" stroke="none" stroke-width="0" fill="#4285f4" fill-rule="evenodd"></path><path d="M0 0 C1.82 0, 3.64 0, 6.36 0 M0 0 C1.48 0, 2.96 0, 6.36 0 M6.36 0 C6.36 1.1, 6.36 2.2, 6.36 3.18 M6.36 0 C6.36 0.91, 6.36 1.83, 6.36 3.18 M6.36 3.18 C3.91 3.18, 1.46 3.18, 0 3.18 M6.36 3.18 C4.01 3.18, 1.67 3.18, 0 3.18 M0 3.18 C0 2.37, 0 1.57, 0 0 M0 3.18 C0 2.19, 0 1.21, 0 0 M0 0 C0 0, 0 0, 0 0 M0 0 C0 0, 0 0, 0 0" stroke="#00000000" stroke-width="1" fill="none"></path></g></g><g stroke-linecap="round"><g transform="translate(226.66101694107056 267.350848197937) rotate(0 3.1796610355377197 1.589829921722412)" fill-rule="evenodd"><path d="M0 0 L6.36 0 L6.36 3.18 L0 3.18 L0 0" stroke="none" stroke-width="0" fill="#669df6" fill-rule="evenodd"></path><path d="M0 0 C2.09 0, 4.19 0, 6.36 0 M0 0 C2.18 0, 4.36 0, 6.36 0 M6.36 0 C6.36 1.03, 6.36 2.06, 6.36 3.18 M6.36 0 C6.36 1.19, 6.36 2.38, 6.36 3.18 M6.36 3.18 C4.17 3.18, 1.98 3.18, 0 3.18 M6.36 3.18 C4.91 3.18, 3.46 3.18, 0 3.18 M0 3.18 C0 2.12, 0 1.05, 0 0 M0 3.18 C0 2.36, 0 1.54, 0 0 M0 0 C0 0, 0 0, 0 0 M0 0 C0 0, 0 0, 0 0" stroke="#00000000" stroke-width="1" fill="none"></path></g></g><g stroke-linecap="round"><g transform="translate(226.66101694107056 273.710168838501) rotate(0 3.1796610355377197 1.5898303985595703)" fill-rule="evenodd"><path d="M0 0 L6.36 0 L6.36 3.18 L0 3.18 L0 0" stroke="none" stroke-width="0" fill="#669df6" fill-rule="evenodd"></path><path d="M0 0 C2.21 0, 4.42 0, 6.36 0 M0 0 C2.26 0, 4.53 0, 6.36 0 M6.36 0 C6.36 0.72, 6.36 1.44, 6.36 3.18 M6.36 0 C6.36 0.92, 6.36 1.83, 6.36 3.18 M6.36 3.18 C4.97 3.18, 3.59 3.18, 0 3.18 M6.36 3.18 C3.96 3.18, 1.57 3.18, 0 3.18 M0 3.18 C0 2.54, 0 1.91, 0 0 M0 3.18 C0 2.09, 0 1, 0 0 M0 0 C0 0, 0 0, 0 0 M0 0 C0 0, 0 0, 0 0" stroke="#00000000" stroke-width="1" fill="none"></path></g></g><g stroke-linecap="round"><g transform="translate(226.66101694107056 260.9915256500244) rotate(0 3.1796610355377197 1.5898303985595703)" fill-rule="evenodd"><path d="M0 0 L6.36 0 L6.36 3.18 L0 3.18 L0 0" stroke="none" stroke-width="0" fill="#669df6" fill-rule="evenodd"></path><path d="M0 0 C2.34 0, 4.68 0, 6.36 0 M0 0 C1.32 0, 2.65 0, 6.36 0 M6.36 0 C6.36 0.9, 6.36 1.79, 6.36 3.18 M6.36 0 C6.36 1.02, 6.36 2.04, 6.36 3.18 M6.36 3.18 C4.41 3.18, 2.46 3.18, 0 3.18 M6.36 3.18 C4.79 3.18, 3.23 3.18, 0 3.18 M0 3.18 C0 2.05, 0 0.92, 0 0 M0 3.18 C0 2.22, 0 1.26, 0 0 M0 0 C0 0, 0 0, 0 0 M0 0 C0 0, 0 0, 0 0" stroke="#00000000" stroke-width="1" fill="none"></path></g></g><g stroke-linecap="round"><g transform="translate(231.43050861358643 257.8118643760681) rotate(0 11.12881326675415 11.128813982009888)" fill-rule="evenodd"><path d="M0 0 L0 22.26 L22.26 22.26 L22.26 0 L0 0 L0 0" stroke="none" stroke-width="0" fill="#aecbfa" fill-rule="evenodd"></path><path d="M0 0 C0 6.64, 0 13.28, 0 22.26 M0 0 C0 5.96, 0 11.91, 0 22.26 M0 22.26 C5.56 22.26, 11.12 22.26, 22.26 22.26 M0 22.26 C5.62 22.26, 11.24 22.26, 22.26 22.26 M22.26 22.26 C22.26 16.61, 22.26 10.97, 22.26 0 M22.26 22.26 C22.26 16.35, 22.26 10.44, 22.26 0 M22.26 0 C14.04 0, 5.82 0, 0 0 M22.26 0 C16.42 0, 10.59 0, 0 0 M0 0 C0 0, 0 0, 0 0 M0 0 C0 0, 0 0, 0 0 M0 0 C0 0, 0 0, 0 0 M0 0 C0 0, 0 0, 0 0" stroke="#00000000" stroke-width="1" fill="none"></path></g></g><g stroke-linecap="round"><g transform="translate(250.5084743499756 276.8898296356201) rotate(0 -7.94915246963501 -7.949151992797852)" fill-rule="evenodd"><path d="M0 0 L-15.9 0 L-15.9 -15.9 L0 -15.9 L0 0 L0 0" stroke="none" stroke-width="0" fill="#aecbfa" fill-rule="evenodd"></path><path d="M0 0 C-5.49 0, -10.99 0, -15.9 0 M0 0 C-5.41 0, -10.83 0, -15.9 0 M-15.9 0 C-15.9 -4.67, -15.9 -9.34, -15.9 -15.9 M-15.9 0 C-15.9 -3.28, -15.9 -6.55, -15.9 -15.9 M-15.9 -15.9 C-12.35 -15.9, -8.79 -15.9, 0 -15.9 M-15.9 -15.9 C-11.25 -15.9, -6.6 -15.9, 0 -15.9 M0 -15.9 C0 -10.12, 0 -4.35, 0 0 M0 -15.9 C0 -12.14, 0 -8.38, 0 0 M0 0 C0 0, 0 0, 0 0 M0 0 C0 0, 0 0, 0 0 M0 0 C0 0, 0 0, 0 0 M0 0 C0 0, 0 0, 0 0" stroke="#00000000" stroke-width="1" fill="none"></path></g></g><g stroke-linecap="round"><g transform="translate(250.5084743499756 276.8898296356201) rotate(0 -7.94915246963501 -7.949151992797852)" fill-rule="evenodd"><path d="M0 0 L-15.9 0 L-15.9 -15.9 L0 -15.9 L0 0 L0 0" stroke="none" stroke-width="0" fill="#fff" fill-rule="evenodd"></path><path d="M0 0 C-5.65 0, -11.29 0, -15.9 0 M0 0 C-5.61 0, -11.22 0, -15.9 0 M-15.9 0 C-15.9 -3.53, -15.9 -7.05, -15.9 -15.9 M-15.9 0 C-15.9 -3.48, -15.9 -6.96, -15.9 -15.9 M-15.9 -15.9 C-10.3 -15.9, -4.7 -15.9, 0 -15.9 M-15.9 -15.9 C-10.18 -15.9, -4.47 -15.9, 0 -15.9 M0 -15.9 C0 -10.41, 0 -4.92, 0 0 M0 -15.9 C0 -11.02, 0 -6.15, 0 0 M0 0 C0 0, 0 0, 0 0 M0 0 C0 0, 0 0, 0 0 M0 0 C0 0, 0 0, 0 0 M0 0 C0 0, 0 0, 0 0" stroke="#00000000" stroke-width="1" fill="none"></path></g></g><g stroke-linecap="round"><g transform="translate(237.78983116149902 264.17118644714355) rotate(0 4.769491195678711 4.769491195678711)" fill-rule="evenodd"><path d="M0 0 L9.54 0 L9.54 9.54 L0 9.54 L0 0" stroke="none" stroke-width="0" fill="#aecbfa" fill-rule="evenodd"></path><path d="M0 0 C2.78 0, 5.56 0, 9.54 0 M0 0 C3.42 0, 6.85 0, 9.54 0 M9.54 0 C9.54 3.56, 9.54 7.12, 9.54 9.54 M9.54 0 C9.54 2.62, 9.54 5.24, 9.54 9.54 M9.54 9.54 C6.43 9.54, 3.33 9.54, 0 9.54 M9.54 9.54 C6.64 9.54, 3.73 9.54, 0 9.54 M0 9.54 C0 7.3, 0 5.06, 0 0 M0 9.54 C0 6.1, 0 2.67, 0 0 M0 0 C0 0, 0 0, 0 0 M0 0 C0 0, 0 0, 0 0" stroke="#00000000" stroke-width="1" fill="none"></path></g></g><g stroke-linecap="round"><g transform="translate(237.78983116149902 273.710168838501) rotate(0 4.769491195678711 -2.3847455978393555)" fill-rule="evenodd"><path d="M0 0 L9.54 0 L4.77 -4.77 L0 0" stroke="none" stroke-width="0" fill="#669df6" fill-rule="evenodd"></path><path d="M0 0 C2.11 0, 4.23 0, 9.54 0 M0 0 C2.22 0, 4.44 0, 9.54 0 M9.54 0 C8.4 -1.14, 7.26 -2.28, 4.77 -4.77 M9.54 0 C7.84 -1.7, 6.14 -3.39, 4.77 -4.77 M4.77 -4.77 C3.47 -3.47, 2.16 -2.16, 0 0 M4.77 -4.77 C3.79 -3.79, 2.82 -2.82, 0 0 M0 0 C0 0, 0 0, 0 0 M0 0 C0 0, 0 0, 0 0" stroke="#00000000" stroke-width="1" fill="none"></path></g></g><g stroke-linecap="round"><g transform="translate(242.55932235717773 268.94067764282227) rotate(0 2.3847455978393555 0)" fill-rule="evenodd"><path d="M0 0 L4.77 4.77 L4.77 -4.77 L0 0" stroke="none" stroke-width="0" fill="#4285f4" fill-rule="evenodd"></path><path d="M0 0 C1.26 1.26, 2.52 2.52, 4.77 4.77 M0 0 C1.34 1.34, 2.69 2.69, 4.77 4.77 M4.77 4.77 C4.77 2.31, 4.77 -0.15, 4.77 -4.77 M4.77 4.77 C4.77 1.18, 4.77 -2.41, 4.77 -4.77 M4.77 -4.77 C3.53 -3.53, 2.3 -2.3, 0 0 M4.77 -4.77 C3.67 -3.67, 2.56 -2.56, 0 0 M0 0 C0 0, 0 0, 0 0 M0 0 C0 0, 0 0, 0 0" stroke="#00000000" stroke-width="1" fill="none"></path></g></g><g stroke-linecap="round"><g transform="translate(290 310) rotate(0 149.5 140)"><path d="M0 0 C0 92.64, 0 185.29, 0 280 M0 0 C0 64.51, 0 129.02, 0 280 M0 280 C119.15 280, 238.3 280, 299 280 M0 280 C68.22 280, 136.43 280, 299 280" stroke="#7fabf7" stroke-width="1" fill="none"></path></g><g transform="translate(290 310) rotate(0 149.5 140)"><path d="M299 280 L285.41 286.34 L285.41 273.66 L299 280" stroke="none" stroke-width="0" fill="#7fabf7" fill-rule="evenodd"></path><path d="M299 280 C294.5 282.1, 290 284.19, 285.41 286.34 M299 280 C295.87 281.46, 292.74 282.92, 285.41 286.34 M285.41 286.34 C285.41 281.29, 285.41 276.23, 285.41 273.66 M285.41 286.34 C285.41 283.45, 285.41 280.55, 285.41 273.66 M285.41 273.66 C288.51 275.11, 291.61 276.56, 299 280 M285.41 273.66 C290.69 276.12, 295.97 278.59, 299 280 M299 280 C299 280, 299 280, 299 280 M299 280 C299 280, 299 280, 299 280" stroke="#7fabf7" stroke-width="1" fill="none"></path></g></g><g stroke-linecap="round"><g transform="translate(589 570.0142413787671) rotate(0 -89.50000000000001 -30.007120689383555)"><path d="M0 0 C-52.87 0, -105.75 -0.01, -179 -0.01 M-179 -0.01 C-179 -17.41, -179 -34.81, -179 -60.01" stroke="#7fabf7" stroke-width="1.5" fill="none" stroke-dasharray="8 9"></path></g><g transform="translate(589 570.0142413787671) rotate(0 -89.50000000000001 -30.007120689383555)"><path d="M-179 -60.01 L-172.66 -46.42 L-185.34 -46.42 L-179 -60.01" stroke="none" stroke-width="0" fill="#7fabf7" fill-rule="evenodd"></path><path d="M-179 -60.01 C-177.13 -56, -175.25 -51.98, -172.66 -46.42 M-172.66 -46.42 C-176.34 -46.42, -180.01 -46.42, -185.34 -46.42 M-185.34 -46.42 C-183.33 -50.73, -181.32 -55.05, -179 -60.01 M-179 -60.01 C-179 -60.01, -179 -60.01, -179 -60.01" stroke="#7fabf7" stroke-width="1.5" fill="none"></path></g></g><g transform="translate(250 330) rotate(0 18 9)"><text x="0" y="14" font-family="Helvetica, Segoe UI Emoji" font-size="16px" fill="#ffff" text-anchor="start" style="white-space: pre;" direction="ltr">https</text></g><g stroke-linecap="round"><g transform="translate(90 270) rotate(0 60.00000000000001 0)"><path d="M0 0 C45.53 0, 91.06 0, 120 0 M0 0 C39.33 0, 78.67 0, 120 0" stroke="#7fabf7" stroke-width="1" fill="none"></path></g><g transform="translate(90 270) rotate(0 60.00000000000001 0)"><path d="M120 0 L106.41 6.34 L106.41 -6.34 L120 0" stroke="none" stroke-width="0" fill="#7fabf7" fill-rule="evenodd"></path><path d="M120 0 C114.84 2.41, 109.68 4.81, 106.41 6.34 M120 0 C115.54 2.08, 111.09 4.16, 106.41 6.34 M106.41 6.34 C106.41 2.53, 106.41 -1.28, 106.41 -6.34 M106.41 6.34 C106.41 1.58, 106.41 -3.18, 106.41 -6.34 M106.41 -6.34 C109.84 -4.74, 113.27 -3.14, 120 0 M106.41 -6.34 C109.19 -5.04, 111.98 -3.74, 120 0 M120 0 C120 0, 120 0, 120 0 M120 0 C120 0, 120 0, 120 0" stroke="#7fabf7" stroke-width="1" fill="none"></path></g></g><g stroke-linecap="round"><g transform="translate(510.00000000000006 769.9719240246002) rotate(0 79.99999999999997 -80.15262867896672)"><path d="M0 -20 C34.69 -20.06, 69.37 -20.11, 159.08 -20.26 M159.08 -20.26 C159.37 -58.35, 159.67 -96.45, 160 -140.31" stroke="#7fabf7" stroke-width="1.5" fill="none" stroke-dasharray="1.5 7"></path></g><g transform="translate(510.00000000000006 769.9719240246002) rotate(0 79.99999999999997 -80.15262867896672)"><path d="M8 -20 C8 -19.54, 7.96 -19.07, 7.88 -18.61 C7.8 -18.15, 7.68 -17.7, 7.52 -17.26 C7.36 -16.83, 7.16 -16.4, 6.93 -16 C6.7 -15.6, 6.43 -15.21, 6.13 -14.86 C5.83 -14.5, 5.5 -14.17, 5.14 -13.87 C4.79 -13.57, 4.4 -13.3, 4 -13.07 C3.6 -12.84, 3.17 -12.64, 2.74 -12.48 C2.3 -12.32, 1.85 -12.2, 1.39 -12.12 C0.93 -12.04, 0.46 -12, 0 -12 C-0.46 -12, -0.93 -12.04, -1.39 -12.12 C-1.85 -12.2, -2.3 -12.32, -2.74 -12.48 C-3.17 -12.64, -3.6 -12.84, -4 -13.07 C-4.4 -13.3, -4.79 -13.57, -5.14 -13.87 C-5.5 -14.17, -5.83 -14.5, -6.13 -14.86 C-6.43 -15.21, -6.7 -15.6, -6.93 -16 C-7.16 -16.4, -7.36 -16.83, -7.52 -17.26 C-7.68 -17.7, -7.8 -18.15, -7.88 -18.61 C-7.96 -19.07, -8 -19.54, -8 -20 C-8 -20.46, -7.96 -20.93, -7.88 -21.39 C-7.8 -21.85, -7.68 -22.3, -7.52 -22.74 C-7.36 -23.17, -7.16 -23.6, -6.93 -24 C-6.7 -24.4, -6.43 -24.79, -6.13 -25.14 C-5.83 -25.5, -5.5 -25.83, -5.14 -26.13 C-4.79 -26.43, -4.4 -26.7, -4 -26.93 C-3.6 -27.16, -3.17 -27.36, -2.74 -27.52 C-2.3 -27.68, -1.85 -27.8, -1.39 -27.88 C-0.93 -27.96, -0.46 -28, 0 -28 C0.46 -28, 0.93 -27.96, 1.39 -27.88 C1.85 -27.8, 2.3 -27.68, 2.74 -27.52 C3.17 -27.36, 3.6 -27.16, 4 -26.93 C4.4 -26.7, 4.79 -26.43, 5.14 -26.13 C5.5 -25.83, 5.83 -25.5, 6.13 -25.14 C6.43 -24.79, 6.7 -24.4, 6.93 -24 C7.16 -23.6, 7.36 -23.17, 7.52 -22.74 C7.68 -22.3, 7.8 -21.85, 7.88 -21.39 C7.96 -20.93, 7.98 -20.23, 8 -20 C8.02 -19.77, 8.02 -20.23, 8 -20" stroke="none" stroke-width="0" fill="#7fabf7"></path></g><g transform="translate(510.00000000000006 769.9719240246002) rotate(0 79.99999999999997 -80.15262867896672)"><path d="M168 -140.31 C168 -139.84, 167.96 -139.37, 167.88 -138.92 C167.8 -138.46, 167.68 -138, 167.52 -137.57 C167.36 -137.13, 167.16 -136.71, 166.93 -136.31 C166.7 -135.9, 166.43 -135.52, 166.13 -135.16 C165.83 -134.81, 165.5 -134.47, 165.14 -134.18 C164.79 -133.88, 164.4 -133.61, 164 -133.38 C163.6 -133.15, 163.17 -132.95, 162.74 -132.79 C162.3 -132.63, 161.85 -132.51, 161.39 -132.43 C160.93 -132.35, 160.46 -132.31, 160 -132.31 C159.54 -132.31, 159.07 -132.35, 158.61 -132.43 C158.15 -132.51, 157.7 -132.63, 157.26 -132.79 C156.83 -132.95, 156.4 -133.15, 156 -133.38 C155.6 -133.61, 155.21 -133.88, 154.86 -134.18 C154.5 -134.47, 154.17 -134.81, 153.87 -135.16 C153.57 -135.52, 153.3 -135.9, 153.07 -136.31 C152.84 -136.71, 152.64 -137.13, 152.48 -137.57 C152.32 -138, 152.2 -138.46, 152.12 -138.92 C152.04 -139.37, 152 -139.84, 152 -140.31 C152 -140.77, 152.04 -141.24, 152.12 -141.69 C152.2 -142.15, 152.32 -142.61, 152.48 -143.04 C152.64 -143.48, 152.84 -143.9, 153.07 -144.31 C153.3 -144.71, 153.57 -145.09, 153.87 -145.45 C154.17 -145.8, 154.5 -146.14, 154.86 -146.43 C155.21 -146.73, 155.6 -147, 156 -147.23 C156.4 -147.46, 156.83 -147.66, 157.26 -147.82 C157.7 -147.98, 158.15 -148.1, 158.61 -148.18 C159.07 -148.26, 159.54 -148.31, 160 -148.31 C160.46 -148.31, 160.93 -148.26, 161.39 -148.18 C161.85 -148.1, 162.3 -147.98, 162.74 -147.82 C163.17 -147.66, 163.6 -147.46, 164 -147.23 C164.4 -147, 164.79 -146.73, 165.14 -146.43 C165.5 -146.14, 165.83 -145.8, 166.13 -145.45 C166.43 -145.09, 166.7 -144.71, 166.93 -144.31 C167.16 -143.9, 167.36 -143.48, 167.52 -143.04 C167.68 -142.61, 167.8 -142.15, 167.88 -141.69 C167.96 -141.24, 167.98 -140.54, 168 -140.31 C168.02 -140.07, 168.02 -140.54, 168 -140.31" stroke="none" stroke-width="0" fill="#7fabf7"></path></g></g></svg>