<svg version="1.1" xmlns="http://www.w3.org/2000/svg" viewBox="0 0 1208.4955752212395 720" width="1208.4955752212395" height="720">
  <!-- svg-source:excalidraw -->
  
  <defs>
    <style>
      @font-face {
        font-family: "Virgil";
        src: url("https://excalidraw.com/Virgil.woff2");
      }
      @font-face {
        font-family: "Cascadia";
        src: url("https://excalidraw.com/Cascadia.woff2");
      }
    </style>
  </defs>
  <rect x="0" y="0" width="1208.4955752212395" height="720" fill="transparent"></rect><g stroke-linecap="round" transform="translate(238.49557522123945 30) rotate(0 480 340)"><path d="M0 0 C296.73 0, 593.47 0, 960 0 M960 0 C960 144.23, 960 288.46, 960 680 M960 680 C577.01 680, 194.01 680, 0 680 M0 680 C0 529.53, 0 379.06, 0 0" stroke="#7fabf7" stroke-width="2.5" fill="none" stroke-dasharray="8 10"></path></g><g stroke-linecap="round" transform="translate(378.49557522123945 130) rotate(0 360 260)"><path d="M0 0 L720 0 L720 520 L0 520" stroke="none" stroke-width="0" fill="#fce5e2"></path><path d="M0 0 C169.05 0, 338.1 0, 720 0 M0 0 C207.48 0, 414.95 0, 720 0 M720 0 C720 206.34, 720 412.68, 720 520 M720 0 C720 168.24, 720 336.49, 720 520 M720 520 C573.46 520, 426.92 520, 0 520 M720 520 C448.63 520, 177.27 520, 0 520 M0 520 C0 383.32, 0 246.63, 0 0 M0 520 C0 370.49, 0 220.97, 0 0" stroke="#7fabf7" stroke-width="1" fill="none"></path></g><g stroke-linecap="round" transform="translate(158.49557522123945 10) rotate(0 103.07692307692305 40)"><path d="M20 0 L186.15 0 L194.9 1.25 L201.15 5 L203.34 7.81 L205.84 15.31 L206.15 60 L204.9 68.75 L203.34 72.19 L198.34 77.19 L194.9 78.75 L186.15 80 L20 80 L11.25 78.75 L5 75 L1.25 68.75 L0.31 64.69 L0.31 15.31 L2.81 7.81 L5 5 L11.25 1.25 L20 0" stroke="none" stroke-width="0" fill="#FFF"></path><path d="M20 0 M20 0 C72.43 0, 124.85 0, 186.15 0 M20 0 C53.31 0, 86.63 0, 186.15 0 M186.15 0 C199.49 0, 206.15 6.67, 206.15 20 M186.15 0 C199.49 0, 206.15 6.67, 206.15 20 M206.15 20 C206.15 33.82, 206.15 47.64, 206.15 60 M206.15 20 C206.15 29.08, 206.15 38.15, 206.15 60 M206.15 60 C206.15 73.33, 199.49 80, 186.15 80 M206.15 60 C206.15 73.33, 199.49 80, 186.15 80 M186.15 80 C127.87 80, 69.59 80, 20 80 M186.15 80 C134.45 80, 82.74 80, 20 80 M20 80 C6.67 80, 0 73.33, 0 60 M20 80 C6.67 80, 0 73.33, 0 60 M0 60 C0 49.46, 0 38.93, 0 20 M0 60 C0 49.49, 0 38.98, 0 20 M0 20 C0 6.67, 6.67 0, 20 0 M0 20 C0 6.67, 6.67 0, 20 0" stroke="#4285f4" stroke-width="2" fill="none"></path></g><g transform="translate(220.03403675970122 25.384615384615245) rotate(0 32 7)"><text x="0" y="11" font-family="Helvetica, Segoe UI Emoji" font-size="12.307692307692308px" fill="#B5B9BF" text-anchor="start" style="white-space: pre;" direction="ltr">custom-vpc</text></g><g transform="translate(220.03403675970122 41) rotate(0 59.23076923076911 7.252747252747213)"><text x="0" y="11.505494505494475" font-family="Helvetica, Segoe UI Emoji" font-size="12.893772893772864px" fill="#000000" text-anchor="start" style="white-space: pre;" direction="ltr">Virtual Private Cloud</text></g><g stroke-linecap="round"><g transform="translate(198.33853880672615 34.22688410832325) rotate(0 4.774874173677887 4.774874173677858)" fill-rule="evenodd"><path d="M0 0 L9.55 0 L9.55 9.55 L0 9.55 L0 0" stroke="none" stroke-width="0" fill="#aecbfa" fill-rule="evenodd"></path><path d="M0 0 C3.58 0, 7.17 0, 9.55 0 M0 0 C3.12 0, 6.24 0, 9.55 0 M9.55 0 C9.55 2.79, 9.55 5.59, 9.55 9.55 M9.55 0 C9.55 2.55, 9.55 5.11, 9.55 9.55 M9.55 9.55 C7.22 9.55, 4.89 9.55, 0 9.55 M9.55 9.55 C7.06 9.55, 4.58 9.55, 0 9.55 M0 9.55 C0 6.93, 0 4.31, 0 0 M0 9.55 C0 5.83, 0 2.12, 0 0 M0 0 C0 0, 0 0, 0 0 M0 0 C0 0, 0 0, 0 0" stroke="#00000000" stroke-width="1" fill="none"></path></g></g><g stroke-linecap="round"><g transform="translate(198.33853880672615 56.50963025215333) rotate(0 4.774874173677887 4.774874173677858)" fill-rule="evenodd"><path d="M0 0 L9.55 0 L9.55 9.55 L0 9.55 L0 0" stroke="none" stroke-width="0" fill="#aecbfa" fill-rule="evenodd"></path><path d="M0 0 C3.32 0, 6.64 0, 9.55 0 M0 0 C3 0, 6.01 0, 9.55 0 M9.55 0 C9.55 3.58, 9.55 7.15, 9.55 9.55 M9.55 0 C9.55 3.02, 9.55 6.03, 9.55 9.55 M9.55 9.55 C5.99 9.55, 2.43 9.55, 0 9.55 M9.55 9.55 C6.26 9.55, 2.98 9.55, 0 9.55 M0 9.55 C0 7.28, 0 5.01, 0 0 M0 9.55 C0 6.45, 0 3.35, 0 0 M0 0 C0 0, 0 0, 0 0 M0 0 C0 0, 0 0, 0 0" stroke="#00000000" stroke-width="1" fill="none"></path></g></g><g stroke-linecap="round"><g transform="translate(176.05579266289612 34.22688410832325) rotate(0 4.774874173677887 4.774874173677858)" fill-rule="evenodd"><path d="M0 0 L9.55 0 L9.55 9.55 L0 9.55 L0 0" stroke="none" stroke-width="0" fill="#aecbfa" fill-rule="evenodd"></path><path d="M0 0 C2.44 0, 4.88 0, 9.55 0 M0 0 C2.72 0, 5.43 0, 9.55 0 M9.55 0 C9.55 2.76, 9.55 5.52, 9.55 9.55 M9.55 0 C9.55 3.75, 9.55 7.5, 9.55 9.55 M9.55 9.55 C7.63 9.55, 5.71 9.55, 0 9.55 M9.55 9.55 C7.39 9.55, 5.23 9.55, 0 9.55 M0 9.55 C0 5.83, 0 2.11, 0 0 M0 9.55 C0 6.66, 0 3.76, 0 0 M0 0 C0 0, 0 0, 0 0 M0 0 C0 0, 0 0, 0 0" stroke="#00000000" stroke-width="1" fill="none"></path></g></g><g stroke-linecap="round"><g transform="translate(176.05579266289612 56.50963025215333) rotate(0 4.774874173677887 4.774874173677858)" fill-rule="evenodd"><path d="M0 0 L9.55 0 L9.55 9.55 L0 9.55 L0 0" stroke="none" stroke-width="0" fill="#aecbfa" fill-rule="evenodd"></path><path d="M0 0 C3.32 0, 6.63 0, 9.55 0 M0 0 C2.11 0, 4.22 0, 9.55 0 M9.55 0 C9.55 3.36, 9.55 6.73, 9.55 9.55 M9.55 0 C9.55 2.31, 9.55 4.62, 9.55 9.55 M9.55 9.55 C7.63 9.55, 5.72 9.55, 0 9.55 M9.55 9.55 C7.18 9.55, 4.81 9.55, 0 9.55 M0 9.55 C0 7.38, 0 5.22, 0 0 M0 9.55 C0 6.09, 0 2.63, 0 0 M0 0 C0 0, 0 0, 0 0 M0 0 C0 0, 0 0, 0 0" stroke="#00000000" stroke-width="1" fill="none"></path></g></g><g stroke-linecap="round"><g transform="translate(203.11341298040406 34.22688410832325) rotate(0 2.3874370868389434 4.774874173677858)" fill-rule="evenodd"><path d="M0 0 L4.77 0 L4.77 9.55 L0 9.55 L0 0" stroke="none" stroke-width="0" fill="#669df6" fill-rule="evenodd"></path><path d="M0 0 C0.97 0, 1.94 0, 4.77 0 M0 0 C1.8 0, 3.6 0, 4.77 0 M4.77 0 C4.77 2.51, 4.77 5.02, 4.77 9.55 M4.77 0 C4.77 2.75, 4.77 5.49, 4.77 9.55 M4.77 9.55 C3.74 9.55, 2.7 9.55, 0 9.55 M4.77 9.55 C2.91 9.55, 1.05 9.55, 0 9.55 M0 9.55 C0 6.6, 0 3.65, 0 0 M0 9.55 C0 6.7, 0 3.85, 0 0 M0 0 C0 0, 0 0, 0 0 M0 0 C0 0, 0 0, 0 0" stroke="#00000000" stroke-width="1" fill="none"></path></g></g><g stroke-linecap="round"><g transform="translate(203.11341298040406 56.50963025215333) rotate(0 2.3874370868389434 4.774874173677858)" fill-rule="evenodd"><path d="M0 0 L4.77 0 L4.77 9.55 L0 9.55 L0 0" stroke="none" stroke-width="0" fill="#669df6" fill-rule="evenodd"></path><path d="M0 0 C1.07 0, 2.13 0, 4.77 0 M0 0 C1.8 0, 3.6 0, 4.77 0 M4.77 0 C4.77 3.13, 4.77 6.25, 4.77 9.55 M4.77 0 C4.77 2.82, 4.77 5.64, 4.77 9.55 M4.77 9.55 C3.1 9.55, 1.42 9.55, 0 9.55 M4.77 9.55 C3.53 9.55, 2.28 9.55, 0 9.55 M0 9.55 C0 7.38, 0 5.21, 0 0 M0 9.55 C0 6.81, 0 4.08, 0 0 M0 0 C0 0, 0 0, 0 0 M0 0 C0 0, 0 0, 0 0" stroke="#00000000" stroke-width="1" fill="none"></path></g></g><g stroke-linecap="round"><g transform="translate(180.8306668365738 34.22688410832325) rotate(0 2.3874370868389434 4.774874173677858)" fill-rule="evenodd"><path d="M0 0 L4.77 0 L4.77 9.55 L0 9.55 L0 0" stroke="none" stroke-width="0" fill="#669df6" fill-rule="evenodd"></path><path d="M0 0 C1.09 0, 2.18 0, 4.77 0 M0 0 C1 0, 1.99 0, 4.77 0 M4.77 0 C4.77 2.65, 4.77 5.3, 4.77 9.55 M4.77 0 C4.77 1.93, 4.77 3.85, 4.77 9.55 M4.77 9.55 C3.42 9.55, 2.07 9.55, 0 9.55 M4.77 9.55 C3.69 9.55, 2.61 9.55, 0 9.55 M0 9.55 C0 6.46, 0 3.38, 0 0 M0 9.55 C0 6.2, 0 2.84, 0 0 M0 0 C0 0, 0 0, 0 0 M0 0 C0 0, 0 0, 0 0" stroke="#00000000" stroke-width="1" fill="none"></path></g></g><g stroke-linecap="round"><g transform="translate(180.8306668365738 56.50963025215333) rotate(0 2.3874370868389434 4.774874173677858)" fill-rule="evenodd"><path d="M0 0 L4.77 0 L4.77 9.55 L0 9.55 L0 0" stroke="none" stroke-width="0" fill="#669df6" fill-rule="evenodd"></path><path d="M0 0 C1.44 0, 2.89 0, 4.77 0 M0 0 C1.78 0, 3.56 0, 4.77 0 M4.77 0 C4.77 2.87, 4.77 5.75, 4.77 9.55 M4.77 0 C4.77 3.01, 4.77 6.03, 4.77 9.55 M4.77 9.55 C2.97 9.55, 1.17 9.55, 0 9.55 M4.77 9.55 C3.13 9.55, 1.48 9.55, 0 9.55 M0 9.55 C0 6.48, 0 3.41, 0 0 M0 9.55 C0 6.2, 0 2.85, 0 0 M0 0 C0 0, 0 0, 0 0 M0 0 C0 0, 0 0, 0 0" stroke="#00000000" stroke-width="1" fill="none"></path></g></g><g stroke-linecap="round"><g transform="translate(185.60554101025178 37.41013355744167) rotate(0 6.366498898237182 1.5916247245592672)" fill-rule="evenodd"><path d="M0 0 L12.73 0 L12.73 3.18 L0 3.18 L0 0" stroke="none" stroke-width="0" fill="#669df6" fill-rule="evenodd"></path><path d="M0 0 C4.03 0, 8.05 0, 12.73 0 M0 0 C3.93 0, 7.85 0, 12.73 0 M12.73 0 C12.73 1.25, 12.73 2.5, 12.73 3.18 M12.73 0 C12.73 0.78, 12.73 1.56, 12.73 3.18 M12.73 3.18 C8.88 3.18, 5.03 3.18, 0 3.18 M12.73 3.18 C8.87 3.18, 5 3.18, 0 3.18 M0 3.18 C0 2.39, 0 1.59, 0 0 M0 3.18 C0 2.34, 0 1.49, 0 0 M0 0 C0 0, 0 0, 0 0 M0 0 C0 0, 0 0, 0 0" stroke="#00000000" stroke-width="1" fill="none"></path></g></g><g stroke-linecap="round"><g transform="translate(185.60554101025178 59.692879701272204) rotate(0 6.366498898237182 1.5916257026868266)" fill-rule="evenodd"><path d="M0 0 L12.73 0 L12.73 3.18 L0 3.18 L0 0" stroke="none" stroke-width="0" fill="#669df6" fill-rule="evenodd"></path><path d="M0 0 C4.08 0, 8.16 0, 12.73 0 M0 0 C4.56 0, 9.12 0, 12.73 0 M12.73 0 C12.73 1.01, 12.73 2.02, 12.73 3.18 M12.73 0 C12.73 1.01, 12.73 2.03, 12.73 3.18 M12.73 3.18 C10.06 3.18, 7.4 3.18, 0 3.18 M12.73 3.18 C8.25 3.18, 3.76 3.18, 0 3.18 M0 3.18 C0 2.53, 0 1.88, 0 0 M0 3.18 C0 2.17, 0 1.17, 0 0 M0 0 C0 0, 0 0, 0 0 M0 0 C0 0, 0 0, 0 0" stroke="#00000000" stroke-width="1" fill="none"></path></g></g><g stroke-linecap="round"><g transform="translate(201.52178825584474 43.77663245567919) rotate(0 1.5916257026867981 6.366498898237182)" fill-rule="evenodd"><path d="M0 0 L3.18 0 L3.18 12.73 L0 12.73 L0 0" stroke="none" stroke-width="0" fill="#669df6" fill-rule="evenodd"></path><path d="M0 0 C0.9 0, 1.8 0, 3.18 0 M0 0 C1.06 0, 2.13 0, 3.18 0 M3.18 0 C3.18 2.65, 3.18 5.3, 3.18 12.73 M3.18 0 C3.18 3.69, 3.18 7.37, 3.18 12.73 M3.18 12.73 C2.12 12.73, 1.05 12.73, 0 12.73 M3.18 12.73 C2.27 12.73, 1.36 12.73, 0 12.73 M0 12.73 C0 7.9, 0 3.06, 0 0 M0 12.73 C0 7.92, 0 3.1, 0 0 M0 0 C0 0, 0 0, 0 0 M0 0 C0 0, 0 0, 0 0" stroke="#00000000" stroke-width="1" fill="none"></path></g></g><g stroke-linecap="round"><g transform="translate(179.23904211201477 43.77663245567919) rotate(0 1.5916247245592956 6.366498898237182)" fill-rule="evenodd"><path d="M0 0 L3.18 0 L3.18 12.73 L0 12.73 L0 0" stroke="none" stroke-width="0" fill="#669df6" fill-rule="evenodd"></path><path d="M0 0 C1.04 0, 2.08 0, 3.18 0 M0 0 C0.93 0, 1.86 0, 3.18 0 M3.18 0 C3.18 3.41, 3.18 6.81, 3.18 12.73 M3.18 0 C3.18 3.1, 3.18 6.21, 3.18 12.73 M3.18 12.73 C2.35 12.73, 1.53 12.73, 0 12.73 M3.18 12.73 C2.31 12.73, 1.44 12.73, 0 12.73 M0 12.73 C0 7.78, 0 2.83, 0 0 M0 12.73 C0 10.17, 0 7.61, 0 0 M0 0 C0 0, 0 0, 0 0 M0 0 C0 0, 0 0, 0 0" stroke="#00000000" stroke-width="1" fill="none"></path></g></g><g stroke-linecap="round"><g transform="translate(179.23904211201477 43.77663245567919) rotate(0 1.5916247245592956 1.5916247245592672)" fill-rule="evenodd"><path d="M0 0 L3.18 0 L3.18 3.18 L0 3.18 L0 0" stroke="none" stroke-width="0" fill="#4285f4" fill-rule="evenodd"></path><path d="M0 0 C1 0, 2 0, 3.18 0 M0 0 C1.19 0, 2.38 0, 3.18 0 M3.18 0 C3.18 1.01, 3.18 2.01, 3.18 3.18 M3.18 0 C3.18 1.19, 3.18 2.37, 3.18 3.18 M3.18 3.18 C2.09 3.18, 0.99 3.18, 0 3.18 M3.18 3.18 C2.43 3.18, 1.67 3.18, 0 3.18 M0 3.18 C0 2.15, 0 1.12, 0 0 M0 3.18 C0 2.04, 0 0.91, 0 0 M0 0 C0 0, 0 0, 0 0 M0 0 C0 0, 0 0, 0 0" stroke="#00000000" stroke-width="1" fill="none"></path></g></g><g stroke-linecap="round"><g transform="translate(201.52178825584474 43.77663245567919) rotate(0 1.5916257026867981 1.5916247245592672)" fill-rule="evenodd"><path d="M0 0 L3.18 0 L3.18 3.18 L0 3.18 L0 0" stroke="none" stroke-width="0" fill="#4285f4" fill-rule="evenodd"></path><path d="M0 0 C0.91 0, 1.81 0, 3.18 0 M0 0 C0.92 0, 1.84 0, 3.18 0 M3.18 0 C3.18 1.25, 3.18 2.5, 3.18 3.18 M3.18 0 C3.18 0.64, 3.18 1.28, 3.18 3.18 M3.18 3.18 C2.46 3.18, 1.74 3.18, 0 3.18 M3.18 3.18 C1.94 3.18, 0.7 3.18, 0 3.18 M0 3.18 C0 2.22, 0 1.25, 0 0 M0 3.18 C0 2.16, 0 1.13, 0 0 M0 0 C0 0, 0 0, 0 0 M0 0 C0 0, 0 0, 0 0" stroke="#00000000" stroke-width="1" fill="none"></path></g></g><g stroke-linecap="round"><g transform="translate(185.60554101025178 37.41013355744167) rotate(0 1.5916247245592956 1.5916247245592672)" fill-rule="evenodd"><path d="M0 0 L3.18 0 L3.18 3.18 L0 3.18 L0 0" stroke="none" stroke-width="0" fill="#4285f4" fill-rule="evenodd"></path><path d="M0 0 C0.7 0, 1.41 0, 3.18 0 M0 0 C1.12 0, 2.24 0, 3.18 0 M3.18 0 C3.18 0.77, 3.18 1.54, 3.18 3.18 M3.18 0 C3.18 0.64, 3.18 1.28, 3.18 3.18 M3.18 3.18 C2.39 3.18, 1.6 3.18, 0 3.18 M3.18 3.18 C2.46 3.18, 1.74 3.18, 0 3.18 M0 3.18 C0 2.03, 0 0.88, 0 0 M0 3.18 C0 2.19, 0 1.2, 0 0 M0 0 C0 0, 0 0, 0 0 M0 0 C0 0, 0 0, 0 0" stroke="#00000000" stroke-width="1" fill="none"></path></g></g><g stroke-linecap="round"><g transform="translate(185.60554101025178 59.692879701272204) rotate(0 1.5916247245592956 1.5916257026868266)" fill-rule="evenodd"><path d="M0 0 L3.18 0 L3.18 3.18 L0 3.18 L0 0" stroke="none" stroke-width="0" fill="#4285f4" fill-rule="evenodd"></path><path d="M0 0 C1.2 0, 2.4 0, 3.18 0 M0 0 C0.84 0, 1.67 0, 3.18 0 M3.18 0 C3.18 0.92, 3.18 1.83, 3.18 3.18 M3.18 0 C3.18 0.69, 3.18 1.38, 3.18 3.18 M3.18 3.18 C1.94 3.18, 0.7 3.18, 0 3.18 M3.18 3.18 C2.2 3.18, 1.22 3.18, 0 3.18 M0 3.18 C0 2.23, 0 1.28, 0 0 M0 3.18 C0 2.4, 0 1.62, 0 0 M0 0 C0 0, 0 0, 0 0 M0 0 C0 0, 0 0, 0 0" stroke="#00000000" stroke-width="1" fill="none"></path></g></g><g stroke-linecap="round" transform="translate(298.49557522123945 110) rotate(0 88.5 39)"><path d="M19.5 0 L157.5 0 L166.03 1.22 L172.13 4.88 L174.26 7.62 L176.7 14.93 L177 58.5 L175.78 67.03 L174.26 70.38 L169.38 75.26 L166.03 76.78 L157.5 78 L19.5 78 L10.97 76.78 L4.88 73.13 L2.74 70.38 L0.3 63.07 L0.3 14.93 L1.22 10.97 L4.88 4.88 L10.97 1.22 L19.5 0" stroke="none" stroke-width="0" fill="#FFF"></path><path d="M19.5 0 M19.5 0 C60.97 0, 102.45 0, 157.5 0 M19.5 0 C73.48 0, 127.46 0, 157.5 0 M157.5 0 C170.5 0, 177 6.5, 177 19.5 M157.5 0 C170.5 0, 177 6.5, 177 19.5 M177 19.5 C177 34.39, 177 49.28, 177 58.5 M177 19.5 C177 33.9, 177 48.3, 177 58.5 M177 58.5 C177 71.5, 170.5 78, 157.5 78 M177 58.5 C177 71.5, 170.5 78, 157.5 78 M157.5 78 C111.86 78, 66.23 78, 19.5 78 M157.5 78 C120.56 78, 83.62 78, 19.5 78 M19.5 78 C6.5 78, 0 71.5, 0 58.5 M19.5 78 C6.5 78, 0 71.5, 0 58.5 M0 58.5 C0 48.12, 0 37.74, 0 19.5 M0 58.5 C0 48.74, 0 38.97, 0 19.5 M0 19.5 C0 6.5, 6.5 0, 19.5 0 M0 19.5 C0 6.5, 6.5 0, 19.5 0" stroke="#4285f4" stroke-width="2" fill="none"></path></g><g transform="translate(358.49557522123945 125) rotate(0 24 7)"><text x="0" y="11" font-family="Helvetica, Segoe UI Emoji" font-size="12px" fill="#B5B9BF" text-anchor="start" style="white-space: pre;" direction="ltr">standard</text></g><g transform="translate(358.49557522123945 137.5) rotate(0 21.5 11.5)"><text x="0" y="18" font-family="Helvetica, Segoe UI Emoji" font-size="20px" fill="#000000" text-anchor="start" style="white-space: pre;" direction="ltr">GKE</text></g><g transform="translate(358.49557522123945 157) rotate(0 38 7)"><text x="0" y="11" font-family="Helvetica, Segoe UI Emoji" font-size="12px" fill="#B5B9BF" text-anchor="start" style="white-space: pre;" direction="ltr">private-cluster</text></g><g stroke-linecap="round"><g transform="translate(331.23504856413496 132.86315786838531) rotate(0 -0.009210586547851562 16.50986737012863)" fill-rule="evenodd"><path d="M0 0 L-14.54 8.26 L-14.54 24.75 L-0.03 33.02 L14.52 24.69 L14.52 8.11 L0 0" stroke="none" stroke-width="0" fill="#aecbfa" fill-rule="evenodd"></path><path d="M0 0 C-5.62 3.2, -11.25 6.39, -14.54 8.26 M0 0 C-4.53 2.57, -9.06 5.15, -14.54 8.26 M-14.54 8.26 C-14.54 14.84, -14.54 21.43, -14.54 24.75 M-14.54 8.26 C-14.54 13.8, -14.54 19.33, -14.54 24.75 M-14.54 24.75 C-10.75 26.91, -6.96 29.07, -0.03 33.02 M-14.54 24.75 C-11.46 26.5, -8.39 28.26, -0.03 33.02 M-0.03 33.02 C3.03 31.27, 6.09 29.52, 14.52 24.69 M-0.03 33.02 C5.1 30.09, 10.23 27.15, 14.52 24.69 M14.52 24.69 C14.52 20.24, 14.52 15.79, 14.52 8.11 M14.52 24.69 C14.52 20.91, 14.52 17.13, 14.52 8.11 M14.52 8.11 C9.74 5.43, 4.95 2.76, 0 0 M14.52 8.11 C9.66 5.39, 4.79 2.67, 0 0 M0 0 C0 0, 0 0, 0 0 M0 0 C0 0, 0 0, 0 0" stroke="#00000000" stroke-width="1" fill="none"></path></g></g><g stroke-linecap="round"><g transform="translate(331.2442591506828 136.45526313781738) rotate(0 -0.01842212677001953 12.913158416748047)" fill-rule="evenodd"><path d="M0 0 L-11.42 6.49 L-11.42 19.33 L-0.05 25.83 L11.38 19.29 L11.38 6.36 L0 0" stroke="none" stroke-width="0" fill="#fff" fill-rule="evenodd"></path><path d="M0 0 C-2.94 1.67, -5.87 3.34, -11.42 6.49 M0 0 C-4.25 2.41, -8.49 4.83, -11.42 6.49 M-11.42 6.49 C-11.42 11.11, -11.42 15.73, -11.42 19.33 M-11.42 6.49 C-11.42 10.56, -11.42 14.62, -11.42 19.33 M-11.42 19.33 C-8.8 20.83, -6.17 22.33, -0.05 25.83 M-11.42 19.33 C-9 20.71, -6.58 22.1, -0.05 25.83 M-0.05 25.83 C2.94 24.12, 5.93 22.41, 11.38 19.29 M-0.05 25.83 C2.33 24.47, 4.71 23.11, 11.38 19.29 M11.38 19.29 C11.38 15.16, 11.38 11.04, 11.38 6.36 M11.38 19.29 C11.38 15.99, 11.38 12.69, 11.38 6.36 M11.38 6.36 C8.99 5.02, 6.6 3.68, 0 0 M11.38 6.36 C6.89 3.85, 2.4 1.34, 0 0 M0 0 C0 0, 0 0, 0 0 M0 0 C0 0, 0 0, 0 0" stroke="#00000000" stroke-width="1" fill="none"></path></g></g><g stroke-linecap="round"><g transform="translate(331.9534685928215 149.76447296142578) rotate(0 3.2282896041870117 1.9250006675720215)" fill-rule="evenodd"><path d="M0 0 L0 7.67 L6.46 3.89 L6.46 -3.82 L0 0" stroke="none" stroke-width="0" fill="#4285f4" fill-rule="evenodd"></path><path d="M0 0 C0 1.69, 0 3.39, 0 7.67 M0 0 C0 2.91, 0 5.81, 0 7.67 M0 7.67 C2.35 6.3, 4.69 4.92, 6.46 3.89 M0 7.67 C2.38 6.28, 4.76 4.88, 6.46 3.89 M6.46 3.89 C6.46 1.76, 6.46 -0.37, 6.46 -3.82 M6.46 3.89 C6.46 2.3, 6.46 0.72, 6.46 -3.82 M6.46 -3.82 C4.41 -2.61, 2.36 -1.4, 0 0 M6.46 -3.82 C4.42 -2.61, 2.37 -1.41, 0 0 M0 0 C0 0, 0 0, 0 0 M0 0 C0 0, 0 0, 0 0" stroke="#00000000" stroke-width="1" fill="none"></path></g></g><g stroke-linecap="round"><g transform="translate(324.6218912917961 144.6986846923828) rotate(0 6.603947639465332 0.01381540298461914)" fill-rule="evenodd"><path d="M0 0 L6.55 3.79 L13.21 -0.01 L6.55 -3.77 L0 0" stroke="none" stroke-width="0" fill="#aecbfa" fill-rule="evenodd"></path><path d="M0 0 C2.37 1.38, 4.75 2.75, 6.55 3.79 M0 0 C2.11 1.22, 4.22 2.44, 6.55 3.79 M6.55 3.79 C7.93 3.01, 9.31 2.22, 13.21 -0.01 M6.55 3.79 C8.65 2.6, 10.75 1.4, 13.21 -0.01 M13.21 -0.01 C10.6 -1.48, 8 -2.95, 6.55 -3.77 M13.21 -0.01 C11.62 -0.9, 10.04 -1.8, 6.55 -3.77 M6.55 -3.77 C4.13 -2.38, 1.71 -0.99, 0 0 M6.55 -3.77 C5.15 -2.96, 3.74 -2.15, 0 0 M0 0 C0 0, 0 0, 0 0 M0 0 C0 0, 0 0, 0 0" stroke="#00000000" stroke-width="1" fill="none"></path></g></g><g stroke-linecap="round"><g transform="translate(324.0047858077873 145.97894668579102) rotate(0 3.182236671447754 5.728947639465332)" fill-rule="evenodd"><path d="M0 0 L6.41 3.83 L6.41 11.46 L-0.05 7.55 L0 0" stroke="none" stroke-width="0" fill="#669df6" fill-rule="evenodd"></path><path d="M0 0 C1.52 0.91, 3.03 1.81, 6.41 3.83 M0 0 C1.59 0.95, 3.18 1.9, 6.41 3.83 M6.41 3.83 C6.41 5.75, 6.41 7.66, 6.41 11.46 M6.41 3.83 C6.41 6.22, 6.41 8.62, 6.41 11.46 M6.41 11.46 C5.09 10.66, 3.76 9.86, -0.05 7.55 M6.41 11.46 C3.95 9.97, 1.49 8.48, -0.05 7.55 M-0.05 7.55 C-0.03 5.03, -0.02 2.5, 0 0 M-0.05 7.55 C-0.03 4.66, -0.01 1.76, 0 0 M0 0 C0 0, 0 0, 0 0 M0 0 C0 0, 0 0, 0 0" stroke="#00000000" stroke-width="1" fill="none"></path></g></g><g stroke-linecap="round"><g transform="translate(331.9534685928215 141.8526315689087) rotate(0 -0.7414464950561523 -2.6986842155456543)" fill-rule="evenodd"><path d="M0 0 L0 -5 L-0.71 -5.4 L-1.48 -4.95 L-1.48 0 L0 0" stroke="none" stroke-width="0" fill="#aecbfa" fill-rule="evenodd"></path><path d="M0 0 C0 -1.66, 0 -3.31, 0 -5 M0 0 C0 -1.74, 0 -3.49, 0 -5 M0 -5 C-0.19 -5.11, -0.38 -5.22, -0.71 -5.4 M0 -5 C-0.2 -5.11, -0.4 -5.22, -0.71 -5.4 M-0.71 -5.4 C-0.88 -5.3, -1.05 -5.2, -1.48 -4.95 M-0.71 -5.4 C-0.97 -5.25, -1.23 -5.1, -1.48 -4.95 M-1.48 -4.95 C-1.48 -3.49, -1.48 -2.04, -1.48 0 M-1.48 -4.95 C-1.48 -3.1, -1.48 -1.26, -1.48 0 M-1.48 0 C-0.95 0, -0.41 0, 0 0 M-1.48 0 C-1.09 0, -0.7 0, 0 0 M0 0 C0 0, 0 0, 0 0 M0 0 C0 0, 0 0, 0 0" stroke="#00000000" stroke-width="1" fill="none"></path></g></g><g stroke-linecap="round"><g transform="translate(342.628467829882 155.125) rotate(0 -2.9657888412475586 -0.9717111587524414)" fill-rule="evenodd"><path d="M0 0 L-5.24 -3.05 L-5.93 -1.85 L-0.85 1.11 L0 0.62 L0 0" stroke="none" stroke-width="0" fill="#4285f4" fill-rule="evenodd"></path><path d="M0 0 C-1.3 -0.76, -2.61 -1.52, -5.24 -3.05 M0 0 C-1.99 -1.16, -3.98 -2.32, -5.24 -3.05 M-5.24 -3.05 C-5.44 -2.71, -5.63 -2.37, -5.93 -1.85 M-5.24 -3.05 C-5.41 -2.75, -5.59 -2.45, -5.93 -1.85 M-5.93 -1.85 C-4.15 -0.82, -2.37 0.22, -0.85 1.11 M-5.93 -1.85 C-4.36 -0.94, -2.79 -0.03, -0.85 1.11 M-0.85 1.11 C-0.66 0.99, -0.46 0.88, 0 0.62 M-0.85 1.11 C-0.52 0.92, -0.19 0.73, 0 0.62 M0 0.62 C0 0.41, 0 0.21, 0 0 M0 0.62 C0 0.39, 0 0.17, 0 0 M0 0 C0 0, 0 0, 0 0 M0 0 C0 0, 0 0, 0 0" stroke="#00000000" stroke-width="1" fill="none"></path></g></g><g stroke-linecap="round"><g transform="translate(324.87057522123945 152.10394668579102) rotate(0 -2.169079303741455 2.0769729614257812)" fill-rule="evenodd"><path d="M0 0 L-5.05 3.04 L-5.05 3.68 L-4.23 4.15 L0.71 1.19 L0 0" stroke="none" stroke-width="0" fill="#669df6" fill-rule="evenodd"></path><path d="M0 0 C-1.47 0.89, -2.95 1.77, -5.05 3.04 M0 0 C-1.17 0.71, -2.35 1.41, -5.05 3.04 M-5.05 3.04 C-5.05 3.25, -5.05 3.45, -5.05 3.68 M-5.05 3.04 C-5.05 3.23, -5.05 3.43, -5.05 3.68 M-5.05 3.68 C-4.8 3.83, -4.55 3.97, -4.23 4.15 M-5.05 3.68 C-4.73 3.86, -4.42 4.04, -4.23 4.15 M-4.23 4.15 C-2.75 3.27, -1.28 2.38, 0.71 1.19 M-4.23 4.15 C-2.6 3.17, -0.96 2.19, 0.71 1.19 M0.71 1.19 C0.48 0.81, 0.26 0.43, 0 0 M0.71 1.19 C0.52 0.87, 0.33 0.56, 0 0 M0 0 C0 0, 0 0, 0 0 M0 0 C0 0, 0 0, 0 0" stroke="#00000000" stroke-width="1" fill="none"></path></g></g><g stroke-linecap="round" transform="translate(298.49557522123945 330) rotate(0 88.5 39)"><path d="M19.5 0 L157.5 0 L166.03 1.22 L172.13 4.88 L174.26 7.62 L176.7 14.93 L177 58.5 L175.78 67.03 L174.26 70.38 L169.38 75.26 L166.03 76.78 L157.5 78 L19.5 78 L10.97 76.78 L4.88 73.13 L2.74 70.38 L0.3 63.07 L0.3 14.93 L1.22 10.97 L4.88 4.88 L10.97 1.22 L19.5 0" stroke="none" stroke-width="0" fill="#ffffff"></path><path d="M19.5 0 M19.5 0 C53.98 0, 88.46 0, 157.5 0 M19.5 0 C65.21 0, 110.93 0, 157.5 0 M157.5 0 C170.5 0, 177 6.5, 177 19.5 M157.5 0 C170.5 0, 177 6.5, 177 19.5 M177 19.5 C177 30.48, 177 41.46, 177 58.5 M177 19.5 C177 31.67, 177 43.84, 177 58.5 M177 58.5 C177 71.5, 170.5 78, 157.5 78 M177 58.5 C177 71.5, 170.5 78, 157.5 78 M157.5 78 C127.86 78, 98.21 78, 19.5 78 M157.5 78 C102.52 78, 47.53 78, 19.5 78 M19.5 78 C6.5 78, 0 71.5, 0 58.5 M19.5 78 C6.5 78, 0 71.5, 0 58.5 M0 58.5 C0 46.18, 0 33.85, 0 19.5 M0 58.5 C0 49.05, 0 39.61, 0 19.5 M0 19.5 C0 6.5, 6.5 0, 19.5 0 M0 19.5 C0 6.5, 6.5 0, 19.5 0" stroke="#7fabf7" stroke-width="2" fill="none"></path></g><g transform="translate(358.49557522123945 350) rotate(0 33.5 11.5)"><text x="0" y="18" font-family="Helvetica, Segoe UI Emoji" font-size="20px" fill="#000000" text-anchor="start" style="white-space: pre;" direction="ltr">Ingress</text></g><g transform="translate(358.49557522123945 377) rotate(0 55 7)"><text x="0" y="11" font-family="Helvetica, Segoe UI Emoji" font-size="12px" fill="#B5B9BF" text-anchor="start" style="white-space: pre;" direction="ltr">valid DNS ,http/https</text></g><g stroke-linecap="round"><g transform="translate(313.49557522123945 351.5) rotate(0 17.5 17.5)" fill-rule="evenodd"><path d="M0 0 L35 0 L35 35 L0 35 L0 0" stroke="none" stroke-width="0" fill="#00000000" fill-rule="evenodd"></path><path d="M0 0 C7.02 0, 14.04 0, 35 0 M0 0 C7.45 0, 14.89 0, 35 0 M35 0 C35 12.04, 35 24.09, 35 35 M35 0 C35 8.48, 35 16.96, 35 35 M35 35 C24.14 35, 13.29 35, 0 35 M35 35 C25.89 35, 16.79 35, 0 35 M0 35 C0 27.45, 0 19.9, 0 0 M0 35 C0 26.3, 0 17.61, 0 0 M0 0 C0 0, 0 0, 0 0 M0 0 C0 0, 0 0, 0 0" stroke="#00000000" stroke-width="2" fill="none"></path></g></g><g stroke-linecap="round"><g transform="translate(327.7580750305046 367.7749996185303) rotate(0 -2.3406248092651367 -0.4302082061767578)" fill-rule="evenodd"><path d="M0 0 L-2.07 2.07 L-2.07 2.07 L-3.5 0.29 L-4.68 -2.22 L-1.85 -2.93 L-1.85 -2.93 L-1.02 -1.26 L0 0 L0 0" stroke="none" stroke-width="0" fill="#7fabf7" fill-rule="evenodd"></path><path d="M0 0 C-0.51 0.51, -1.01 1.01, -2.07 2.07 M0 0 C-0.65 0.65, -1.31 1.31, -2.07 2.07 M-2.07 2.07 C-2.07 2.07, -2.07 2.07, -2.07 2.07 M-2.07 2.07 C-2.07 2.07, -2.07 2.07, -2.07 2.07 M-2.07 2.07 C-2.55 1.48, -3.03 0.88, -3.5 0.29 M-2.07 2.07 C-2.39 1.68, -2.71 1.28, -3.5 0.29 M-3.5 0.29 C-3.88 -0.5, -4.25 -1.3, -4.68 -2.22 M-3.5 0.29 C-3.83 -0.4, -4.15 -1.09, -4.68 -2.22 M-4.68 -2.22 C-3.9 -2.41, -3.11 -2.61, -1.85 -2.93 M-4.68 -2.22 C-3.63 -2.48, -2.58 -2.75, -1.85 -2.93 M-1.85 -2.93 C-1.85 -2.93, -1.85 -2.93, -1.85 -2.93 M-1.85 -2.93 C-1.85 -2.93, -1.85 -2.93, -1.85 -2.93 M-1.85 -2.93 C-1.64 -2.51, -1.44 -2.09, -1.02 -1.26 M-1.85 -2.93 C-1.66 -2.55, -1.47 -2.16, -1.02 -1.26 M-1.02 -1.26 C-0.62 -0.76, -0.21 -0.25, 0 0 M-1.02 -1.26 C-0.69 -0.84, -0.35 -0.43, 0 0 M0 0 C0 0, 0 0, 0 0 M0 0 C0 0, 0 0, 0 0 M0 0 C0 0, 0 0, 0 0 M0 0 C0 0, 0 0, 0 0" stroke="#00000000" stroke-width="2" fill="none"></path></g></g><g stroke-linecap="round"><g transform="translate(329.53724315947187 360.25) rotate(0 -5.833333969116211 -1.3343745470046997)" fill-rule="evenodd"><path d="M0 0 L-5.83 -5.83 L-11.67 0 L-7.26 0 L-7.26 0 L-6.99 3.16 L-4.16 2.45 L-4.16 2.45 L-4.35 0 L0 0 L0 0" stroke="none" stroke-width="0" fill="#7fabf7" fill-rule="evenodd"></path><path d="M0 0 C-2 -2, -4 -4, -5.83 -5.83 M0 0 C-1.84 -1.84, -3.68 -3.68, -5.83 -5.83 M-5.83 -5.83 C-7.49 -4.17, -9.15 -2.51, -11.67 0 M-5.83 -5.83 C-7.43 -4.24, -9.03 -2.64, -11.67 0 M-11.67 0 C-10.48 0, -9.29 0, -7.26 0 M-11.67 0 C-10.67 0, -9.67 0, -7.26 0 M-7.26 0 C-7.26 0, -7.26 0, -7.26 0 M-7.26 0 C-7.26 0, -7.26 0, -7.26 0 M-7.26 0 C-7.19 0.86, -7.11 1.72, -6.99 3.16 M-7.26 0 C-7.15 1.26, -7.04 2.52, -6.99 3.16 M-6.99 3.16 C-6.39 3.02, -5.8 2.87, -4.16 2.45 M-6.99 3.16 C-6.39 3.01, -5.79 2.86, -4.16 2.45 M-4.16 2.45 C-4.16 2.45, -4.16 2.45, -4.16 2.45 M-4.16 2.45 C-4.16 2.45, -4.16 2.45, -4.16 2.45 M-4.16 2.45 C-4.2 1.9, -4.24 1.36, -4.35 0 M-4.16 2.45 C-4.21 1.82, -4.25 1.19, -4.35 0 M-4.35 0 C-2.94 0, -1.53 0, 0 0 M-4.35 0 C-3.44 0, -2.53 0, 0 0 M0 0 C0 0, 0 0, 0 0 M0 0 C0 0, 0 0, 0 0 M0 0 C0 0, 0 0, 0 0 M0 0 C0 0, 0 0, 0 0" stroke="#00000000" stroke-width="2" fill="none"></path></g></g><g stroke-linecap="round"><g transform="translate(344.12057522123945 360.25) rotate(0 -8.414583206176758 8.750001311302185)" fill-rule="evenodd"><path d="M0 0 L-5.83 -5.83 L-11.67 0 L-7.31 0 L-7.31 0 L-7.43 1.84 L-7.69 3.37 L-8.52 5.68 L-9.68 7.29 L-11.01 8.58 L-13.13 10.84 L-14.77 9.03 L-16.83 11.08 L-16.83 11.08 L-15.2 13.01 L-14.74 14.3 L-14.58 16.04 L-14.58 23.33 L-11.67 23.33 L-11.67 16.04 L-11.67 16.04 L-11.48 14.17 L-10.95 12.82 L-10.13 11.76 L-9.06 10.75 L-7.5 9.25 L-6.03 7.21 L-5.41 5.87 L-4.91 4.25 L-4.56 2.31 L-4.39 0 L0 0 L0 0" stroke="none" stroke-width="0" fill="#7fabf7" fill-rule="evenodd"></path><path d="M0 0 C-1.29 -1.29, -2.59 -2.59, -5.83 -5.83 M0 0 C-1.19 -1.19, -2.38 -2.38, -5.83 -5.83 M-5.83 -5.83 C-7.29 -4.38, -8.75 -2.92, -11.67 0 M-5.83 -5.83 C-7.26 -4.41, -8.68 -2.98, -11.67 0 M-11.67 0 C-10.22 0, -8.78 0, -7.31 0 M-11.67 0 C-10.36 0, -9.04 0, -7.31 0 M-7.31 0 C-7.31 0, -7.31 0, -7.31 0 M-7.31 0 C-7.31 0, -7.31 0, -7.31 0 M-7.31 0 C-7.36 0.73, -7.41 1.47, -7.43 1.84 M-7.31 0 C-7.33 0.38, -7.36 0.77, -7.43 1.84 M-7.43 1.84 C-7.49 2.21, -7.56 2.58, -7.69 3.37 M-7.43 1.84 C-7.51 2.32, -7.59 2.79, -7.69 3.37 M-7.69 3.37 C-7.96 4.12, -8.23 4.87, -8.52 5.68 M-7.69 3.37 C-7.99 4.2, -8.29 5.04, -8.52 5.68 M-8.52 5.68 C-8.8 6.07, -9.08 6.46, -9.68 7.29 M-8.52 5.68 C-8.88 6.17, -9.23 6.67, -9.68 7.29 M-9.68 7.29 C-10.06 7.66, -10.44 8.03, -11.01 8.58 M-9.68 7.29 C-10 7.6, -10.32 7.91, -11.01 8.58 M-11.01 8.58 C-11.71 9.33, -12.42 10.08, -13.13 10.84 M-11.01 8.58 C-11.8 9.42, -12.58 10.26, -13.13 10.84 M-13.13 10.84 C-13.5 10.42, -13.88 10.01, -14.77 9.03 M-13.13 10.84 C-13.59 10.32, -14.06 9.8, -14.77 9.03 M-14.77 9.03 C-15.32 9.57, -15.87 10.12, -16.83 11.08 M-14.77 9.03 C-15.41 9.66, -16.04 10.3, -16.83 11.08 M-16.83 11.08 C-16.83 11.08, -16.83 11.08, -16.83 11.08 M-16.83 11.08 C-16.83 11.08, -16.83 11.08, -16.83 11.08 M-16.83 11.08 C-16.49 11.49, -16.14 11.89, -15.2 13.01 M-16.83 11.08 C-16.47 11.5, -16.12 11.93, -15.2 13.01 M-15.2 13.01 C-15.05 13.43, -14.9 13.84, -14.74 14.3 M-15.2 13.01 C-15.03 13.49, -14.86 13.97, -14.74 14.3 M-14.74 14.3 C-14.7 14.75, -14.66 15.21, -14.58 16.04 M-14.74 14.3 C-14.71 14.65, -14.68 15.01, -14.58 16.04 M-14.58 16.04 C-14.58 18.53, -14.58 21.02, -14.58 23.33 M-14.58 16.04 C-14.58 18.55, -14.58 21.06, -14.58 23.33 M-14.58 23.33 C-13.6 23.33, -12.61 23.33, -11.67 23.33 M-14.58 23.33 C-13.81 23.33, -13.03 23.33, -11.67 23.33 M-11.67 23.33 C-11.67 21.37, -11.67 19.41, -11.67 16.04 M-11.67 23.33 C-11.67 20.84, -11.67 18.35, -11.67 16.04 M-11.67 16.04 C-11.67 16.04, -11.67 16.04, -11.67 16.04 M-11.67 16.04 C-11.67 16.04, -11.67 16.04, -11.67 16.04 M-11.67 16.04 C-11.62 15.62, -11.58 15.2, -11.48 14.17 M-11.67 16.04 C-11.62 15.56, -11.57 15.07, -11.48 14.17 M-11.48 14.17 C-11.29 13.7, -11.11 13.22, -10.95 12.82 M-11.48 14.17 C-11.29 13.69, -11.11 13.21, -10.95 12.82 M-10.95 12.82 C-10.71 12.51, -10.47 12.19, -10.13 11.76 M-10.95 12.82 C-10.67 12.46, -10.39 12.09, -10.13 11.76 M-10.13 11.76 C-9.76 11.41, -9.39 11.06, -9.06 10.75 M-10.13 11.76 C-9.7 11.36, -9.28 10.96, -9.06 10.75 M-9.06 10.75 C-8.68 10.38, -8.3 10.02, -7.5 9.25 M-9.06 10.75 C-8.61 10.32, -8.17 9.89, -7.5 9.25 M-7.5 9.25 C-7.11 8.7, -6.72 8.15, -6.03 7.21 M-7.5 9.25 C-6.99 8.54, -6.48 7.83, -6.03 7.21 M-6.03 7.21 C-5.9 6.93, -5.78 6.65, -5.41 5.87 M-6.03 7.21 C-5.82 6.75, -5.61 6.29, -5.41 5.87 M-5.41 5.87 C-5.28 5.45, -5.15 5.03, -4.91 4.25 M-5.41 5.87 C-5.3 5.5, -5.19 5.14, -4.91 4.25 M-4.91 4.25 C-4.77 3.48, -4.63 2.71, -4.56 2.31 M-4.91 4.25 C-4.84 3.84, -4.76 3.44, -4.56 2.31 M-4.56 2.31 C-4.51 1.68, -4.47 1.05, -4.39 0 M-4.56 2.31 C-4.5 1.53, -4.44 0.75, -4.39 0 M-4.39 0 C-2.68 0, -0.96 0, 0 0 M-4.39 0 C-2.9 0, -1.41 0, 0 0 M0 0 C0 0, 0 0, 0 0 M0 0 C0 0, 0 0, 0 0 M0 0 C0 0, 0 0, 0 0 M0 0 C0 0, 0 0, 0 0" stroke="#00000000" stroke-width="2" fill="none"></path></g></g><g stroke-linecap="round" transform="translate(738.4955752212395 350) rotate(0 172 140)"><path d="M70 0 L282.48 0.27 L297.79 2.46 L310.91 6.84 L316.66 9.84 L326.5 17.5 L334.16 27.34 L339.63 39.37 L342.91 53.59 L344 70 L343.73 218.48 L342.91 226.41 L339.63 240.62 L334.16 252.66 L326.5 262.5 L316.66 270.16 L304.63 275.62 L290.41 278.91 L274 280 L61.52 279.73 L46.21 277.54 L33.09 273.16 L22.15 266.6 L17.5 262.5 L13.4 257.85 L6.84 246.91 L2.46 233.79 L0.27 218.48 L0 70 L0.27 61.52 L2.46 46.21 L6.84 33.09 L9.84 27.34 L13.4 22.15 L22.15 13.4 L33.09 6.84 L46.21 2.46 L53.59 1.09 L70 0" stroke="none" stroke-width="0" fill="#7fabf7"></path><path d="M70 0 M70 0 C118.65 0, 167.3 0, 274 0 M70 0 C145 0, 220 0, 274 0 M274 0 C320.67 0, 344 23.33, 344 70 M274 0 C320.67 0, 344 23.33, 344 70 M344 70 C344 113.07, 344 156.14, 344 210 M344 70 C344 111.43, 344 152.85, 344 210 M344 210 C344 256.67, 320.67 280, 274 280 M344 210 C344 256.67, 320.67 280, 274 280 M274 280 C222.8 280, 171.6 280, 70 280 M274 280 C202.97 280, 131.93 280, 70 280 M70 280 C23.33 280, 0 256.67, 0 210 M70 280 C23.33 280, 0 256.67, 0 210 M0 210 C0 170.01, 0 130.03, 0 70 M0 210 C0 179.89, 0 149.77, 0 70 M0 70 C0 23.33, 23.33 0, 70 0 M0 70 C0 23.33, 23.33 0, 70 0" stroke="#495057" stroke-width="1" fill="none"></path></g><g stroke-linecap="round" transform="translate(798.4955752212393 330) rotate(0 118.00000000000017 30)"><path d="M15 0 L224.52 0.23 L227.56 0.94 L232.25 3.75 L235.06 8.44 L236 15 L235.77 48.52 L235.06 51.56 L232.25 56.25 L227.56 59.06 L221 60 L11.48 59.77 L5.86 57.89 L3.75 56.25 L0.94 51.56 L0 45 L0 15 L0.94 8.44 L3.75 3.75 L8.44 0.94 L15 0" stroke="none" stroke-width="0" fill="#ffffff"></path><path d="M15 0 M15 0 C60.46 0, 105.92 0, 221 0 M15 0 C94.38 0, 173.76 0, 221 0 M221 0 C231 0, 236 5, 236 15 M221 0 C231 0, 236 5, 236 15 M236 15 C236 26.84, 236 38.67, 236 45 M236 15 C236 21.79, 236 28.57, 236 45 M236 45 C236 55, 231 60, 221 60 M236 45 C236 55, 231 60, 221 60 M221 60 C142.68 60, 64.37 60, 15 60 M221 60 C141.69 60, 62.37 60, 15 60 M15 60 C5 60, 0 55, 0 45 M15 60 C5 60, 0 55, 0 45 M0 45 C0 35.89, 0 26.77, 0 15 M0 45 C0 36.81, 0 28.62, 0 15 M0 15 C0 5, 5 0, 15 0 M0 15 C0 5, 5 0, 15 0" stroke="#495057" stroke-width="1" fill="none"></path></g><g transform="translate(803.4955752212393 344) rotate(0 113.00000000000017 16)"><text x="113.00000000000014" y="25" font-family="Helvetica, Segoe UI Emoji" font-size="28px" fill="#495057" text-anchor="middle" style="white-space: pre;" direction="ltr">Microservice</text></g><g stroke-linecap="round" transform="translate(758.4955752212395 450) rotate(0 60 16.5)"><path d="M8.25 0 L115.36 0.52 L117.94 2.06 L119.48 4.64 L120 8.25 L119.48 28.36 L117.94 30.94 L115.36 32.48 L111.75 33 L4.64 32.48 L2.06 30.94 L0.52 28.36 L0 8.25 L0.52 4.64 L2.06 2.06 L4.64 0.52 L8.25 0" stroke="none" stroke-width="0" fill="#ffffff"></path><path d="M8.25 0 M8.25 0 C43.49 0, 78.72 0, 111.75 0 M8.25 0 C42.68 0, 77.1 0, 111.75 0 M111.75 0 C117.25 0, 120 2.75, 120 8.25 M111.75 0 C117.25 0, 120 2.75, 120 8.25 M120 8.25 C120 12.36, 120 16.47, 120 24.75 M120 8.25 C120 12.9, 120 17.56, 120 24.75 M120 24.75 C120 30.25, 117.25 33, 111.75 33 M120 24.75 C120 30.25, 117.25 33, 111.75 33 M111.75 33 C88.04 33, 64.33 33, 8.25 33 M111.75 33 C79.4 33, 47.05 33, 8.25 33 M8.25 33 C2.75 33, 0 30.25, 0 24.75 M8.25 33 C2.75 33, 0 30.25, 0 24.75 M0 24.75 C0 19.68, 0 14.6, 0 8.25 M0 24.75 C0 18.23, 0 11.71, 0 8.25 M0 8.25 C0 2.75, 2.75 0, 8.25 0 M0 8.25 C0 2.75, 2.75 0, 8.25 0" stroke="#495057" stroke-width="1" fill="none"></path></g><g transform="translate(763.4955752212395 455) rotate(0 55 11.5)"><text x="55" y="18" font-family="Helvetica, Segoe UI Emoji" font-size="20px" fill="#495057" text-anchor="middle" style="white-space: pre;" direction="ltr">Service</text></g><g stroke-linecap="round" transform="translate(918.4955752212395 450) rotate(0 77.99999999999989 16.5)"><path d="M8.25 0 L147.75 0 L151.36 0.52 L153.94 2.06 L155.48 4.64 L156 8.25 L155.48 28.36 L153.94 30.94 L151.36 32.48 L147.75 33 L8.25 33 L4.64 32.48 L2.06 30.94 L0.52 28.36 L0 8.25 L0.52 4.64 L2.06 2.06 L4.64 0.52 L8.25 0" stroke="none" stroke-width="0" fill="#ffffff"></path><path d="M8.25 0 M8.25 0 C60.79 0, 113.32 0, 147.75 0 M8.25 0 C62.99 0, 117.74 0, 147.75 0 M147.75 0 C153.25 0, 156 2.75, 156 8.25 M147.75 0 C153.25 0, 156 2.75, 156 8.25 M156 8.25 C156 11.88, 156 15.52, 156 24.75 M156 8.25 C156 12.67, 156 17.08, 156 24.75 M156 24.75 C156 30.25, 153.25 33, 147.75 33 M156 24.75 C156 30.25, 153.25 33, 147.75 33 M147.75 33 C98.86 33, 49.97 33, 8.25 33 M147.75 33 C92.57 33, 37.39 33, 8.25 33 M8.25 33 C2.75 33, 0 30.25, 0 24.75 M8.25 33 C2.75 33, 0 30.25, 0 24.75 M0 24.75 C0 19.22, 0 13.69, 0 8.25 M0 24.75 C0 20.11, 0 15.46, 0 8.25 M0 8.25 C0 2.75, 2.75 0, 8.25 0 M0 8.25 C0 2.75, 2.75 0, 8.25 0" stroke="#495057" stroke-width="1" fill="none"></path></g><g transform="translate(923.4955752212395 455) rotate(0 72.99999999999989 11.5)"><text x="72.99999999999989" y="18" font-family="Helvetica, Segoe UI Emoji" font-size="20px" fill="#495057" text-anchor="middle" style="white-space: pre;" direction="ltr">Deployment</text></g><g stroke-linecap="round" transform="translate(838.4955752212395 550) rotate(0 70 16.5)"><path d="M8.25 0 L131.75 0 L135.36 0.52 L137.94 2.06 L139.48 4.64 L140 8.25 L139.48 28.36 L137.94 30.94 L135.36 32.48 L131.75 33 L8.25 33 L4.64 32.48 L2.06 30.94 L0.52 28.36 L0 8.25 L0.52 4.64 L2.06 2.06 L4.64 0.52 L8.25 0" stroke="none" stroke-width="0" fill="#ffffff"></path><path d="M8.25 0 M8.25 0 C49.13 0, 90.01 0, 131.75 0 M8.25 0 C48.47 0, 88.69 0, 131.75 0 M131.75 0 C137.25 0, 140 2.75, 140 8.25 M131.75 0 C137.25 0, 140 2.75, 140 8.25 M140 8.25 C140 11.59, 140 14.92, 140 24.75 M140 8.25 C140 14.63, 140 21.01, 140 24.75 M140 24.75 C140 30.25, 137.25 33, 131.75 33 M140 24.75 C140 30.25, 137.25 33, 131.75 33 M131.75 33 C104.94 33, 78.13 33, 8.25 33 M131.75 33 C84.38 33, 37.01 33, 8.25 33 M8.25 33 C2.75 33, 0 30.25, 0 24.75 M8.25 33 C2.75 33, 0 30.25, 0 24.75 M0 24.75 C0 19.31, 0 13.88, 0 8.25 M0 24.75 C0 19.21, 0 13.67, 0 8.25 M0 8.25 C0 2.75, 2.75 0, 8.25 0 M0 8.25 C0 2.75, 2.75 0, 8.25 0" stroke="#495057" stroke-width="1" fill="none"></path></g><g transform="translate(843.4955752212395 555) rotate(0 65 11.5)"><text x="65.00000000000001" y="18" font-family="Helvetica, Segoe UI Emoji" font-size="20px" fill="#495057" text-anchor="middle" style="white-space: pre;" direction="ltr">Health Check</text></g><g transform="translate(818.4955752212395 490) rotate(0 30 8)"><text x="0" y="13" font-family="Helvetica, Segoe UI Emoji" font-size="13.913043478260835px" fill="#ffff" text-anchor="start" style="white-space: pre;" direction="ltr">NodePort</text></g><g stroke-linecap="round"><g transform="translate(879.4955752212395 472.01994898632074) rotate(0 19 -0.11150603683336158)"><path d="M0 0 C14.15 -0.08, 28.3 -0.17, 38 -0.22" stroke="#7fabf7" stroke-width="1.5" fill="none" stroke-dasharray="8 9"></path></g><g transform="translate(879.4955752212395 472.01994898632074) rotate(0 19 -0.11150603683336158)"><path d="M38 -0.22 L24.44 6.2 L24.37 -6.48 L38 -0.22" stroke="none" stroke-width="0" fill="#7fabf7" fill-rule="evenodd"></path><path d="M38 -0.22 C32.95 2.17, 27.9 4.56, 24.44 6.2 M24.44 6.2 C24.41 1.26, 24.38 -3.67, 24.37 -6.48 M24.37 -6.48 C28.47 -4.6, 32.58 -2.71, 38 -0.22 M38 -0.22 C38 -0.22, 38 -0.22, 38 -0.22" stroke="#7fabf7" stroke-width="1.5" fill="none"></path></g></g><g transform="translate(18.49557522123945 390) rotate(0 30 13.125)"><text x="0" y="20.24999999999999" font-family="Helvetica, Segoe UI Emoji" font-size="22.499999999999993px" fill="#7fabf7" text-anchor="start" style="white-space: pre;" direction="ltr">Users</text></g><g stroke-linecap="round"><g transform="translate(62.3967549653177 355.29498446304126) rotate(0 -0.018065798599110394 -9.033922516139171)" fill-rule="evenodd"><path d="M0 0 L0 0 L3.51 -0.71 L6.37 -2.65 L8.29 -5.52 L9 -9.03 L8.29 -12.55 L6.37 -15.42 L3.51 -17.36 L0 -18.07 L-3.52 -17.36 L-6.39 -15.42 L-8.32 -12.55 L-9.03 -9.03 L-8.32 -5.52 L-6.39 -2.65 L-3.52 -0.71 L0 0 L0 0" stroke="none" stroke-width="0" fill="#7fabf7" fill-rule="evenodd"></path><path d="M0 0 C0 0, 0 0, 0 0 M0 0 C0 0, 0 0, 0 0 M0 0 C0.98 -0.2, 1.95 -0.4, 3.51 -0.71 M0 0 C1.33 -0.27, 2.66 -0.54, 3.51 -0.71 M3.51 -0.71 C4.19 -1.17, 4.87 -1.63, 6.37 -2.65 M3.51 -0.71 C4.48 -1.37, 5.45 -2.02, 6.37 -2.65 M6.37 -2.65 C6.81 -3.31, 7.26 -3.98, 8.29 -5.52 M6.37 -2.65 C6.85 -3.37, 7.34 -4.09, 8.29 -5.52 M8.29 -5.52 C8.53 -6.72, 8.78 -7.92, 9 -9.03 M8.29 -5.52 C8.52 -6.65, 8.75 -7.79, 9 -9.03 M9 -9.03 C8.84 -9.83, 8.68 -10.63, 8.29 -12.55 M9 -9.03 C8.81 -9.97, 8.62 -10.9, 8.29 -12.55 M8.29 -12.55 C7.55 -13.66, 6.81 -14.76, 6.37 -15.42 M8.29 -12.55 C7.56 -13.64, 6.83 -14.73, 6.37 -15.42 M6.37 -15.42 C5.46 -16.04, 4.54 -16.66, 3.51 -17.36 M6.37 -15.42 C5.4 -16.08, 4.43 -16.73, 3.51 -17.36 M3.51 -17.36 C2.78 -17.5, 2.06 -17.65, 0 -18.07 M3.51 -17.36 C2.54 -17.55, 1.57 -17.75, 0 -18.07 M0 -18.07 C-0.92 -17.88, -1.84 -17.7, -3.52 -17.36 M0 -18.07 C-1.29 -17.81, -2.57 -17.55, -3.52 -17.36 M-3.52 -17.36 C-4.09 -16.97, -4.67 -16.58, -6.39 -15.42 M-3.52 -17.36 C-4.4 -16.76, -5.28 -16.17, -6.39 -15.42 M-6.39 -15.42 C-6.79 -14.82, -7.2 -14.22, -8.32 -12.55 M-6.39 -15.42 C-6.99 -14.53, -7.59 -13.64, -8.32 -12.55 M-8.32 -12.55 C-8.47 -11.81, -8.62 -11.08, -9.03 -9.03 M-8.32 -12.55 C-8.6 -11.2, -8.87 -9.85, -9.03 -9.03 M-9.03 -9.03 C-8.88 -8.26, -8.72 -7.48, -8.32 -5.52 M-9.03 -9.03 C-8.81 -7.93, -8.59 -6.84, -8.32 -5.52 M-8.32 -5.52 C-7.88 -4.86, -7.43 -4.2, -6.39 -2.65 M-8.32 -5.52 C-7.65 -4.52, -6.98 -3.53, -6.39 -2.65 M-6.39 -2.65 C-5.37 -1.96, -4.35 -1.28, -3.52 -0.71 M-6.39 -2.65 C-5.28 -1.9, -4.18 -1.16, -3.52 -0.71 M-3.52 -0.71 C-2.43 -0.49, -1.35 -0.27, 0 0 M-3.52 -0.71 C-2.61 -0.53, -1.7 -0.34, 0 0 M0 0 C0 0, 0 0, 0 0 M0 0 C0 0, 0 0, 0 0 M0 0 C0 0, 0 0, 0 0 M0 0 C0 0, 0 0, 0 0" stroke="#7fabf7" stroke-width="1" fill="none"></path></g></g><g stroke-linecap="round"><g transform="translate(35.29498505381336 351.68141829229023) rotate(0 -0.01806816168591041 -10.840709146145116)" fill-rule="evenodd"><path d="M0 0 L0 0 L4.22 -0.85 L7.65 -3.17 L9.96 -6.62 L10.8 -10.84 L9.96 -15.07 L7.65 -18.51 L4.22 -20.83 L0 -21.68 L-4.22 -20.83 L-7.67 -18.51 L-9.99 -15.07 L-10.84 -10.84 L-9.99 -6.62 L-7.67 -3.17 L-4.22 -0.85 L0 0 L0 0" stroke="none" stroke-width="0" fill="#7fabf7" fill-rule="evenodd"></path><path d="M0 0 C0 0, 0 0, 0 0 M0 0 C0 0, 0 0, 0 0 M0 0 C0.96 -0.19, 1.93 -0.39, 4.22 -0.85 M0 0 C1.02 -0.21, 2.04 -0.41, 4.22 -0.85 M4.22 -0.85 C5.52 -1.73, 6.82 -2.61, 7.65 -3.17 M4.22 -0.85 C5.4 -1.65, 6.59 -2.45, 7.65 -3.17 M7.65 -3.17 C8.37 -4.24, 9.08 -5.31, 9.96 -6.62 M7.65 -3.17 C8.33 -4.18, 9 -5.18, 9.96 -6.62 M9.96 -6.62 C10.25 -8.05, 10.53 -9.48, 10.8 -10.84 M9.96 -6.62 C10.13 -7.47, 10.3 -8.32, 10.8 -10.84 M10.8 -10.84 C10.53 -12.19, 10.26 -13.54, 9.96 -15.07 M10.8 -10.84 C10.59 -11.89, 10.38 -12.95, 9.96 -15.07 M9.96 -15.07 C9.42 -15.87, 8.89 -16.67, 7.65 -18.51 M9.96 -15.07 C9.2 -16.2, 8.43 -17.34, 7.65 -18.51 M7.65 -18.51 C6.75 -19.12, 5.85 -19.73, 4.22 -20.83 M7.65 -18.51 C6.86 -19.04, 6.07 -19.58, 4.22 -20.83 M4.22 -20.83 C2.58 -21.16, 0.94 -21.49, 0 -21.68 M4.22 -20.83 C3.01 -21.07, 1.81 -21.32, 0 -21.68 M0 -21.68 C-1.13 -21.45, -2.25 -21.23, -4.22 -20.83 M0 -21.68 C-1.49 -21.38, -2.98 -21.08, -4.22 -20.83 M-4.22 -20.83 C-4.95 -20.34, -5.68 -19.85, -7.67 -18.51 M-4.22 -20.83 C-5.17 -20.2, -6.11 -19.56, -7.67 -18.51 M-7.67 -18.51 C-8.33 -17.53, -8.99 -16.54, -9.99 -15.07 M-7.67 -18.51 C-8.22 -17.69, -8.77 -16.87, -9.99 -15.07 M-9.99 -15.07 C-10.23 -13.89, -10.46 -12.72, -10.84 -10.84 M-9.99 -15.07 C-10.2 -14, -10.42 -12.93, -10.84 -10.84 M-10.84 -10.84 C-10.51 -9.17, -10.17 -7.51, -9.99 -6.62 M-10.84 -10.84 C-10.58 -9.55, -10.32 -8.26, -9.99 -6.62 M-9.99 -6.62 C-9.44 -5.8, -8.89 -4.98, -7.67 -3.17 M-9.99 -6.62 C-9.45 -5.82, -8.91 -5.02, -7.67 -3.17 M-7.67 -3.17 C-6.66 -2.49, -5.65 -1.81, -4.22 -0.85 M-7.67 -3.17 C-6.71 -2.52, -5.74 -1.87, -4.22 -0.85 M-4.22 -0.85 C-2.9 -0.58, -1.58 -0.32, 0 0 M-4.22 -0.85 C-2.65 -0.53, -1.07 -0.21, 0 0 M0 0 C0 0, 0 0, 0 0 M0 0 C0 0, 0 0, 0 0 M0 0 C0 0, 0 0, 0 0 M0 0 C0 0, 0 0, 0 0" stroke="#7fabf7" stroke-width="1" fill="none"></path></g></g><g stroke-linecap="round"><g transform="translate(62.39675496531768 362.52212625689253) rotate(0 0.000004726173607139117 9.033922516139114)" fill-rule="evenodd"><path d="M0 0 L0 0 L-5.9 0.62 L-12.42 2.49 L-17.7 5.59 L-19.29 7.61 L-19.87 9.94 L-19.87 18.07 L19.87 18.07 L19.87 9.94 L19.87 9.94 L19.29 7.61 L17.7 5.59 L12.42 2.49 L5.9 0.62 L0 0 L0 0" stroke="none" stroke-width="0" fill="#7fabf7" fill-rule="evenodd"></path><path d="M0 0 C0 0, 0 0, 0 0 M0 0 C0 0, 0 0, 0 0 M0 0 C-1.53 0.16, -3.05 0.32, -5.9 0.62 M0 0 C-1.48 0.16, -2.95 0.31, -5.9 0.62 M-5.9 0.62 C-7.83 1.18, -9.77 1.73, -12.42 2.49 M-5.9 0.62 C-8.01 1.23, -10.12 1.83, -12.42 2.49 M-12.42 2.49 C-13.54 3.15, -14.67 3.81, -17.7 5.59 M-12.42 2.49 C-14.03 3.44, -15.64 4.38, -17.7 5.59 M-17.7 5.59 C-18.1 6.1, -18.5 6.61, -19.29 7.61 M-17.7 5.59 C-18.14 6.16, -18.59 6.72, -19.29 7.61 M-19.29 7.61 C-19.43 8.15, -19.56 8.69, -19.87 9.94 M-19.29 7.61 C-19.46 8.27, -19.62 8.94, -19.87 9.94 M-19.87 9.94 C-19.87 12.41, -19.87 14.88, -19.87 18.07 M-19.87 9.94 C-19.87 12.43, -19.87 14.93, -19.87 18.07 M-19.87 18.07 C-10.73 18.07, -1.59 18.07, 19.87 18.07 M-19.87 18.07 C-5.74 18.07, 8.4 18.07, 19.87 18.07 M19.87 18.07 C19.87 15.35, 19.87 12.63, 19.87 9.94 M19.87 18.07 C19.87 16.03, 19.87 13.99, 19.87 9.94 M19.87 9.94 C19.87 9.94, 19.87 9.94, 19.87 9.94 M19.87 9.94 C19.87 9.94, 19.87 9.94, 19.87 9.94 M19.87 9.94 C19.68 9.18, 19.5 8.42, 19.29 7.61 M19.87 9.94 C19.69 9.19, 19.5 8.43, 19.29 7.61 M19.29 7.61 C18.65 6.81, 18.02 6, 17.7 5.59 M19.29 7.61 C18.89 7.1, 18.48 6.58, 17.7 5.59 M17.7 5.59 C16.32 4.78, 14.94 3.97, 12.42 2.49 M17.7 5.59 C16.58 4.94, 15.46 4.28, 12.42 2.49 M12.42 2.49 C10.7 2, 8.98 1.51, 5.9 0.62 M12.42 2.49 C10.24 1.87, 8.06 1.24, 5.9 0.62 M5.9 0.62 C4.56 0.48, 3.23 0.34, 0 0 M5.9 0.62 C3.67 0.39, 1.44 0.15, 0 0 M0 0 C0 0, 0 0, 0 0 M0 0 C0 0, 0 0, 0 0 M0 0 C0 0, 0 0, 0 0 M0 0 C0 0, 0 0, 0 0" stroke="#7fabf7" stroke-width="1" fill="none"></path></g></g><g stroke-linecap="round"><g transform="translate(35.294985053813434 358.90855535996684) rotate(0 -8.365411463036963 10.840707964601734)" fill-rule="evenodd"><path d="M0 0 L0 0 L-3.5 0.2 L-7.5 0.79 L-15.8 3.17 L-19.51 4.95 L-22.53 7.12 L-24.55 9.69 L-25.29 12.65 L-25.29 21.68 L0 21.68 L0 13.55 L0 13.55 L0.3 10.87 L1.52 7.66 L4.12 4.26 L8.56 1.01 L4 0.26 L0 0 L0 0" stroke="none" stroke-width="0" fill="#7fabf7" fill-rule="evenodd"></path><path d="M0 0 C0 0, 0 0, 0 0 M0 0 C0 0, 0 0, 0 0 M0 0 C-0.72 0.04, -1.45 0.08, -3.5 0.2 M0 0 C-0.81 0.05, -1.62 0.09, -3.5 0.2 M-3.5 0.2 C-4.79 0.39, -6.08 0.58, -7.5 0.79 M-3.5 0.2 C-4.87 0.4, -6.23 0.6, -7.5 0.79 M-7.5 0.79 C-9.71 1.42, -11.91 2.05, -15.8 3.17 M-7.5 0.79 C-10.17 1.55, -12.83 2.31, -15.8 3.17 M-15.8 3.17 C-17.03 3.76, -18.26 4.34, -19.51 4.95 M-15.8 3.17 C-16.91 3.69, -18.01 4.22, -19.51 4.95 M-19.51 4.95 C-20.44 5.62, -21.37 6.29, -22.53 7.12 M-19.51 4.95 C-20.26 5.48, -21 6.02, -22.53 7.12 M-22.53 7.12 C-23.26 8.05, -23.99 8.97, -24.55 9.69 M-22.53 7.12 C-23.27 8.06, -24.02 9.01, -24.55 9.69 M-24.55 9.69 C-24.71 10.32, -24.87 10.96, -25.29 12.65 M-24.55 9.69 C-24.81 10.7, -25.06 11.7, -25.29 12.65 M-25.29 12.65 C-25.29 14.81, -25.29 16.97, -25.29 21.68 M-25.29 12.65 C-25.29 15.34, -25.29 18.03, -25.29 21.68 M-25.29 21.68 C-19.34 21.68, -13.39 21.68, 0 21.68 M-25.29 21.68 C-18.07 21.68, -10.85 21.68, 0 21.68 M0 21.68 C0 19.11, 0 16.53, 0 13.55 M0 21.68 C0 19.79, 0 17.89, 0 13.55 M0 13.55 C0 13.55, 0 13.55, 0 13.55 M0 13.55 C0 13.55, 0 13.55, 0 13.55 M0 13.55 C0.11 12.57, 0.22 11.58, 0.3 10.87 M0 13.55 C0.07 12.96, 0.13 12.36, 0.3 10.87 M0.3 10.87 C0.66 9.93, 1.02 8.98, 1.52 7.66 M0.3 10.87 C0.57 10.17, 0.83 9.47, 1.52 7.66 M1.52 7.66 C2.27 6.68, 3.02 5.69, 4.12 4.26 M1.52 7.66 C2.33 6.59, 3.15 5.53, 4.12 4.26 M4.12 4.26 C5.02 3.6, 5.92 2.94, 8.56 1.01 M4.12 4.26 C5.14 3.51, 6.16 2.77, 8.56 1.01 M8.56 1.01 C7.63 0.86, 6.7 0.71, 4 0.26 M8.56 1.01 C7.38 0.82, 6.19 0.62, 4 0.26 M4 0.26 C2.53 0.17, 1.06 0.07, 0 0 M4 0.26 C2.64 0.17, 1.27 0.08, 0 0 M0 0 C0 0, 0 0, 0 0 M0 0 C0 0, 0 0, 0 0 M0 0 C0 0, 0 0, 0 0 M0 0 C0 0, 0 0, 0 0" stroke="#7fabf7" stroke-width="1" fill="none"></path></g></g><g stroke-linecap="round"><g transform="translate(98.49557522123945 370.0625296107346) rotate(0 100.00000000000001 -0.03126480536730014)"><path d="M0 0 C43.34 -0.01, 86.67 -0.03, 200 -0.06 M0 0 C46.77 -0.01, 93.55 -0.03, 200 -0.06" stroke="#7fabf7" stroke-width="1" fill="none"></path></g><g transform="translate(98.49557522123945 370.0625296107346) rotate(0 100.00000000000001 -0.03126480536730014)"><path d="M200 -0.06 L186.41 6.28 L186.4 -6.4 L200 -0.06" stroke="none" stroke-width="0" fill="#7fabf7" fill-rule="evenodd"></path><path d="M200 -0.06 C197.05 1.31, 194.11 2.69, 186.41 6.28 M200 -0.06 C196.82 1.42, 193.64 2.9, 186.41 6.28 M186.41 6.28 C186.41 3.31, 186.41 0.34, 186.4 -6.4 M186.41 6.28 C186.41 2.42, 186.4 -1.44, 186.4 -6.4 M186.4 -6.4 C191.04 -4.24, 195.68 -2.08, 200 -0.06 M186.4 -6.4 C190.12 -4.67, 193.84 -2.93, 200 -0.06 M200 -0.06 C200 -0.06, 200 -0.06, 200 -0.06 M200 -0.06 C200 -0.06, 200 -0.06, 200 -0.06" stroke="#7fabf7" stroke-width="1" fill="none"></path></g></g><g transform="translate(858.4955752212395 610) rotate(0 59.19999999999999 7.2000000000000455)"><text x="0" y="11.4" font-family="Helvetica, Segoe UI Emoji" font-size="12.799999999999995px" fill="#000000" text-anchor="start" style="white-space: pre;" direction="ltr">deployed using helm</text></g><g transform="translate(158.49557522123945 350) rotate(0 18 9)"><text x="0" y="14" font-family="Helvetica, Segoe UI Emoji" font-size="16px" fill="#ffffff" text-anchor="start" style="white-space: pre;" direction="ltr">https</text></g><g stroke-linecap="round" transform="translate(498.49557522123945 210) rotate(0 90 32.72727272727269)"><path d="M16.36 0 L163.64 0 L170.8 1.02 L175.91 4.09 L177.7 6.39 L179.74 12.53 L180 49.09 L178.98 56.25 L177.7 59.06 L173.61 63.15 L167.47 65.2 L163.64 65.45 L16.36 65.45 L9.2 64.43 L4.09 61.36 L2.3 59.06 L0.26 52.93 L0.26 12.53 L2.3 6.39 L6.39 2.3 L9.2 1.02 L16.36 0" stroke="none" stroke-width="0" fill="#ffffff"></path><path d="M16.36 0 M16.36 0 C63.62 0, 110.88 0, 163.64 0 M16.36 0 C60.23 0, 104.09 0, 163.64 0 M163.64 0 C174.55 0, 180 5.45, 180 16.36 M163.64 0 C174.55 0, 180 5.45, 180 16.36 M180 16.36 C180 23.94, 180 31.51, 180 49.09 M180 16.36 C180 26.83, 180 37.31, 180 49.09 M180 49.09 C180 60, 174.55 65.45, 163.64 65.45 M180 49.09 C180 60, 174.55 65.45, 163.64 65.45 M163.64 65.45 C112.37 65.45, 61.1 65.45, 16.36 65.45 M163.64 65.45 C105.53 65.45, 47.43 65.45, 16.36 65.45 M16.36 65.45 C5.45 65.45, 0 60, 0 49.09 M16.36 65.45 C5.45 65.45, 0 60, 0 49.09 M0 49.09 C0 41.89, 0 34.69, 0 16.36 M0 49.09 C0 39.39, 0 29.7, 0 16.36 M0 16.36 C0 5.45, 5.45 0, 16.36 0 M0 16.36 C0 5.45, 5.45 0, 16.36 0" stroke="#7fabf7" stroke-width="2" fill="none"></path></g><g transform="translate(558.4955752212395 230) rotate(0 50 18)"><text x="0" y="14" font-family="Helvetica, Segoe UI Emoji" font-size="16px" fill="#000000" text-anchor="start" style="white-space: pre;" direction="ltr">External </text><text x="0" y="32" font-family="Helvetica, Segoe UI Emoji" font-size="16px" fill="#000000" text-anchor="start" style="white-space: pre;" direction="ltr">LoadBalancer</text></g><g stroke-linecap="round"><g transform="translate(512.2096037573059 229.65677423502893) rotate(0 15.999699958744344 15.999699958744316)" fill-rule="evenodd"><path d="M0 0 L32 0 L32 32 L0 32 L0 0" stroke="none" stroke-width="0" fill="#00000000" fill-rule="evenodd"></path><path d="M0 0 C10.12 0, 20.25 0, 32 0 M0 0 C9.46 0, 18.92 0, 32 0 M32 0 C32 7.55, 32 15.1, 32 32 M32 0 C32 11.17, 32 22.34, 32 32 M32 32 C24.28 32, 16.56 32, 0 32 M32 32 C22.82 32, 13.64 32, 0 32 M0 32 C0 25.42, 0 18.84, 0 0 M0 32 C0 22.22, 0 12.44, 0 0 M0 0 C0 0, 0 0, 0 0 M0 0 C0 0, 0 0, 0 0" stroke="#00000000" stroke-width="1" fill="none"></path></g></g><g stroke-linecap="round"><g transform="translate(541.5423893401091 244.32316702642993) rotate(0 -13.333084425176452 1.3333071673427526)" fill-rule="evenodd"><path d="M0 0 L0 -10.67 L-9.33 -10.67 L-9.33 -6.67 L-17.33 -6.67 L-17.33 -10.67 L-26.67 -10.67 L-26.67 0 L-17.33 0 L-17.33 -4 L-14.67 -4 L-14.67 9.33 L-9.33 9.33 L-9.33 13.33 L0 13.33 L0 2.67 L-9.33 2.67 L-9.33 6.67 L-12 6.67 L-12 -4 L-9.33 -4 L-9.33 0 L0 0" stroke="none" stroke-width="0" fill="#7fabf7" fill-rule="evenodd"></path><path d="M0 0 C0 -3.45, 0 -6.91, 0 -10.67 M0 0 C0 -3.63, 0 -7.26, 0 -10.67 M0 -10.67 C-2.64 -10.67, -5.29 -10.67, -9.33 -10.67 M0 -10.67 C-2.55 -10.67, -5.09 -10.67, -9.33 -10.67 M-9.33 -10.67 C-9.33 -9.08, -9.33 -7.49, -9.33 -6.67 M-9.33 -10.67 C-9.33 -9.51, -9.33 -8.35, -9.33 -6.67 M-9.33 -6.67 C-10.99 -6.67, -12.66 -6.67, -17.33 -6.67 M-9.33 -6.67 C-10.97 -6.67, -12.6 -6.67, -17.33 -6.67 M-17.33 -6.67 C-17.33 -7.94, -17.33 -9.21, -17.33 -10.67 M-17.33 -6.67 C-17.33 -8.22, -17.33 -9.77, -17.33 -10.67 M-17.33 -10.67 C-19.52 -10.67, -21.7 -10.67, -26.67 -10.67 M-17.33 -10.67 C-20.79 -10.67, -24.25 -10.67, -26.67 -10.67 M-26.67 -10.67 C-26.67 -7.31, -26.67 -3.95, -26.67 0 M-26.67 -10.67 C-26.67 -7.01, -26.67 -3.35, -26.67 0 M-26.67 0 C-24.64 0, -22.61 0, -17.33 0 M-26.67 0 C-23.28 0, -19.9 0, -17.33 0 M-17.33 0 C-17.33 -0.98, -17.33 -1.95, -17.33 -4 M-17.33 0 C-17.33 -1.02, -17.33 -2.04, -17.33 -4 M-17.33 -4 C-16.29 -4, -15.25 -4, -14.67 -4 M-17.33 -4 C-16.75 -4, -16.17 -4, -14.67 -4 M-14.67 -4 C-14.67 -0.1, -14.67 3.79, -14.67 9.33 M-14.67 -4 C-14.67 0.28, -14.67 4.57, -14.67 9.33 M-14.67 9.33 C-13.23 9.33, -11.8 9.33, -9.33 9.33 M-14.67 9.33 C-12.98 9.33, -11.29 9.33, -9.33 9.33 M-9.33 9.33 C-9.33 10.44, -9.33 11.54, -9.33 13.33 M-9.33 9.33 C-9.33 10.67, -9.33 12, -9.33 13.33 M-9.33 13.33 C-6.11 13.33, -2.88 13.33, 0 13.33 M-9.33 13.33 C-6.65 13.33, -3.97 13.33, 0 13.33 M0 13.33 C0 9.71, 0 6.08, 0 2.67 M0 13.33 C0 9.29, 0 5.24, 0 2.67 M0 2.67 C-3.67 2.67, -7.34 2.67, -9.33 2.67 M0 2.67 C-2.82 2.67, -5.64 2.67, -9.33 2.67 M-9.33 2.67 C-9.33 3.71, -9.33 4.75, -9.33 6.67 M-9.33 2.67 C-9.33 4.03, -9.33 5.39, -9.33 6.67 M-9.33 6.67 C-10.31 6.67, -11.28 6.67, -12 6.67 M-9.33 6.67 C-10.34 6.67, -11.35 6.67, -12 6.67 M-12 6.67 C-12 3.01, -12 -0.65, -12 -4 M-12 6.67 C-12 2.44, -12 -1.79, -12 -4 M-12 -4 C-11.22 -4, -10.44 -4, -9.33 -4 M-12 -4 C-11.25 -4, -10.51 -4, -9.33 -4 M-9.33 -4 C-9.33 -2.71, -9.33 -1.42, -9.33 0 M-9.33 -4 C-9.33 -2.72, -9.33 -1.44, -9.33 0 M-9.33 0 C-5.68 0, -2.03 0, 0 0 M-9.33 0 C-7.33 0, -5.32 0, 0 0 M0 0 C0 0, 0 0, 0 0 M0 0 C0 0, 0 0, 0 0" stroke="#00000000" stroke-width="1" fill="none"></path></g></g><g stroke-linecap="round"><g transform="translate(558.4955752212395 370) rotate(0 0 -40)"><path d="M0 0 C0 -18.17, 0 -36.33, 0 -80" stroke="#000000" stroke-width="1.5" fill="none" stroke-dasharray="8 9"></path></g><g transform="translate(558.4955752212395 370) rotate(0 0 -40)"><path d="M0 -80 L6.34 -66.41 L-6.34 -66.41 L0 -80" stroke="none" stroke-width="0" fill="#000000" fill-rule="evenodd"></path><path d="M0 -80 C1.44 -76.91, 2.88 -73.83, 6.34 -66.41 M6.34 -66.41 C3.62 -66.41, 0.91 -66.41, -6.34 -66.41 M-6.34 -66.41 C-4.95 -69.38, -3.57 -72.35, 0 -80 M0 -80 C0 -80, 0 -80, 0 -80" stroke="#000000" stroke-width="1.5" fill="none"></path></g></g><g stroke-linecap="round"><g transform="translate(478.49557522123945 370) rotate(0 40 0)"><path d="M0 0 C17.07 0, 34.14 0, 80 0" stroke="#000000" stroke-width="1.5" fill="none" stroke-dasharray="8 9"></path></g></g><g stroke-linecap="round"><g transform="translate(618.4955752212395 290) rotate(0 50.376106194690124 96.5)"><path d="M0 0 C0.44 48.55, 0.88 97.11, 1.75 193 M1.75 193 C32.82 192.69, 63.89 192.37, 100.75 192" stroke="#000000" stroke-width="1.5" fill="none" stroke-dasharray="8 9"></path></g><g transform="translate(618.4955752212395 290) rotate(0 50.376106194690124 96.5)"><path d="M100.75 192 L87.22 198.48 L87.09 185.8 L100.75 192" stroke="none" stroke-width="0" fill="#000000" fill-rule="evenodd"></path><path d="M100.75 192 C97.35 193.63, 93.94 195.26, 87.22 198.48 M87.22 198.48 C87.18 194.5, 87.14 190.52, 87.09 185.8 M87.09 185.8 C90.55 187.37, 94 188.94, 100.75 192 M100.75 192 C100.75 192, 100.75 192, 100.75 192" stroke="#000000" stroke-width="1.5" fill="none"></path></g></g><g stroke-linecap="round"><g transform="translate(878.4955752212395 470) rotate(0 20 0)"><path d="M0 0 C11.47 0, 22.94 0, 40 0" stroke="#000000" stroke-width="1.5" fill="none" stroke-dasharray="8 9"></path></g><g transform="translate(878.4955752212395 470) rotate(0 20 0)"><path d="M40 0 L26.41 6.34 L26.41 -6.34 L40 0" stroke="none" stroke-width="0" fill="#000000" fill-rule="evenodd"></path><path d="M40 0 C36.1 1.82, 32.2 3.64, 26.41 6.34 M26.41 6.34 C26.41 1.71, 26.41 -2.91, 26.41 -6.34 M26.41 -6.34 C29.93 -4.7, 33.45 -3.06, 40 0 M40 0 C40 0, 40 0, 40 0" stroke="#000000" stroke-width="1.5" fill="none"></path></g></g></svg>